<svg width="1212" height="1136" viewBox="0 0 1212 1136" fill="none" xmlns="http://www.w3.org/2000/svg">
<path d="M1062.95 34.2319H559.528V531.339H1062.95V34.2319Z" stroke="#EEC84E" stroke-width="0.6" stroke-miterlimit="10"/>
<path d="M559.528 89.8309H1061.82" stroke="#EEC84E" stroke-width="0.6" stroke-miterlimit="10"/>
<path d="M559.528 155.444H1061.82" stroke="#EEC84E" stroke-width="0.6" stroke-miterlimit="10"/>
<path d="M559.528 221.058H1061.82" stroke="#EEC84E" stroke-width="0.6" stroke-miterlimit="10"/>
<path d="M559.528 286.67H1061.82" stroke="#EEC84E" stroke-width="0.6" stroke-miterlimit="10"/>
<path d="M559.528 352.283H1061.82" stroke="#EEC84E" stroke-width="0.6" stroke-miterlimit="10"/>
<path d="M559.528 417.897H1061.82" stroke="#EEC84E" stroke-width="0.6" stroke-miterlimit="10"/>
<path d="M559.528 483.51H1061.82" stroke="#EEC84E" stroke-width="0.6" stroke-miterlimit="10"/>
<path d="M635.586 33.1091V530.216" stroke="#EEC84E" stroke-width="0.6" stroke-miterlimit="10"/>
<path d="M708.301 33.1091V530.216" stroke="#EEC84E" stroke-width="0.6" stroke-miterlimit="10"/>
<path d="M781.039 33.1091V530.216" stroke="#EEC84E" stroke-width="0.6" stroke-miterlimit="10"/>
<path d="M853.755 33.1091V530.216" stroke="#EEC84E" stroke-width="0.6" stroke-miterlimit="10"/>
<path d="M926.47 33.1091V530.216" stroke="#EEC84E" stroke-width="0.6" stroke-miterlimit="10"/>
<path d="M999.185 33.1091V530.216" stroke="#EEC84E" stroke-width="0.6" stroke-miterlimit="10"/>
<path d="M608.398 308.082H301.883C178.922 308.082 79.2422 407.168 79.2422 529.398V827.395C79.2422 949.625 178.922 1048.71 301.883 1048.71H608.398C731.359 1048.71 831.039 949.625 831.039 827.395V529.398C831.039 407.168 731.359 308.082 608.398 308.082Z" fill="black"/>
<path d="M608.398 308.081H301.883C178.922 308.081 79.2422 407.168 79.2422 529.397V827.395C79.2422 949.624 178.922 1048.71 301.883 1048.71H608.398C731.359 1048.71 831.039 949.624 831.039 827.395V529.397C831.039 407.168 731.359 308.081 608.398 308.081Z" fill="#75C442"/>
<path opacity="0.38" d="M639.871 672.464C609.01 682.339 627.465 683.181 622.192 688.844C604.655 696.168 600.159 696.636 598.299 695.443C596.439 694.249 597.31 691.184 590.625 692.097C580.914 696.977 571.582 702.569 562.706 708.828C555.23 714.268 547.362 719.156 539.166 723.452C537.519 723.078 534.27 724.295 537.26 721.276C534.497 723.445 531.621 725.468 528.644 727.337C525.443 729.419 522.006 731.619 518.31 733.819L494.77 747.859C478.574 757.733 462.238 768.427 452.163 779.214C450.884 779.758 449.503 780.021 448.114 779.987C453.834 779.987 456.258 782.327 456.776 784.877C453.905 786.843 451.244 788.925 448.82 790.961L442.111 796.764C437.991 800.251 434.437 802.638 431.071 802.427C438.133 797.63 437.733 795.828 440.251 792.459C436.603 795.758 432.93 799.034 429.352 802.38C422.29 803.808 425.915 800.368 431.188 796.273C436.461 792.178 443.194 787.311 441.923 785.462C419.277 803.386 395.949 827.442 377.941 839.984C374.245 839.142 383.897 830.624 391.335 824.306C398.774 817.988 403.906 813.706 390.605 820.562C400.021 814.244 409.437 807.926 419.207 801.842C392.536 809.658 436.391 790.142 411.015 796.203C397.721 805.052 385.165 814.951 373.468 825.804C364.052 834.391 354.778 842.909 337.311 857.674C332.085 867.151 343.125 858.961 337.97 868.368C330.239 877.491 321.903 886.09 313.018 894.108C307.867 898.54 302.356 902.54 296.54 906.065C291.51 908.977 286.881 912.525 282.769 916.619C280.168 919.439 277.806 922.468 275.707 925.674C272.896 930.162 270.433 934.855 268.339 939.714C267.6 942.722 267.034 945.769 266.644 948.84C266.197 952.046 265.632 955.228 264.784 959.019C264.36 960.891 263.772 962.88 263.136 965.103C262.501 967.326 261.606 969.783 260.782 972.451C258.829 977.903 256.074 984.455 253.344 993.51C251.963 988.797 250.863 984.008 250.048 979.166C246.889 987.902 245.544 997.184 246.093 1006.45C246.257 1009.2 246.699 1011.93 247.412 1014.59C247.943 1016.76 248.635 1018.88 249.483 1020.94L250.59 1023.95C250.966 1024.98 251.508 1026.08 251.978 1027.25C252.449 1028.42 252.944 1029.59 253.438 1031C253.932 1032.4 254.733 1033.81 255.439 1035.44C255.792 1036.24 256.168 1037.08 256.545 1037.97C256.922 1038.86 257.534 1039.75 258.052 1040.73C259.156 1042.88 260.406 1044.95 261.795 1046.93C263.418 1049.42 265.253 1051.77 267.279 1053.95C268.386 1055.12 269.492 1056.41 270.787 1057.65C272.082 1058.89 273.494 1060.13 275.071 1061.28C273.424 1060.66 271.846 1059.88 270.363 1058.94C268.449 1057.67 266.632 1056.26 264.925 1054.72C262.897 1052.97 261.059 1051.01 259.441 1048.87C258.6 1047.9 257.815 1046.87 257.087 1045.81L255.133 1042.65C254.544 1041.6 253.956 1040.59 253.391 1039.66C252.826 1038.72 252.543 1037.71 252.143 1036.85L250.331 1032.54C249.577 1030.41 249.365 1029.92 249.742 1032.14C250.26 1034.72 250.919 1037.08 251.555 1039.16C252.208 1041.17 252.994 1043.13 253.909 1045.04L255.18 1047.56C255.627 1048.36 256.145 1049.06 256.616 1049.74C257.573 1051.1 258.491 1052.31 259.37 1053.39C260.168 1054.38 261.067 1055.28 262.053 1056.08C262.948 1056.85 263.772 1057.51 264.596 1058.09C266.002 1059.18 267.545 1060.08 269.186 1060.76C272.341 1062.06 275.572 1063.17 278.861 1064.08C282.651 1065.28 287.406 1066.82 294.303 1068.6C295.753 1071.02 297.324 1073.36 299.011 1075.62C306.148 1076.67 313.382 1076.91 320.574 1076.35C327.219 1075.89 333.825 1074.98 340.348 1073.63C346.491 1072.3 352.682 1070.99 358.873 1069.54C365.065 1068.09 371.208 1066.19 377.376 1064.39C402.189 1056.66 426.385 1047.09 449.761 1035.77C448.843 1037.22 446.513 1039.23 445.877 1040.45C445.242 1041.67 446.419 1042.35 452.374 1040.57C459.742 1036.71 467.322 1033.01 474.737 1028.87C482.152 1024.73 489.709 1020.58 497.242 1016.33C512.119 1007.53 527.114 998.448 541.497 988.62C569.537 969.816 596.276 949.162 621.533 926.797C626.076 919.894 630.431 912.874 634.692 905.737C638.529 901.619 643.472 899.583 640.082 904.755C642.877 902.423 645.389 899.777 647.568 896.869C648.368 895.605 647.804 895.442 646.885 895.488C645.026 895.605 641.777 896.565 644.908 891.44C649.428 886.082 652.912 882.969 654.818 882.244C656.725 881.519 656.937 883.11 654.677 887.041C660.915 877.985 668.283 866.894 675.981 854.609C683.678 842.324 691.517 828.752 698.885 814.829C706.253 800.906 713.127 786.749 719.2 773.224C725.274 759.699 730.547 746.735 734.996 735.784C734.69 738.896 734.36 742.009 733.866 745.144C736.633 738.052 738.385 730.608 739.068 723.031C739.233 721.464 739.327 719.966 739.398 718.515C739.468 717.064 739.398 715.66 739.398 714.28C739.398 711.519 739.186 708.921 739.045 706.371C738.903 703.82 738.574 701.223 738.432 698.602C738.432 697.291 738.433 695.981 738.315 694.6C738.197 693.22 738.197 691.839 738.174 690.365C738.276 683.322 738.787 676.29 739.704 669.305C740.151 671.505 740.363 673.704 740.645 675.904C741.656 654.886 738.29 633.887 730.758 614.222L727.463 606.804C726.874 605.587 726.404 604.324 725.745 603.13L723.767 599.573C722.402 597.234 721.178 594.894 719.695 592.554L714.987 585.861C708.72 577.189 701.39 569.328 693.165 562.461C677.69 549.829 660.106 539.992 641.212 533.399C632.626 530.346 623.861 527.814 614.965 525.817C606.42 523.875 598.158 522.401 590.272 521.137C587.211 522.915 580.667 523.477 572.523 524.132C564.378 524.787 554.609 525.372 545.169 526.659C526.337 529.116 508.823 534.077 507.905 539.763C502.42 540.77 497.783 541.565 493.781 542.244L483.377 544.28C480.363 544.865 477.656 545.286 475.138 545.824L467.675 547.532C465.157 548.141 462.473 548.796 459.436 549.662C456.4 550.527 453.057 551.721 449.055 553.101C447.054 553.827 444.889 554.552 442.582 555.441L435.096 558.507C432.436 559.653 429.493 560.847 426.386 562.227L416.382 566.907C412.991 568.635 409.828 570.773 406.966 573.272C404.351 575.532 401.853 577.922 399.48 580.432C397.126 582.983 394.654 585.674 391.759 588.435C390.323 589.816 388.769 591.22 387.051 592.671C385.332 594.121 383.543 595.666 381.495 597.234L378.012 593.045C371.256 599.808 364.876 606.851 358.567 613.847L342.796 617.755C338.088 622.201 333.38 626.53 328.672 631.023C334.792 626.343 342.796 622.622 342.937 624.541C331.116 635.24 318.707 645.278 305.767 654.61C293.997 663.268 284.581 669.352 283.334 668.65C267.546 686.309 252.52 704.631 238.255 723.616C237.619 721.042 244.822 711.495 250.025 703.609C247.365 707.611 245.317 710.629 243.504 712.969C242.274 714.708 240.921 716.358 239.455 717.907C237.36 720.013 236.301 720.13 235.289 720.247C233.311 720.247 231.404 719.989 222.318 735.199C226.202 732.274 223.26 739.201 223.636 740.488C216.904 746.244 207.582 757.172 198.401 770.135C189.195 783.249 181.033 797.058 173.99 811.436L173.52 804.674C166.452 816.689 160.162 829.139 154.688 841.95C151.816 848.384 149.132 855.521 146.755 862.705C144.262 870.138 142.242 877.719 140.705 885.403C139.063 893.579 138.095 901.874 137.809 910.207C137.489 919.161 138.28 928.121 140.163 936.883C142.14 946.155 145.496 955.083 150.121 963.371L153.981 969.549C155.347 971.515 156.806 973.41 158.242 975.329C159.687 977.248 161.26 979.07 162.95 980.781C164.507 982.566 166.157 984.269 167.893 985.882C166.792 984.759 165.776 983.554 164.857 982.279C163.986 981.132 163.209 979.939 162.503 979.049C161.332 977.502 160.381 975.801 159.678 973.995C158.642 971.187 158.854 969.783 159.913 969.596C160.973 969.409 162.856 970.415 165.257 972.404C166.458 973.41 167.964 974.463 169.518 975.844C171.071 977.224 172.813 978.675 174.697 980.29C175.35 983.558 176.199 986.785 177.239 989.954C183.712 992.551 179.593 988.877 177.239 986.233C176.062 984.782 175.285 983.612 176.203 983.729C177.204 984.014 178.168 984.415 179.075 984.923C180.605 985.601 182.771 986.654 185.69 988.152C190.774 991.685 194.07 994.213 196 995.874C197.931 997.535 198.354 998.775 197.577 999.407C196.165 1000.6 190.092 999.922 183.1 996.435C192.19 1001.62 201.914 1005.61 212.031 1008.32C213.137 1010.52 206.099 1009 203.486 1010.22C205.492 1010.52 207.469 1010.99 209.395 1011.62C210.548 1011.97 211.749 1012.39 212.996 1012.89L216.951 1014.24L221.212 1015.79L225.731 1017.33L230.439 1018.9L235.312 1020.3C248.424 1024.07 262.501 1025.99 271.14 1023.2L272.717 1024.98C297.282 1025.71 321.86 1024.1 346.115 1020.16C367.294 1016.71 388.274 1012.14 408.967 1006.47C408.802 1003.95 413.369 1001.79 419.583 999.103C422.69 997.863 426.151 996.365 429.658 994.727C433.147 993.144 436.522 991.322 439.757 989.275C473.819 979.915 511.836 968.215 549.595 948.372C562.259 940.323 563.719 938.38 563.248 937.327C562.777 936.274 560.588 936.204 565.602 931.688C569.792 934.824 606.232 912.968 588.883 926.821C610.704 913.483 624.193 904.216 638.67 893.523L649.781 885.029L661.927 875.154C666.235 871.574 670.779 867.572 675.816 863.22C680.854 858.868 686.197 853.86 692.035 848.338C685.538 851.497 678.876 855.709 681.066 852.011C685.379 848.109 690.044 844.608 695.001 841.552C699.309 838.978 702.581 837.691 702.675 839.048L700.651 841.388C725.627 815.18 757.312 788.2 784.9 758.763C798.372 744.796 810.862 729.926 822.282 714.256C832.156 700.807 840.228 686.136 846.293 670.616C845.916 671.645 845.516 672.675 845.092 673.681C853.547 655.423 861.019 636.731 867.479 617.685C873.293 605.166 872.446 609.261 871.457 614.339C870.468 619.417 869.339 625.454 874.706 616.515C875.294 614.549 875.883 612.607 876.471 610.712C877.06 608.816 877.577 606.874 878.095 605.002C879.194 601.289 880.3 597.663 881.414 594.121C882.427 590.565 883.439 587.101 884.498 583.755C885.557 580.409 886.57 577.086 887.511 573.834C891.443 560.917 895.162 548.96 898.316 537.002C901.602 525.063 904.009 512.902 905.519 500.615C907.098 487.324 906.884 473.883 904.884 460.648C907.473 449.487 906.908 433.06 901.518 415.136C895.319 394.908 884.333 376.453 869.48 361.316C867.432 359.304 865.454 357.244 863.218 355.372C860.982 353.5 858.863 351.582 856.509 349.85L853.119 347.019L849.494 344.679C847.14 343.134 844.786 341.426 842.197 339.999C832.57 334.526 822.361 330.131 811.76 326.895L804.203 324.718C801.708 324.087 799.236 323.572 796.812 322.987L793.163 322.144L789.585 321.513L782.523 320.226C773.366 318.869 764.797 317.699 757.147 316.809L760.678 319.898C757.498 320.59 754.258 320.974 751.003 321.045C748.64 321.143 746.273 320.994 743.941 320.6C739.445 319.597 734.848 319.11 730.241 319.149C732.171 321.489 747.095 320.319 737.797 322.917C721.921 324.895 706.193 327.912 690.717 331.949C683.184 334.078 675.534 335.927 668.001 338.22L656.702 341.66L651.029 343.392L645.45 345.31C615.395 355.4 585.993 367.317 557.41 380.995C528.738 394.614 500.914 409.824 473.913 425.946C446.913 442.069 420.807 459.198 395.525 476.49C377.117 489.36 374.339 496.38 370.031 503.634C365.724 510.888 359.674 518.165 335.004 532.603L344.185 518.212C335.71 525.84 327.047 533.282 318.291 540.887L292.091 563.538C287.689 567.282 283.334 571.143 279.002 574.98L265.867 586.47L252.944 598.17L246.47 604.043C244.328 606.008 242.233 608.068 240.114 610.057C206.264 642.068 174.202 676.536 150.05 715.075C151.062 712.478 151.251 710.91 151.839 709.062C152.825 706.343 154.354 703.852 156.335 701.737C151.532 706.063 147.236 710.914 143.53 716.198C141.176 719.24 138.822 722.47 136.679 725.769C134.537 729.069 132.489 732.602 130.559 735.971C128.629 739.341 126.84 742.594 125.263 745.612C123.808 748.3 122.504 751.066 121.355 753.896C119.401 758.81 118.507 762.109 119.213 762.624C111.727 774.651 114.858 763.911 108.902 770.627C108.172 771.586 107.443 772.616 106.713 773.692C105.983 774.768 105.395 776.032 104.759 777.132C103.512 779.472 102.287 782.022 101.134 784.596C98.78 789.791 96.685 795.15 94.7076 800.438C90.7529 811.249 87.9046 821.217 84.1382 825.71C83.5026 826.482 83.6674 824.985 84.1382 822.855C84.609 820.726 85.4329 817.988 85.9507 816.163C85.5741 817.824 84.9385 819.977 84.1382 822.434C83.3378 824.891 82.4904 827.816 81.5252 830.835C80.5601 833.853 79.6656 837.153 78.7946 840.429C77.9236 843.705 77.1232 847.004 76.5583 850.21C74.063 862.869 74.2043 872.837 77.1939 866.192C75.5843 875.817 75.4098 885.625 76.676 895.301C78.0392 905.094 81.0555 914.587 85.5976 923.381C86.7746 925.534 87.9516 927.687 89.1522 929.746L93.2481 935.666C94.5428 937.632 96.1671 939.387 97.6501 941.212C99.1331 943.037 100.804 944.628 102.358 946.313C108.57 952.397 115.349 957.881 122.603 962.693C125.263 963.488 128.229 964.354 131.336 965.524C134.443 966.694 137.786 967.864 141.246 968.941C148.195 971.359 155.267 973.413 162.432 975.095C176.556 978.277 188.868 978.792 191.857 975.095C190.327 978.979 205.981 981.647 224.813 980.453C234.317 979.851 243.76 978.529 253.061 976.499C260.518 974.892 267.838 972.709 274.953 969.97C271.634 971.983 276.413 971.491 281.121 971.14C285.829 970.789 290.372 970.415 286.582 973.153C297.298 970.469 307.776 966.924 317.914 962.552C325.494 958.996 329.354 956.164 326.624 954.971C337.896 953.229 348.879 949.978 359.274 945.307C369.325 940.627 378.812 935.432 387.663 930.424C395.589 925.338 403.768 920.652 412.168 916.385L417.818 913.717C419.654 912.875 421.466 912.126 423.279 911.494C426.745 910.271 430.351 909.485 434.013 909.154C437.827 906.603 441.687 904.146 445.407 901.572L456.376 893.593C463.627 888.258 470.924 883.203 477.703 877.564L487.99 869.374L493.122 865.303L495.664 863.267L498.018 861.137L517.439 844.243C542.093 821.914 565.362 798.119 587.117 772.99C588.247 774.768 585.705 778.91 581.421 784.269C579.302 786.936 576.713 789.908 573.958 792.997C571.204 796.086 568.262 799.409 565.107 802.357C558.916 808.464 552.843 814.478 548.818 819.228C547.187 821.085 545.715 823.073 544.416 825.172C543.568 826.716 543.521 827.839 544.416 828.354C547.264 825.687 549.854 822.902 552.349 820.164C554.844 817.426 557.292 814.735 559.693 812.138L566.614 804.393C567.744 803.129 568.968 801.889 569.957 800.602L573.064 796.741L584.999 781.835C586.906 779.495 588.906 777.155 590.695 774.558C592.484 771.96 594.321 769.62 596.11 767.14C599.735 762.226 603.36 757.359 607.103 752.468C610.846 747.578 614.165 742.313 618.12 737.141C620.05 734.567 621.98 731.923 623.981 729.256C625.982 726.588 628.053 723.92 630.007 721.042C634.009 715.38 638.27 709.53 642.884 703.422C652.912 691.067 640.53 712.782 638.529 717.883C655.493 691.941 670.857 666.201 684.62 640.664L694.366 621.359C695.166 619.744 696.013 618.176 696.72 616.538L698.862 611.624L703.028 601.843C705.712 595.315 708.537 588.903 710.773 582.281C713.009 575.659 715.175 569.083 717.011 562.391C717.647 562.766 716.446 568.709 714.94 574.091C718.659 563.865 724.638 550.504 720.801 550.691L718.259 561.057C712.797 568.311 714.092 557.29 715.763 544.116C717.435 530.942 719.177 515.545 718 514.304C720.825 524.319 724.897 511.52 728.146 499.633C729.84 493.712 731.229 488.05 732.854 485.803C734.478 483.557 736.314 484.703 738.385 492.659C738.95 485.288 738.268 475.929 735.678 477.333C737.538 466.709 739.139 463.293 740.904 474.595C741.355 467.359 741.261 460.101 740.622 452.88C740.256 449.171 739.65 445.49 738.809 441.858C738.127 438.84 737.656 436.125 736.949 431.445C736.243 426.765 735.537 420.728 733.348 411.228C735.137 410.947 737.514 418.575 739.963 422.366C736.74 411.987 732.366 401.996 726.922 392.578C723.471 386.619 719.279 381.116 714.445 376.198C708.225 369.847 700.541 365.1 692.059 362.369C693.353 362.158 692.977 361.456 693.73 361.199C694.52 361.069 695.33 361.141 696.084 361.41C698.181 361.921 700.199 362.708 702.087 363.75C700.128 362.73 698.079 361.892 695.966 361.246C693.922 360.505 691.82 359.934 689.681 359.538C685.663 358.787 681.57 358.512 677.487 358.719C670.431 359.174 663.485 360.697 656.89 363.235C653.853 364.381 651.005 365.575 648.274 366.932C645.544 368.289 643.001 369.646 640.412 371.003C637.823 372.361 635.374 373.905 632.856 375.356C630.337 376.807 627.983 378.445 625.558 380.036C606.279 392.742 588.953 407.835 567.179 424.94C570.804 416.727 566.826 419.348 561.153 423.747C555.48 428.146 548.3 434.324 545.004 432.896L524.831 454.284L535.612 448.621C516.78 466.007 503.291 484.75 485.472 497.761L497.783 483.019C486.233 494.063 474.588 504.983 462.85 515.779C470.241 510.49 477.492 505.038 484.836 499.656C467.675 519.335 492.534 504.079 465.627 525.209C467.981 522.681 463.273 526.87 456.211 532.416C449.165 538.2 441.546 543.256 433.472 547.509C425.044 557.103 416.358 567.165 400.516 577.578C395.384 578.982 399.127 569.434 395.808 570.324C394.736 572.17 393.457 573.889 391.994 575.448C390.252 577.297 388.11 579.309 385.709 581.462C380.86 585.674 375.069 590.565 368.949 595.174C362.828 599.784 356.755 604.675 351.435 608.98C346.911 612.398 342.838 616.368 339.312 620.797C342.89 616.679 341.148 613.777 339.312 614.105C337.287 617.264 335.333 620.54 333.215 623.652C322.528 628.94 320.715 629.291 320.809 625.992C313.324 630.672 310.405 633.012 309.675 634.229C308.945 635.445 310.499 635.633 311.817 635.843C314.454 636.264 316.172 636.826 297.246 646.35C299.882 644.314 298.187 644.571 303.696 640.383L250.378 671.037C241.55 675.717 232.864 680.397 224.013 684.656C215.268 688.828 206.247 692.401 197.012 695.349C190.586 694.226 198.26 691.044 205.628 687.697C212.996 684.351 220.223 680.935 213.208 681.028C188.42 692.494 162.479 703.375 135.385 707.119C128.679 708.062 121.912 708.508 115.14 708.453C108.456 708.377 101.792 707.711 95.2255 706.464C88.784 705.241 82.4771 703.399 76.3935 700.965L74.0395 700.099L71.5913 699.046C70.1319 698.344 68.6724 697.713 67.2364 696.964C64.4347 695.481 61.7158 693.848 59.0916 692.073C61.4456 694.015 64.2469 695.63 66.8833 697.385C61.7045 699.889 53.136 694.132 45.3678 685.007C41.364 680.178 37.7585 675.037 34.5865 669.633L33.3153 667.597L32.1618 665.514C31.385 664.11 30.4905 662.8 29.8078 661.419C28.2071 658.658 26.6299 655.897 24.9115 653.229C27.9953 658.658 32.9387 658.073 31.2673 657.184C24.3286 640.89 20.6814 623.398 20.5331 605.704C20.5331 603.2 20.5331 600.65 20.5331 598.053C20.4794 595.413 20.5658 592.773 20.792 590.143C21.125 584.576 21.7536 579.031 22.6752 573.529C24.6133 561.065 27.864 548.838 32.3737 537.049L32.0677 540.606C32.0677 541.776 32.0677 542.946 32.0677 544.186C33.1741 541.846 34.61 539.319 36.0224 536.675C37.4348 534.03 38.7766 531.176 40.4008 528.344C42.0251 525.513 43.6729 522.564 45.3678 519.569C47.0627 516.574 49.04 513.649 50.8526 510.631C57.8537 499.282 65.8491 488.57 74.7457 478.62C75.4651 476.757 76.3391 474.956 77.3586 473.238C78.4179 471.412 79.7126 469.728 80.4188 468.347C82.0431 465.562 82.3491 464.065 78.3473 466.007C92.848 454.775 106.219 443.637 119.33 432.545C132.442 421.454 145.389 410.502 158.454 400.043C171.288 389.52 184.892 379.962 199.155 371.448C213.112 363.092 228.163 356.69 243.881 352.424C236.819 355.583 228.368 362.205 233.805 359.444C249.813 350.843 266.258 343.071 283.075 336.161C280.76 335.159 278.176 334.953 275.73 335.576C273.047 336.067 269.492 336.886 263.584 337.682C269.068 332.745 283.122 325.491 296.21 321.115C284.817 326.45 285.452 327.948 290.231 327.971C293.335 327.89 296.431 327.633 299.506 327.199L309.322 326.146C307.25 325.491 310.334 323.104 309.086 322.168C316.478 321.7 320.339 321.115 322.575 320.132C324.233 319.378 325.556 318.046 326.294 316.388C328.083 313.487 331.19 309.743 351.035 307.707L349.457 310.211C363.581 306.045 376.529 300.476 392.512 299.283C396.067 301.248 392.206 302.208 387.475 303.261C382.743 304.314 377.07 305.601 376.905 307.566C387.757 305.648 398.232 302.161 408.849 300.078C419.465 297.996 430.2 297.387 439.828 300.991C430.412 300.991 416.97 300.617 407.719 302.512C418.642 304.712 424.362 306.069 429.493 306.841C435.202 307.505 440.869 308.489 446.466 309.789L445.006 309.368C450.643 310.763 456.154 312.618 461.484 314.914C466.699 317.12 471.702 319.791 476.432 322.893C474.196 321.045 471.724 319.407 469.37 317.699C483.494 317.301 496.159 324.882 505.787 335.81C510.776 341.57 514.994 347.949 518.333 354.787C522.107 362.554 525.119 370.665 527.326 379.006C526.395 375.549 525.174 372.176 523.677 368.921C523.089 367.727 522.571 366.768 522.123 365.949C521.676 365.13 521.229 364.568 520.876 364.1C519.487 362.228 519.11 362.673 519.04 363.96C519.04 366.534 519.605 372.758 516.686 371.939C516.706 376.373 516.256 380.797 515.344 385.137C514.496 388.881 513.531 391.034 512.99 389.232C513.742 392.844 513.742 396.571 512.99 400.183C512.289 403.741 511.281 407.233 509.977 410.619C506.528 419.357 503.981 428.421 502.373 437.67C501.432 437.834 499.407 441.858 497.383 445.181C495.358 448.504 493.122 451.054 492.086 448.363C487.378 458.168 488.65 457.443 491.262 454.541C493.875 451.639 497.642 446.491 498.183 447.778C493.004 464.322 480.199 480.702 464.921 496.918C449.644 513.134 431.847 529.678 415.958 549.779C412.192 553.757 408.896 557.454 405.859 560.776C402.823 564.099 399.951 567.024 397.385 569.856C392.253 575.518 387.969 580.573 383.661 585.206C379.353 589.839 375.046 594.566 369.867 599.831C364.688 605.096 358.332 610.337 350.281 616.913C343.69 619.627 345.22 616.913 348.328 613.239C350.749 610.445 353.31 607.774 356.002 605.236C346.256 610.805 337.711 615.579 329.707 620.914L317.773 629.034C313.747 631.795 309.675 634.744 305.438 637.903C308.286 634.369 303.908 635.562 297.434 637.224C293.016 639.694 289.154 643.039 286.088 647.052C283.593 649.743 280.462 652.691 269.939 656.716C273.198 651.615 277.036 646.904 281.38 642.676L256.757 659.524C252.661 662.426 248.4 665.093 244.116 667.831C239.832 670.569 235.477 673.236 231.028 675.857C224.837 675.6 240.185 666.287 245.787 661.373C225.943 673.073 192.822 689.218 188.067 696.332L202.427 691.933C194.753 695.513 196.801 689.967 202.144 686.691C218.622 675.108 228.839 676.208 230.628 677.331L217.728 684.515C223.365 684.895 229.002 683.781 234.064 681.286C241.035 678.099 247.768 674.423 254.215 670.288C261.277 665.795 268.48 660.694 275.613 655.991C282.745 651.287 289.572 646.467 296.092 643.004L289.03 655.406L300.8 645.273C304.732 641.927 308.474 638.254 312.288 634.861C318.785 633.129 324.788 634.252 312.759 642.84C319.048 640.636 324.874 637.296 329.943 632.989C334.312 628.994 339.477 625.957 345.103 624.073C347.151 623.488 346.586 624.284 345.103 625.547C347.81 623.324 350.587 621.172 353.224 618.855L361.157 611.835C358.803 615.462 366.995 614.011 355.837 620.633C363.356 616.502 370.549 611.808 377.352 606.593C383.332 601.703 388.416 597 392.889 592.788C397.361 588.576 401.104 584.574 404.659 581.532C407.748 578.653 411.37 576.397 415.322 574.887L413.18 577.227C418.077 572.851 421.466 569.154 424.079 566.369C425.965 564.369 427.748 562.276 429.423 560.098C431.541 557.173 431.141 556.448 430.388 555.933C429.635 555.418 428.481 555.044 429.07 552.891C429.624 551.19 430.417 549.575 431.424 548.094C432.742 545.754 434.719 542.805 437.568 538.851C446.819 535.809 456.258 532.743 465.486 529.093L464.968 521.699C468.711 517.814 475.938 509.999 476.291 512.783C486.225 494.906 472.36 513.953 477.021 502.768C482.568 497.816 487.528 492.249 491.804 486.178C496.462 479.666 500.775 472.918 504.727 465.96C512.425 452.622 517.721 440.969 522.877 439.846C522.877 434.675 519.699 440.244 517.486 443.543C516.403 445.204 515.556 446.351 515.579 445.415C516.284 441.844 517.236 438.326 518.428 434.885C524.171 432.99 526.902 425.104 528.526 415.042C530.151 404.98 530.574 392.929 532.199 380.785C535 384.318 535.329 392.297 535.329 396.018C535.329 397.913 535.447 398.779 536.036 397.656C536.545 396.591 536.947 395.477 537.236 394.333C537.778 392.625 538.342 390.238 539.002 387.009C537.044 382.376 535.752 377.492 535.165 372.501C534.27 366.283 533.029 360.119 531.445 354.039C529.706 347.456 527.135 341.119 523.795 335.178C520.805 329.727 516.904 324.822 512.26 320.67C509.624 322.519 501.055 314.586 487.331 306.911C479.796 302.665 471.815 299.252 463.532 296.732C454.873 294.124 445.923 292.592 436.885 292.169C438.156 291.21 421.819 288.191 401.198 289.034C390.454 289.424 379.737 290.361 369.09 291.842C363.77 292.52 358.662 293.339 353.883 294.182C349.104 295.024 344.632 295.515 340.724 296.241L341.383 294.977C339.029 298.908 330.013 302.208 318.832 306.139C307.65 310.07 294.303 314.235 283.522 318.775C283.122 314.891 286.559 311.919 298.352 306.326C294.751 307.379 291.29 308.666 287.689 309.86L277.096 313.533C274.518 315.773 271.69 317.713 268.668 319.313C266.832 320.366 264.666 321.419 262.195 322.683C259.723 323.946 256.898 325.35 253.626 326.895L256.969 320.296C253.532 321.762 250.111 323.322 246.705 324.976C243.316 326.614 239.973 328.392 236.583 330.171C229.78 333.634 223.118 337.729 216.103 341.613C202.238 349.803 187.596 358.414 170.459 367.119C170.742 369.459 178.887 368.312 182.794 369.459C184.748 369.997 185.643 371.12 184.065 373.531C182.488 375.941 178.345 379.568 170.53 385.582C167.988 384.341 164.433 381.697 172.672 375.192C171.307 376.245 169.023 378.328 166.293 380.48C163.482 382.757 160.454 384.755 157.253 386.447C160.808 382.259 164.598 378.351 168.341 374.303C152.828 382.165 162.621 382.001 151.062 389.443C150.191 387.945 147.72 388.881 145.483 389.794C143.247 390.706 141.317 391.642 141.293 389.934C143.93 387.594 152.051 384.201 155.629 380.059C149.014 384.224 141.505 388.53 134.961 392.321C130 395.297 124.785 397.834 119.378 399.902C121.732 400.628 122.202 403.482 113.587 411.064C102.217 420.611 99.7923 421.734 98.1445 421.383C96.4967 421.032 95.7905 419.511 88.7285 424.8C86.963 428.24 82.0666 432.686 78.2532 437.061C74.4397 441.437 71.5207 445.438 73.2627 447.357C67.3306 453.769 64.4823 453.441 61.1396 455.032C58.7856 458.285 55.1369 463.644 50.6643 469.4C46.1917 475.156 41.672 481.895 38.0704 488.12C35.0497 492.639 32.502 497.453 30.467 502.487C29.4077 505.529 30.0903 506.208 33.5272 503.189L35.8812 499.984C35.5751 500.662 35.1279 501.411 34.7748 502.324C29.1252 513.696 23.9464 525.419 18.8147 537.423C16.4607 543.507 13.8948 549.474 11.9881 555.722L10.3873 559.817C9.84592 561.385 9.3045 562.929 8.92786 564.497L6.33846 574.044L5.70288 576.384L5.20854 578.724L4.26694 583.591L3.32534 588.552L2.87808 590.892L2.5956 593.349C1.67492 599.927 1.13262 606.553 0.971337 613.192C0.659286 626.429 2.78952 639.61 7.25652 652.083L5.58518 652.551C11.5558 668.258 21.2451 682.304 33.8332 693.501C39.6856 698.58 46.126 702.947 53.0183 706.511C58.6848 709.449 64.7045 711.659 70.9322 713.086C75.1549 714.831 79.2321 716.904 83.1259 719.287C86.4215 721.253 88.2106 723.078 86.0449 723.57C88.9639 724.248 91.6239 724.552 94.0485 724.903C96.4731 725.254 98.7565 725.418 100.71 725.558C104.853 725.956 108.502 725.933 112.48 726.19C116.459 726.448 120.719 726.471 126.086 726.565C128.794 726.682 131.76 726.565 135.149 726.682C138.539 726.799 142.211 726.682 146.566 726.354L140.187 728.062C139.27 728.293 138.379 728.614 137.527 729.022C136.679 729.466 137.527 729.63 137.951 729.7C138.374 729.77 138.633 729.7 136.679 729.887C135.691 729.887 134.137 730.004 131.83 730.051L127.734 730.168H122.273C133.947 730.965 145.672 730.612 157.277 729.115C169.243 727.197 180.803 723.306 191.481 717.603C189.127 719.521 189.527 720.364 191.481 720.457C194.873 720.318 198.231 719.72 201.462 718.679C210.442 716.065 219.121 712.52 227.356 708.102C220.529 709.974 213.632 711.706 206.687 713.25L227.567 704.171C230.887 702.744 234.135 701.316 237.36 699.889L246.941 695.49L242.633 704.101C271.917 694.273 294.586 677.846 315.066 662.566C325.4 654.961 335.004 647.262 345.008 640.711C349.975 637.388 354.919 634.205 360.121 631.351C362.687 629.947 365.323 628.636 368.007 627.396C370.691 626.156 373.351 624.939 376.128 623.839C381.378 617.498 374.339 621.757 367.042 626.015C359.744 630.274 352.094 634.299 356.567 628.355C359.462 626.483 362.452 624.682 365.465 622.95C368.478 621.218 371.444 619.487 374.433 617.872C380.389 614.62 386.368 611.812 391.688 609.074C402.352 603.692 411.226 599.714 414.593 596.976C420.853 592.977 426.696 588.368 432.036 583.217C435.51 579.618 438.712 575.77 441.617 571.704C448.987 561.221 458.055 552.025 468.452 544.49C463.273 546.245 456.07 545.122 476.927 524.413C497.948 506.816 508.046 508.478 496.159 521.277C491.333 525.794 488.508 527.408 488.249 526.706C482.152 533.188 473.819 541.448 483.541 536.066L484.86 532.182C490.674 528.414 500.678 520.248 508.588 513.977C516.497 507.706 522.382 503.423 520.358 507.682C534.482 492.215 524.642 499.211 512.496 508.735C524.494 499.525 535.976 489.666 546.888 479.205C557.01 469.728 567.108 459.876 580.903 448.785C575.959 451.686 570.427 453.465 574.618 449.65C594.815 433.083 598.628 429.222 600.512 425.759C602.395 422.296 602.277 419.745 616.213 409.379C625.276 405.144 624.852 407.858 625.629 408.701C626.005 409.169 626.665 409.215 628.948 407.882C630.078 407.203 631.632 406.197 633.774 404.84L637.469 402.5L642.177 399.481C651.829 395.831 653.359 396.884 651.594 399.013C648.674 402.104 645.526 404.975 642.177 407.601C647.879 403.41 654.127 400.009 660.75 397.492C665.644 395.501 670.908 394.568 676.193 394.754C677.817 394.864 679.41 395.252 680.901 395.901C681.451 396.174 681.986 396.479 682.501 396.814C682.923 397.189 683.371 397.533 683.843 397.843C685.261 399.273 686.531 400.841 687.633 402.523C686.074 401.338 684.181 400.667 682.219 400.604C683.697 400.665 685.109 401.226 686.221 402.195C687.712 403.6 688.975 405.226 689.964 407.016C690.259 404.798 690.369 402.56 690.293 400.323C693.306 404.676 695.519 410.713 693.848 411.111C696.437 413.966 697.567 412.234 699.144 410.994C699.531 410.624 700.035 410.396 700.57 410.349C701.105 410.302 701.64 410.439 702.087 410.736C704.358 412.419 706.078 414.731 707.03 417.382C707.242 420.33 707.783 424.028 708.325 428.029C708.893 432.236 709.247 436.469 709.384 440.712C709.761 449.393 709.008 457.092 706.112 459.151C707.124 449.182 706.889 444.456 706.395 442.49C705.9 440.525 705.147 441.273 704.299 442.209C703.452 443.145 702.51 444.245 701.687 443.075C700.863 441.905 700.368 438.091 699.474 431.024C699.812 432.481 700.056 433.959 700.204 435.447C700.383 437.219 700.47 439 700.462 440.782C700.526 445.05 700.314 449.317 699.827 453.558C699.191 454.915 698.697 452.201 698.438 449.674C697.305 455.861 696.566 462.114 696.225 468.394C696.169 471.318 696.648 474.228 697.638 476.982C698.762 479.905 699.429 482.983 699.615 486.107C699.797 492.954 699.004 499.792 697.261 506.419C695.354 500.826 689.422 514.047 688.245 520.458C690.411 512.76 692.059 511.099 693.165 513.439C693.844 515.354 694.171 517.375 694.13 519.405C694.244 522.731 694.055 526.059 693.565 529.35C690.145 537.236 687.42 545.402 685.42 553.757C684.506 559.224 683.015 564.581 680.971 569.739C683.325 565.059 685.562 560.215 687.704 555.395C688.787 561.478 683.89 573.88 676.993 591.173C674.121 591.641 682.313 575.097 678.617 580.737C677.637 586.163 675.852 591.415 673.321 596.321C672.05 598.918 670.614 601.516 669.107 604.16C667.601 606.804 665.694 609.331 663.928 611.975C660.327 617.264 656.584 622.716 653.147 628.543C649.355 634.393 646.071 640.554 643.331 646.958C634.927 657.395 637.658 645.18 630.619 654.423C627.935 660.278 624.787 665.912 621.203 671.271C618.597 675.165 615.668 678.836 612.446 682.245C609.433 685.498 606.373 688.797 603.03 693.079C599.688 697.362 596.204 702.72 591.614 709.693C600.865 704.662 601.171 702.673 589.824 723.733L597.757 712.361L601.712 706.698L605.432 700.848L612.776 689.148C615.13 685.217 617.814 681.45 619.979 677.448C619.391 678.829 618.849 680.233 618.214 681.59L616.284 685.615L612.423 693.735C609.81 699.14 607.291 704.639 604.561 710.115C609.551 703.352 613.977 695.677 618.214 688.821L621.227 683.86C622.192 682.245 623.039 680.631 623.91 679.18C625.328 676.57 626.9 674.046 628.618 671.622C622.38 687.791 622.404 685.802 629.654 680.982C625.402 684.971 621.547 689.359 618.143 694.086C614.8 698.766 611.858 703.867 608.892 709.062C605.926 714.256 602.536 719.311 598.911 724.412C597.075 726.962 595.144 729.466 593.049 731.923C591.99 733.14 590.907 734.263 589.754 735.55C588.6 736.837 587.4 737.89 586.034 738.92L578.549 731.713C571.603 738.2 565.085 745.125 559.034 752.445C552.867 759.325 547.123 766.485 541.12 773.926C535.117 781.367 528.267 788.574 520.829 796.413C516.968 800.157 512.833 803.956 508.423 807.809C506.234 809.751 503.951 811.693 501.597 813.659L497.995 816.631C496.724 817.59 495.429 818.503 494.111 819.439L497.665 817.216C498.819 816.444 500.019 815.625 501.079 814.876L507.929 810.079C506.634 813.87 500.867 819.439 493.381 824.938L481.964 833.666C480.057 835.164 478.198 836.661 476.432 838.135C474.667 839.609 472.854 840.967 471.277 842.347C470.477 838.673 461.202 843.775 454.21 846.161C456.564 848.15 422.855 866.847 422.314 874.99L400.021 882.665C397.667 883.906 395.525 885.005 393.43 886.035C391.335 887.064 389.381 888.141 387.545 889.17C383.849 891.23 380.624 893.242 377.682 895.208C374.739 897.173 372.127 899.209 369.561 901.011C366.995 902.813 364.594 904.591 362.193 906.369C357.485 909.973 352.588 913.577 346.656 917.274C339.449 921.511 331.811 924.978 323.87 927.616C328.931 923.755 326.883 922.796 326.671 921.392C326.671 920.667 326.883 919.801 328.719 918.373C332.272 915.9 335.992 913.671 339.853 911.705C333.709 914.279 327.754 916.385 323.375 918.233C318.997 920.082 316.313 921.462 316.666 922.609C312.641 922.96 304.378 927.078 295.339 930.963C286.3 934.847 276.507 938.31 270.198 937.983C267.656 939.387 266.126 941.048 263.372 942.663C261.691 943.62 259.916 944.404 258.075 945.003C255.194 945.91 252.241 946.576 249.248 946.992C247.506 946.57 249.012 945.283 249.012 945.283C249.012 946.196 243.457 947.623 239.361 949.004C237.336 949.753 235.689 950.385 235.406 951.04C235.124 951.695 236.207 952.397 239.62 952.888C228.933 951.508 216.598 951.227 203.415 950.548C200.143 950.361 196.801 950.291 193.411 949.987C190.021 949.682 186.608 949.566 183.265 949.215C176.5 948.598 169.779 947.574 163.138 946.149C150.003 943.341 137.668 938.31 128.958 931.056C124.904 927.78 121.462 923.819 118.789 919.356C117.728 917.336 116.8 915.249 116.011 913.109C115.412 911.15 114.972 909.147 114.693 907.118C109.397 896.354 107.396 881.87 109.161 867.338C109.467 863.688 110.197 860.038 110.809 856.457C111.421 852.877 112.339 849.297 113.375 845.834C115.215 839.211 117.447 832.702 120.06 826.342C120.39 828.261 121.567 827.044 119.472 831.443C122.499 825.833 125.043 819.977 127.075 813.94C128.175 810.428 128.854 806.799 129.1 803.129C129.439 799.135 130.302 795.202 131.665 791.429C132.763 788.504 134.143 785.69 135.785 783.029C137.645 779.823 140.022 776.126 143.059 771.797C158.666 756.212 134.467 792.552 143.059 782.093C146.26 782.256 149.344 779.612 152.475 775.236C153.275 774.137 154.052 772.896 154.829 771.633C155.606 770.369 156.571 769.012 157.442 767.585C159.207 764.707 161.02 761.548 162.903 758.225C164.786 754.902 166.646 751.345 168.812 747.882C170.977 744.419 173.261 740.979 175.615 737.633C177.969 734.287 180.323 731.011 182.936 728.039C185.601 724.976 188.514 722.135 191.645 719.545L187.997 725.278C192.388 721.271 196.334 716.807 199.767 711.963C203.557 706.792 207.723 701.199 211.913 695.068C216.103 688.938 220.764 682.62 225.873 676.185C228.415 672.979 231.028 669.703 233.876 666.521C236.724 663.338 239.761 660.249 242.915 657.161C242.915 657.161 242.445 659.079 243.998 658.518C245.568 655.85 247.419 653.003 249.554 649.977C251.649 646.935 254.262 643.893 256.616 640.617C261.865 634.182 267.75 627.209 274.294 620.423L284.205 610.103C287.547 606.64 291.078 603.341 294.492 600.018L304.637 590.237L314.501 581.205C309.157 591.43 304.049 592.905 311.982 592.249C323.399 582 303.743 589.558 326.671 569.037C331.379 566.86 338.441 562.719 344.867 559.396C351.294 556.073 357.461 553.663 360.074 554.716C352.471 560.613 345.032 566.72 337.57 572.781C352.965 568.381 366.759 549.498 379.636 541.214V544.537C391.572 535.284 402.844 525.213 413.369 514.398C424.626 503.123 437.009 493.017 450.326 484.235L445.077 485.359C462.661 464.907 465.204 475.999 484.012 457.443L494.417 458.94C497.759 456.226 502.397 452.575 507.858 448.293C510.589 446.164 513.508 443.847 516.615 441.484L526.384 434.207C533.093 429.129 540.39 424.238 547.57 419.324C554.75 414.41 561.977 409.964 568.756 406.22C565.437 409.286 561.176 412.983 556.209 416.774L540.202 428.895C534.553 433.013 528.879 437.389 523.489 441.507C518.098 445.626 513.084 449.627 508.8 453.207L539.402 433.949C545.051 430.416 550.371 426.929 554.773 423.84C558.131 421.743 561.242 419.279 564.048 416.493C558.375 420.33 551.643 425.853 545.216 428.31C560.517 413.404 583.61 397.89 614.824 384.622C614.824 386.471 616.072 387.337 618.355 387.477C621.613 387.399 624.848 386.911 627.983 386.026C632.055 385.02 636.857 383.499 642.107 381.697C647.356 379.895 653.288 378.164 659.338 376.128C665.388 374.092 671.791 372.454 678.029 370.629C684.267 368.804 690.576 367.61 696.437 366.37C708.207 364.03 718.282 363.539 724.426 365.2C737.949 361.684 751.908 360.109 765.88 360.52C772.689 360.753 779.467 361.536 786.148 362.86L791.044 364.03L793.398 364.615L795.752 365.364L800.46 366.885C802.014 367.447 803.521 368.125 805.051 368.734C808.084 369.976 811.046 371.382 813.925 372.946C815.385 373.694 816.703 374.654 818.115 375.473C819.533 376.277 820.893 377.176 822.188 378.164C827.555 381.919 832.447 386.303 836.759 391.221C845.98 401.939 853.159 414.238 857.945 427.514C858.131 425.457 858.422 423.411 858.816 421.383C859.122 420.19 859.475 419.745 859.922 419.909C860.793 420.19 861.97 422.787 863.147 426.017C865.619 432.405 867.855 441.367 872.705 438.255C874.26 443.544 875.37 448.952 876.024 454.424C876.386 456.436 876.386 458.496 876.024 460.508C875.026 476.141 872.158 491.601 867.479 506.559C865.125 511.73 865.125 508.033 865.313 503.236C865.501 498.439 865.69 492.519 864.395 493.081C863.828 498.501 862.732 503.853 861.123 509.063C860.591 510.978 859.625 512.747 858.298 514.234C856.462 515.989 854.885 516.34 851.001 526.589C855.709 523.032 853.99 539.178 846.293 557.313C850.742 549.147 854.908 540.933 858.745 532.463C857.691 541.588 855.452 550.539 852.084 559.092C849.872 564.522 847.12 569.719 843.868 574.606C840.66 579.506 837.736 584.584 835.111 589.816C833.652 592.951 832.004 596.485 830.403 600.697C829.579 602.803 828.755 605.072 827.908 607.553C827.061 610.033 826.048 612.654 825.107 615.556L826.802 607.951L828.261 600.299C824.377 611.999 814.726 632.661 804.062 652.808C793.398 672.956 782.146 692.822 778.451 705.318C776.958 706.727 775.113 707.713 773.107 708.172C771.883 708.172 772.001 706.558 774.825 701.854C757.029 725.722 737.491 752.702 716.47 776.734C695.448 800.766 673.344 821.755 653.312 834.321L655.219 829.407C646.956 837.012 642.884 845.459 629.913 851.731C629.913 850.42 631.985 847.051 627.724 849.905C625.652 852.082 620.168 857.253 613.6 862.939C607.096 868.615 599.992 873.573 592.414 877.728C595.427 874.592 598.534 871.55 601.453 868.368C576.054 883.203 557.457 895.839 539.708 908.148C521.959 920.456 504.892 932.109 482.27 942.709C481.54 940.931 478.245 940.58 473.396 941.165C467.208 942.005 461.082 943.247 455.058 944.886C440.934 948.349 424.456 952.888 413.274 955.509L413.722 954.245C381.284 963.371 353.742 970.368 326.247 975.305C319.373 976.686 312.523 977.482 305.602 978.581L295.151 979.728L289.901 980.313L284.581 980.664L273.824 981.343C270.316 981.343 266.762 981.553 263.183 981.46C255.885 981.391 248.6 980.804 241.385 979.705L226.861 973.246C221.306 970.714 215.92 967.83 210.736 964.612C200.096 957.779 190.821 948.7 186.443 936.532C184.171 930.026 183.048 923.178 183.124 916.291C183.282 908.513 184.38 900.782 186.396 893.265C188.454 885.4 191.154 877.715 194.47 870.287L197.012 864.811C197.931 862.963 198.872 861.137 199.767 859.359L202.521 854.071L205.769 848.852C203.109 852.737 201.909 851.777 201.885 848.525C202.124 843.733 203.282 839.031 205.299 834.672C206.376 833.021 207.359 831.31 208.241 829.548C209.253 827.699 210.242 825.733 211.184 823.721C213.043 819.673 214.95 815.531 216.763 812.021C218.096 809.008 219.813 806.177 221.871 803.597C223.448 801.842 224.837 801.257 226.014 802.778L223.071 807.084C226.652 805.164 229.845 802.601 232.487 799.526C235.853 796.109 239.173 791.757 242.845 787.147C249.907 777.787 257.863 767.046 265.42 758.038L260.712 749.146C274.372 738.073 287.394 726.245 299.717 713.718C313.112 700.474 326.836 686.504 340.348 673.658C352.676 661.66 365.751 650.445 379.495 640.079C391.806 631.21 402.917 624.986 411.603 622.997C422.738 612.865 438.745 603.879 450.821 595.174L452.374 599.854C467.981 592.55 484.026 586.212 500.42 580.877C518.644 574.527 537.357 569.659 556.374 566.322C553.235 567.882 550.199 569.567 547.264 571.377C560.541 569.2 568.45 565.012 576.618 560.964C584.787 556.915 593.261 553.289 606.114 554.622C608.468 557.407 610.516 560.191 612.47 563.046C634.707 566.975 655.284 577.337 671.626 592.834C679.243 600.096 685.767 608.41 690.999 617.521C696.414 626.904 700.923 636.776 704.464 647.005C703.531 646.648 702.716 646.041 702.11 645.25C700.631 643.378 699.564 641.217 698.979 638.909C699.262 640.149 699.591 641.53 699.945 643.027C700.109 643.776 700.321 644.548 700.462 645.367C700.604 646.186 700.698 647.075 700.816 647.965C701.075 649.719 701.333 651.591 701.616 653.534C701.898 655.476 701.875 657.558 702.04 659.664C702.04 660.694 702.181 661.77 702.275 662.823V666.123C702.275 668.322 702.275 670.522 702.275 672.768C702.04 677.238 702.016 681.684 701.592 685.989C701.404 688.119 701.381 690.201 701.122 692.214C700.863 694.226 700.745 696.145 700.627 697.97C700.627 698.883 700.51 699.772 700.462 700.638C700.415 701.503 700.321 702.322 700.251 703.118C700.133 704.709 700.062 706.183 700.086 707.494C700.01 709.463 700.297 711.43 700.933 713.297C701.545 714.467 702.534 714.795 703.993 714.069C700.604 713.671 698.203 725.605 693.989 740.628C691.87 748.093 689.399 756.563 686.715 764.683C684.032 772.803 681.23 780.548 678.759 786.843C677.958 784.854 677.205 782.912 676.405 780.923C675.157 786.656 674.239 791.008 673.415 794.799C672.591 798.59 671.579 801.819 670.425 805.212C666.653 815.072 661.797 824.489 655.948 833.292C650.981 839.188 648.886 836.497 655.736 828.939C650.393 834.679 646.028 841.247 642.813 848.384C640.224 853.486 637.305 859.336 626.194 870.31C627.983 866.753 629.56 863.056 631.231 859.476C629.089 861.956 627.277 864.156 625.699 866.051C624.122 867.947 622.71 869.561 621.556 871.012C619.734 873.264 618.029 875.607 616.448 878.032C613.953 881.94 612.941 885.192 609.198 891.674C602.505 899.987 594.804 907.446 586.27 913.881C577.419 920.526 569.274 925.44 566.261 924.996C564.776 929.062 562.514 932.805 559.599 936.017C554.975 941.476 549.612 946.272 543.662 950.267C542.321 950.267 542.603 949.191 543.474 947.927C544.436 946.484 545.506 945.116 546.676 943.833C542.18 947.038 537.872 949.87 533.988 952.771L522.994 961.031C519.534 963.652 516.356 966.25 513.272 968.73L504.28 975.75C498.754 980.182 492.986 984.306 487.002 988.105C484.018 989.986 480.921 991.682 477.727 993.183C474.414 994.808 471.01 996.245 467.534 997.489C466.639 996.984 465.636 996.699 464.608 996.659C463.581 996.618 462.558 996.822 461.626 997.255L467.346 994.33L472.807 991.288L483.071 985.555C489.45 981.67 495.241 978.347 499.902 975.352C509.176 969.385 514.567 965.992 513.555 966.858C512.307 965.056 505.669 967.794 501.338 968.824C497.006 969.853 494.888 969.151 502.303 960.517C498.136 964.237 493.381 968.894 487.873 973.457L479.351 980.687C476.307 983.027 473.168 985.367 469.935 987.707L465.227 991.241L460.26 994.493C456.918 996.646 453.551 998.752 450.185 1000.72C446.819 1002.68 443.382 1004.27 440.039 1005.84C436.844 1007.41 433.54 1008.75 430.153 1009.84C428.848 1010.02 427.526 1010.02 426.221 1009.84L428.575 1008.32C423.21 1010.23 418.013 1012.58 413.039 1015.34C408.849 1016.49 405.459 1017.4 402.116 1018.38C398.774 1019.37 395.431 1020.14 391.523 1021.38C389.31 1020.78 386.967 1020.84 384.791 1021.57C381.519 1022.18 377.352 1023.06 373.021 1024.26C370.808 1024.82 368.525 1025.52 366.242 1026.08L359.391 1027.7C354.895 1028.7 350.729 1029.9 347.362 1030.32C349.457 1035 331.402 1037.22 348.869 1038.37C346.633 1038.37 351.388 1037.48 360.333 1035.19C362.254 1034.69 364.147 1034.1 366.006 1033.41L365.182 1034.04L368.643 1033.22L372.291 1032.19L380.271 1029.85C385.897 1028.4 391.877 1026.25 398.327 1024.19C388.722 1029.97 378.035 1035.44 362.334 1036.15C359.18 1038.49 355.837 1040.83 352.706 1042.95C349.575 1045.08 346.703 1046.6 344.585 1047.75C334.368 1046.21 320.033 1045.55 309.816 1042.23C305.66 1041.11 301.781 1039.15 298.423 1036.47C297.551 1035.89 296.813 1035.12 296.253 1034.24C295.694 1033.35 295.327 1032.36 295.174 1031.32C292.363 1029.83 289.953 1027.69 288.146 1025.08C286.34 1022.47 285.19 1019.47 284.793 1016.33C284.403 1014.25 284.167 1012.14 284.087 1010.03V1006.52C284.087 1005.37 284.275 1004.18 284.346 1002.96C284.822 997.99 285.76 993.071 287.147 988.269C287.736 985.812 288.63 983.402 289.36 980.992C290.09 978.581 291.008 976.312 291.996 973.972C292.444 972.802 292.914 971.632 293.362 970.532L294.821 967.232L295.551 965.594L296.375 963.886C296.893 962.763 297.434 961.546 297.952 960.54C301.71 952.882 305.019 945.014 307.862 936.976C309.833 933.357 312.691 930.29 316.172 928.061C318.526 926.727 320.621 926.353 322.622 925.066C318.832 930.986 313.677 937.421 312.5 941.212C318.691 930.916 329.943 917.016 340.348 905.246C350.752 893.476 359.744 883.391 359.697 879.015C372.221 869.655 370.008 873.75 368.478 876.394C366.948 879.038 366.124 880.255 381.896 866.028L378.812 871.246C394.962 860.498 410.528 848.907 425.445 836.521L435.779 827.816L445.877 819.088C452.633 813.378 459.201 807.388 466.075 801.842C480.066 789.839 494.938 778.889 510.565 769.082C528.577 757.811 547.977 748.9 568.285 742.57C562.094 744.629 558.987 745.612 557.339 745.285C581.868 734.825 606.773 724.622 632.408 715.731C638.835 713.648 645.238 711.355 651.711 709.319C658.185 707.283 664.658 705.224 671.226 703.446L681.066 700.778C684.361 699.865 687.633 698.976 690.905 698.227L695.802 697.057L700.745 696.028C704.017 695.302 707.313 694.717 710.608 694.179C723.728 691.84 737.039 690.727 750.367 690.856C763.308 690.932 776.164 692.944 788.502 696.823C800.263 700.598 811.03 706.929 820.022 715.356C828.681 723.464 835.155 733.602 838.854 744.84C841.208 750.994 842.503 755.978 843.845 760.05C844.41 762.109 845.069 763.911 845.61 765.619C846.152 767.327 846.669 768.872 847.234 770.299C849.82 776.572 851.799 783.075 853.143 789.721C851.283 791.733 849.541 793.676 847.587 795.501C848.955 805.38 849.177 815.383 848.247 825.312C846.229 835.383 842.375 845.003 836.877 853.696C831.514 862.085 825.425 869.993 818.68 877.33C811.971 884.912 804.745 892.47 797.188 900.894C789.632 909.318 781.934 918.654 773.766 929.886L781.299 927.312C779.486 929.02 777.462 931.056 775.32 933.256L768.258 940.018C763.55 944.839 758.018 949.495 753.169 953.754C750.815 955.907 748.319 957.732 746.107 959.37C743.894 961.008 741.987 962.412 740.339 963.488C737.114 965.665 735.043 966.367 735.113 965.056C732.906 969.493 729.149 972.978 724.544 974.861L722.472 972.942C709.845 983.428 696.6 993.156 682.807 1002.07C665.176 1009.54 665.388 1006.31 663.693 1004.3C662.846 1003.27 661.527 1002.47 657.29 1003.24C654.294 1003.87 651.345 1004.7 648.463 1005.73C644.579 1007.01 639.565 1008.56 633.232 1010.92C628.524 1012.86 622.969 1015.23 617.319 1017.94C611.67 1020.65 605.761 1023.13 600.841 1025.54C590.648 1030.01 583.657 1033.88 587.635 1033.92C592.184 1032.98 596.793 1032.37 601.43 1032.07C605.855 1031.84 609.41 1031.84 610.092 1033.15C604.113 1035.49 597.946 1037.13 591.825 1039.07C591.025 1043.45 587.329 1048.43 589.848 1051.82C591.072 1053.53 593.967 1054.75 599.617 1055.22C603.206 1055.47 606.809 1055.47 610.398 1055.22C614.753 1054.84 619.979 1054.19 626.194 1053.2C631.49 1050.72 636.693 1048.08 641.895 1045.53C647.097 1042.98 652.111 1039.98 657.149 1037.22C661.104 1037.22 664.964 1036.85 668.919 1036.64C664.47 1038.58 660.021 1040.54 655.478 1042.23C650.934 1043.91 646.438 1045.81 641.824 1047.35C645.647 1046.97 649.419 1046.18 653.076 1045.01C656.218 1044.02 659.266 1042.76 662.186 1041.25C667.31 1038.23 672.275 1034.96 677.064 1031.44C680.453 1032.17 685.467 1031.44 692.059 1029.1C696.602 1025.45 700.933 1021.5 705.288 1017.75C707.501 1015.9 709.596 1013.89 711.668 1011.9L717.906 1005.96C720.495 1006.29 718.094 1009.56 717.529 1011.51C716.964 1013.45 718.423 1014.2 728.616 1008.88C734.36 1003.01 730.123 1003.62 727.157 1003.6C724.191 1003.57 722.449 1002.94 732.618 994.891C736.573 993.487 739.28 992.551 741.493 991.919C743.705 991.288 745.306 990.89 746.883 990.281C748.714 989.521 750.427 988.505 751.968 987.263C754.684 984.922 757.232 982.397 759.595 979.705C763.032 979.705 760.654 983.238 755.146 988.737C758.159 985.555 761.878 982.162 765.833 978.722C769.788 975.282 773.695 971.468 777.485 967.934C780.949 964.709 784.196 961.262 787.207 957.615C789.52 955.15 791.377 952.298 792.692 949.191C797.289 946.224 801.544 942.763 805.38 938.872C809.688 934.379 814.161 929.512 818.139 924.832C821.345 920.782 824.821 916.952 828.544 913.366C831.416 910.698 833.628 909.528 834.947 911.026C835.865 908.288 839.231 901.221 843.138 893.008C847.046 884.795 851.354 875.318 854.908 868.087C853.496 875.692 854.461 876.184 857.121 872.767C861.153 866.68 864.59 860.223 867.385 853.486C871.128 845.038 874.447 835.561 876.965 828.682C879.484 821.802 881.673 817.614 883.674 820.211C882.78 813.963 883.015 805.446 882.709 795.571C882.488 784.577 881.354 773.62 879.319 762.811C877.078 750.682 873.065 738.944 867.408 727.969C861.935 717.391 854.453 707.966 845.375 700.216C846.434 700.872 848.058 701.854 849.706 703.071C851.338 704.316 852.753 705.818 853.896 707.517C852.036 705.06 850.342 702.837 848.6 700.825C846.858 698.812 845.375 696.94 843.892 695.396L839.56 690.856L837.654 688.774C837.018 688.119 836.359 687.534 835.723 686.925C833.157 684.585 830.851 682.245 828.261 679.905C825.672 677.565 822.823 675.647 819.41 673.307C817.904 674.5 814.537 674.453 810.135 673.751C809.029 673.587 807.781 673.307 806.651 673.143L802.767 672.581L798.624 671.856C797.212 671.598 795.752 671.341 794.246 671.201C782.776 669.293 771.087 669.056 759.548 670.499C753.004 668.322 750.65 667.082 750.838 665.819C751.026 664.555 753.663 663.619 757.029 662.917C760.395 662.215 764.35 661.326 767.057 660.577C769.764 659.828 771.153 658.658 769.058 656.786C769.27 658.284 766.163 658.752 761.737 659.384C759.501 659.641 757.029 659.852 754.204 660.039L745.918 660.905C743.164 661.115 740.504 661.583 738.15 661.981C736.114 662.292 734.094 662.706 732.1 663.221C728.946 664.204 727.745 665.163 730.076 666.146C719.718 664.789 715.293 665.046 712.044 664.672C708.269 664.261 704.574 663.308 701.075 661.841C699.992 666.333 695.448 667.574 689.187 668.744C686.103 669.422 682.501 670.031 678.876 671.084C675.013 672.242 671.318 673.893 667.883 675.998C663.237 676.558 658.556 676.793 653.877 676.7C652.157 676.566 650.454 676.269 648.792 675.81C647.021 675.534 645.208 675.703 643.519 676.302C638.616 677.809 633.819 679.638 629.16 681.777C621.603 682.877 624.24 680.514 628.807 677.87C631.161 676.536 633.844 675.155 636.034 674.079C638.223 673.002 639.871 672.464 639.871 672.464ZM449.197 1034.34C443.429 1037.13 438.345 1039.19 435.072 1040.64C438.203 1039.37 442.323 1037.74 449.267 1034.34H449.197ZM504.186 1005.16C497.712 1009.05 489.426 1013.56 480.646 1018.5C477.915 1018.06 479.139 1015.39 484.601 1012.42C483.4 1013.73 486.107 1012.82 490.203 1011.15C492.251 1010.31 494.699 1009.35 497.1 1008.25C499.501 1007.15 502.091 1006.05 504.257 1005.16H504.186ZM374.575 1024.82C377.58 1023.67 380.695 1022.82 383.873 1022.29C385.168 1021.94 386.533 1021.94 387.828 1022.29C383.779 1023.81 378.93 1025.1 372.621 1027.21C372.409 1027.46 371.938 1027.79 371.75 1028.07C372.418 1026.76 373.415 1025.64 374.645 1024.82H374.575Z" fill="#F2E7D5"/>
<path d="M1035.13 263.206C1067.47 262.6 1093.19 236.048 1092.58 203.9C1091.97 171.752 1065.26 146.183 1032.92 146.789C1000.58 147.395 974.858 173.947 975.467 206.095C976.077 238.242 1002.79 263.812 1035.13 263.206Z" fill="#EEC84E" stroke="#1D1640" stroke-width="0.3" stroke-miterlimit="10"/>
<path d="M1005.4 188.765C1005.4 188.765 1022.77 228.124 1062.44 214.201C1062.44 214.201 1050.08 240.783 1023.1 229.973C996.124 219.162 1005.4 188.765 1005.4 188.765Z" fill="#1D1640" stroke="#1D1640" stroke-width="0.2" stroke-miterlimit="10"/>
<path d="M1007.09 178.399C1007.09 178.399 1014.44 173.321 1019.01 183.079" stroke="#1D1640" stroke-width="0.5" stroke-miterlimit="10" stroke-linecap="round"/>
<path d="M1054.89 202.559C1054.89 202.559 1062.23 197.481 1066.82 207.239" stroke="#1D1640" stroke-width="0.5" stroke-miterlimit="10" stroke-linecap="round"/>
<path d="M1007.61 212.913C1013.33 213.063 1018.86 214.932 1023.49 218.274C1028.11 221.617 1031.6 226.275 1033.51 231.633C1033.51 231.633 1017.24 232.406 1007.61 212.913Z" fill="#AC4FBD" stroke="#1D1640" stroke-width="0.4" stroke-miterlimit="10" stroke-linecap="round"/>
<path d="M1090.87 204.139L1089.77 203.063C1089.77 203.063 1078.49 181.184 1047.39 181.394C1046.38 181.394 1045.79 181.394 1045.04 181.979L1039.56 179.639C1022.44 153.9 997.89 156.731 997.89 156.731L996.36 156.403C994.881 156.067 993.331 156.236 991.96 156.882C990.589 157.529 989.476 158.615 988.802 159.966C988.128 161.317 987.931 162.855 988.243 164.331C988.555 165.807 989.358 167.136 990.522 168.103L991.652 169.063C991.652 169.063 982.872 190.988 1005.96 200.653C1022.16 207.415 1031.86 196.417 1036.71 188.578L1041.02 189.655C1037.53 198.336 1035.06 212.118 1048.52 220.94C1069.45 234.629 1082.89 215.184 1082.89 215.184L1084.33 215.582C1085.81 216.064 1087.41 216.022 1088.87 215.464C1090.32 214.905 1091.53 213.865 1092.3 212.518C1093.07 211.172 1093.35 209.602 1093.09 208.075C1092.83 206.548 1092.05 205.157 1090.87 204.139ZM1008.48 193.258C1000.01 188.742 996.478 178.891 1000.6 171.239C1004.72 163.587 1013.07 163.774 1021.55 168.29C1030.02 172.807 1035.41 179.99 1031.29 187.619C1027.17 195.247 1016.84 197.774 1008.48 193.258ZM1053.56 214.88C1045.06 210.41 1041.49 200.559 1045.58 192.907C1049.68 185.255 1058.67 185.7 1067.17 190.193C1075.67 194.686 1080.44 201.495 1076.37 209.147C1072.3 216.798 1061.94 219.372 1053.44 214.88H1053.56Z" fill="#D16117" stroke="#1D1640" stroke-width="0.3" stroke-miterlimit="10" stroke-linecap="round"/>
<path d="M251.695 250.003C251.695 250.003 225.236 862.448 453.433 891.861L933.649 869.398C933.649 869.398 789.773 598.076 811.406 256.321L251.695 250.003Z" fill="#F2E7D5" stroke="#1D1640" stroke-width="0.6" stroke-miterlimit="10"/>
<path d="M262.265 224.451C262.265 224.451 235.782 836.896 463.979 866.357L944.195 843.893C944.195 843.893 800.319 572.571 821.952 230.816L262.265 224.451Z" fill="#F2E7D5" stroke="#1D1640" stroke-width="0.6" stroke-miterlimit="10"/>
<path d="M277.425 207.883C277.425 207.883 250.966 820.328 479.163 849.742L959.379 827.278C959.379 827.278 801.661 596.953 837.135 214.201L277.425 207.883Z" fill="#F2E7D5" stroke="#1D1640" stroke-width="0.6" stroke-miterlimit="10"/>
<path d="M510.376 699.093C515.084 800.742 448.772 817.192 448.772 817.192C306.543 793.815 295.221 198.148 295.221 198.148L838.241 206.151C838.241 206.151 850.623 611.296 918.065 758.505L510.376 699.093Z" fill="white" stroke="#1D1640" stroke-width="0.6" stroke-miterlimit="10"/>
<path d="M448.772 817.216L929.859 794.729C950.899 766.519 960.625 731.536 957.142 696.59L511.907 695.7C511.907 695.7 493.804 810.196 448.772 817.216Z" fill="white" stroke="#1D1640" stroke-width="0.6" stroke-miterlimit="10"/>
<path opacity="0.58" d="M343.454 251.289L778.168 256.648C778.974 256.66 779.751 256.949 780.369 257.465C780.986 257.98 781.406 258.692 781.557 259.479L785.489 280.82C785.587 281.326 785.57 281.848 785.439 282.347C785.309 282.846 785.068 283.31 784.734 283.704C784.4 284.099 783.982 284.415 783.51 284.628C783.038 284.842 782.523 284.947 782.005 284.938L344.726 277.918C343.849 277.908 343.009 277.571 342.372 276.972C341.735 276.374 341.348 275.558 341.289 274.689L339.923 254.963C339.894 254.487 339.964 254.01 340.129 253.562C340.294 253.114 340.55 252.704 340.882 252.36C341.213 252.015 341.613 251.741 342.056 251.557C342.498 251.373 342.975 251.282 343.454 251.289Z" fill="#C55ADC"/>
<path opacity="0.58" d="M348.845 304.759L594.838 309.766C595.648 309.78 596.428 310.072 597.046 310.592C597.664 311.113 598.081 311.83 598.228 312.621L602.159 333.962C602.254 334.467 602.234 334.986 602.101 335.482C601.969 335.978 601.728 336.439 601.394 336.831C601.061 337.222 600.644 337.536 600.174 337.748C599.703 337.96 599.192 338.066 598.675 338.057L350.117 331.435C349.24 331.425 348.4 331.087 347.763 330.489C347.125 329.89 346.739 329.075 346.68 328.206L345.314 308.479C345.278 308 345.343 307.517 345.505 307.064C345.667 306.61 345.922 306.195 346.254 305.845C346.587 305.495 346.989 305.218 347.435 305.031C347.881 304.844 348.361 304.751 348.845 304.759Z" fill="#C55ADC"/>
<path opacity="0.58" d="M363.016 416.306L609.009 421.337C609.816 421.35 610.593 421.638 611.21 422.154C611.828 422.67 612.248 423.381 612.399 424.168L616.33 445.532C616.42 446.037 616.397 446.554 616.263 447.048C616.129 447.543 615.887 448.002 615.555 448.392C615.222 448.783 614.807 449.097 614.339 449.31C613.871 449.524 613.361 449.632 612.846 449.627L364.287 442.982C363.411 442.972 362.57 442.634 361.933 442.036C361.296 441.437 360.91 440.622 360.851 439.753L359.485 420.027C359.449 419.547 359.514 419.065 359.676 418.611C359.838 418.157 360.093 417.742 360.425 417.392C360.758 417.042 361.16 416.765 361.606 416.578C362.052 416.391 362.532 416.298 363.016 416.306Z" fill="#C55ADC"/>
<path opacity="0.58" d="M359.273 359.608L727.58 361.246C728.389 361.25 729.171 361.535 729.79 362.052C730.409 362.569 730.827 363.286 730.97 364.077L734.901 385.418C734.999 385.924 734.983 386.446 734.852 386.945C734.721 387.444 734.48 387.908 734.147 388.303C733.813 388.697 733.394 389.013 732.922 389.226C732.45 389.44 731.936 389.546 731.417 389.536L360.544 386.307C359.669 386.281 358.834 385.935 358.2 385.334C357.566 384.734 357.177 383.922 357.108 383.055L355.742 363.329C355.71 362.849 355.777 362.369 355.94 361.917C356.104 361.465 356.359 361.051 356.691 360.702C357.022 360.352 357.423 360.075 357.867 359.887C358.311 359.699 358.79 359.604 359.273 359.608Z" fill="#C55ADC"/>
<path opacity="0.58" d="M370.055 466.217L804.768 471.552C805.579 471.561 806.361 471.852 806.98 472.373C807.599 472.894 808.015 473.613 808.158 474.407L812.112 495.748C812.203 496.254 812.179 496.773 812.044 497.269C811.908 497.765 811.664 498.225 811.329 498.617C810.994 499.008 810.576 499.321 810.105 499.533C809.634 499.745 809.122 499.85 808.605 499.843L371.326 492.823C370.451 492.807 369.613 492.468 368.978 491.87C368.342 491.273 367.953 490.461 367.889 489.593L366.524 469.867C366.498 469.393 366.57 468.919 366.737 468.473C366.903 468.028 367.16 467.622 367.491 467.279C367.822 466.937 368.221 466.666 368.662 466.483C369.103 466.3 369.577 466.21 370.055 466.217Z" fill="#C55ADC"/>
<path opacity="0.58" d="M375.445 519.663L711.879 516.48C712.69 516.49 713.472 516.78 714.091 517.301C714.71 517.822 715.126 518.541 715.269 519.335L719.223 540.676C719.314 541.182 719.29 541.701 719.155 542.197C719.019 542.693 718.775 543.154 718.44 543.545C718.105 543.936 717.687 544.249 717.216 544.461C716.745 544.673 716.233 544.779 715.716 544.771L376.74 546.339C375.865 546.323 375.027 545.984 374.392 545.386C373.756 544.789 373.367 543.977 373.303 543.109L371.938 523.36C371.905 522.884 371.972 522.406 372.134 521.957C372.296 521.508 372.55 521.097 372.879 520.75C373.208 520.403 373.606 520.127 374.048 519.94C374.489 519.753 374.965 519.658 375.445 519.663Z" fill="#C55ADC"/>
<path opacity="0.58" d="M389.616 631.328L635.609 636.335C636.419 636.349 637.199 636.641 637.817 637.161C638.435 637.681 638.853 638.398 638.999 639.19L642.93 660.531C643.024 661.036 643.004 661.556 642.872 662.054C642.74 662.551 642.498 663.013 642.165 663.407C641.832 663.8 641.416 664.116 640.946 664.33C640.476 664.545 639.964 664.654 639.446 664.649L390.888 658.097C390.013 658.082 389.175 657.742 388.539 657.145C387.903 656.547 387.515 655.735 387.451 654.868L386.085 635.142C386.035 634.654 386.09 634.162 386.245 633.697C386.401 633.232 386.654 632.806 386.988 632.445C387.321 632.085 387.728 631.798 388.181 631.606C388.635 631.413 389.124 631.318 389.616 631.328Z" fill="#C55ADC"/>
<path d="M385.874 574.629L754.251 576.197C755.064 576.21 755.847 576.501 756.469 577.021C757.09 577.541 757.513 578.258 757.664 579.052L761.596 600.392C761.69 600.899 761.67 601.42 761.536 601.918C761.403 602.416 761.159 602.878 760.823 603.27C760.487 603.663 760.067 603.976 759.594 604.186C759.121 604.397 758.606 604.5 758.088 604.487L387.215 601.258C386.341 601.248 385.504 600.909 384.87 600.31C384.237 599.711 383.856 598.896 383.802 598.029L382.413 578.303C382.388 577.833 382.458 577.364 382.62 576.922C382.782 576.48 383.032 576.076 383.355 575.733C383.679 575.389 384.068 575.115 384.501 574.925C384.934 574.735 385.401 574.635 385.874 574.629Z" fill="#6FBF39"/>
<path d="M81.0068 1090.99C81.0068 1090.99 117.918 550.878 252.166 441.53L274.035 593.957C274.035 593.957 341.147 514.397 386.462 530.988C431.776 547.578 331.096 772.872 354.589 820.936C378.082 868.999 404.8 1090.99 404.8 1090.99H81.0068Z" fill="#EEC84E"/>
<path d="M81.0068 1095.42C81.0068 1095.42 111.821 578.279 255.532 439.845" stroke="#1D1640" stroke-width="0.9" stroke-miterlimit="10" stroke-linecap="round"/>
<path d="M369.255 699.818C369.255 699.818 417.912 541.752 386.345 531.597C343.714 517.884 275.519 591.29 275.519 591.29C275.519 591.29 235.171 627.864 229.31 652.621" stroke="#1D1640" stroke-width="0.9" stroke-miterlimit="10" stroke-linecap="round"/>
<path d="M404.799 1095.42C404.799 1095.42 392.888 945.892 368.077 868.438C341.971 787.054 355.012 757.57 355.012 757.57" stroke="#1D1640" stroke-width="0.9" stroke-miterlimit="10" stroke-linecap="round"/>
<path d="M374.48 581.814C372.429 583.607 370.043 584.981 367.458 585.857C364.872 586.733 362.139 587.095 359.413 586.921C356.687 586.747 354.023 586.041 351.571 584.844C349.12 583.646 346.93 581.981 345.126 579.942C343.322 577.903 341.94 575.531 341.058 572.961C340.177 570.391 339.813 567.674 339.988 564.964C340.163 562.254 340.873 559.606 342.078 557.169C343.282 554.732 344.958 552.555 347.009 550.762C355.884 543.04 374.268 536.956 381.825 545.544C389.381 554.132 383.355 574.092 374.48 581.814Z" fill="#F2D069"/>
<path d="M275.518 591.289C275.518 591.289 251.79 485.147 256.521 452.107" stroke="#1D1640" stroke-width="1.12" stroke-miterlimit="10" stroke-linecap="round"/>
<path d="M1211.96 469.05L1178.42 413.171C1178.42 413.171 1116.32 354.671 1068.49 326.427C1050.03 315.476 1015.64 273.052 954.388 280.54C919.831 284.776 912.416 308.199 871.315 325.585C831.886 342.269 855.12 361.925 848.67 363.961C816.773 373.953 792.433 403.998 792.433 403.998C791.032 413.376 790.473 422.859 790.761 432.335C791.609 453.208 857.897 440.689 881.39 437.343C904.883 433.997 930.824 431.516 930.824 431.516L951.586 459.339C952.83 461.015 953.513 463.036 953.539 465.119C953.565 467.201 952.933 469.239 951.731 470.945C950.53 472.651 948.82 473.94 946.843 474.628C944.866 475.317 942.721 475.371 940.711 474.783L895.655 461.538C895.655 461.538 867.125 449.838 865.43 477.38C863.735 504.922 891.324 539.928 891.324 539.928C891.324 539.928 920.702 569.973 941.676 577.368C962.65 584.762 970.207 599.059 970.207 599.059C970.207 599.059 1041.53 660.788 1061.66 688.307C1081.79 715.825 1138.85 782.561 1138.85 782.561L1195.91 855.943L1211.96 469.05Z" fill="#C55ADC"/>
<path d="M1081.93 379.802C1050.03 303.893 937.839 272.794 900.67 309.743C900.67 309.743 833.534 338.103 847.799 362.276" stroke="#1D1640" stroke-width="0.9" stroke-miterlimit="10" stroke-linecap="round"/>
<path d="M1049.18 431.516C1049.18 431.516 1008.93 333.096 953.541 338.103C898.152 343.111 770.635 373.203 790.762 435.681C797.824 457.302 931.72 429.854 931.72 429.854L950.905 457.583C952.09 459.304 952.701 461.35 952.652 463.435C952.603 465.519 951.896 467.535 950.631 469.199C949.367 470.862 947.608 472.088 945.604 472.704C943.6 473.319 941.452 473.293 939.464 472.629C913.876 464.042 879.508 454.424 871.316 461.538C857.898 473.238 861.241 538.266 940.123 576.642C1019.01 615.018 1210.29 875.224 1210.29 875.224V469.868C1210.29 469.868 1195.74 408.163 1099.54 351.441C1099.54 351.441 1000.53 243.006 918.278 297.224" stroke="#1D1640" stroke-width="0.9" stroke-miterlimit="10" stroke-linecap="round"/>
<path d="M1017.17 470.173C1020.9 470.262 1024.6 469.518 1028 467.997C1029.69 467.205 1031.07 465.877 1031.92 464.221C1032.77 462.565 1033.05 460.675 1032.71 458.847" stroke="#1D1640" stroke-width="0.9" stroke-miterlimit="10" stroke-linecap="round"/>
<path d="M1080.94 403.038C1084.53 401.842 1087.87 399.993 1090.78 397.586C1092.22 396.361 1093.31 394.77 1093.92 392.982C1094.53 391.194 1094.64 389.276 1094.24 387.43" stroke="#1D1640" stroke-width="0.9" stroke-miterlimit="10" stroke-linecap="round"/>
<path d="M784.735 561.222L766.444 579.427L731.063 573.132L754.439 542.385L784.735 561.222Z" fill="#6FBF39"/>
<path d="M857.074 540.863L745.541 491.302L931.248 306.724C933.655 304.311 936.519 302.396 939.675 301.089C942.83 299.783 946.215 299.11 949.633 299.11C953.051 299.11 956.436 299.783 959.591 301.089C962.746 302.396 965.61 304.311 968.018 306.724L1011.94 350.364C1016.82 355.213 1019.55 361.786 1019.55 368.64C1019.55 375.493 1016.82 382.067 1011.94 386.915L857.074 540.863Z" fill="#1D1640"/>
<path d="M927.788 389.537C932.049 393.787 934.441 399.542 934.441 405.542C934.441 411.542 932.049 417.298 927.788 421.548L864.63 484.306C862.516 486.409 860.006 488.077 857.243 489.215C854.481 490.353 851.519 490.939 848.529 490.939C845.538 490.939 842.577 490.353 839.814 489.215C837.051 488.077 834.541 486.409 832.427 484.306C830.312 482.205 828.634 479.71 827.489 476.963C826.344 474.217 825.755 471.274 825.755 468.301C825.755 465.328 826.344 462.384 827.489 459.638C828.634 456.892 830.312 454.397 832.427 452.295L895.491 389.537C897.608 387.423 900.125 385.745 902.896 384.601C905.667 383.456 908.639 382.867 911.639 382.867C914.64 382.867 917.612 383.456 920.383 384.601C923.154 385.745 925.671 387.423 927.788 389.537Z" fill="white" stroke="#1D1640" stroke-width="0.88" stroke-miterlimit="10"/>
<path d="M881.367 467.692C873.13 467.022 865.356 463.627 859.288 458.049C853.22 452.471 849.208 445.032 847.894 436.921" stroke="#1D1640" stroke-width="0.88" stroke-miterlimit="10"/>
<path d="M857.074 540.863L839.725 558.108L730.429 508.477L745.541 491.302L857.074 540.863Z" fill="#6FBF39"/>
<path d="M857.074 540.863L839.725 558.108L730.429 508.477L745.541 491.302L857.074 540.863Z" stroke="#1D1640" stroke-width="0.5" stroke-miterlimit="10" stroke-linecap="round"/>
<path d="M809.382 544.257L789.797 563.726L744.953 546.784L762.02 523.548L809.382 544.257Z" fill="#1D1640"/>
<path d="M775.507 570.628L766.562 579.543L743.752 576.244" stroke="#1D1640" stroke-width="0.5" stroke-miterlimit="10" stroke-linecap="round"/>
<path d="M930.613 468.207C930.613 468.207 869.597 452.178 865.431 477.38C861.264 502.581 888.1 536.043 888.1 536.043C888.1 536.043 938.428 539.389 930.613 468.207Z" fill="#C55ADC"/>
<path d="M888.1 536.043C888.1 536.043 850.036 491.583 871.316 469.049C884.734 454.869 932.52 469.049 932.52 469.049" stroke="#1D1640" stroke-width="0.88" stroke-miterlimit="10"/>
<path d="M911.263 479.182C913.502 480.147 915.527 481.542 917.221 483.288C918.915 485.034 920.245 487.096 921.134 489.355C922.024 491.614 922.454 494.026 922.402 496.451C922.35 498.877 921.815 501.268 920.83 503.487C919.844 505.706 918.426 507.709 916.658 509.382C914.89 511.054 912.807 512.362 910.528 513.23C908.25 514.099 905.821 514.511 903.381 514.442C900.942 514.374 898.54 513.826 896.315 512.831C886.687 508.619 874.846 496.124 878.966 486.834C883.085 477.544 901.658 474.97 911.263 479.182Z" fill="#DA6CFA"/>
<path d="M181.453 147.465C180.213 158.043 175.305 167.861 167.572 175.232C159.839 182.603 149.765 187.065 139.081 187.853C149.765 188.641 159.839 193.104 167.572 200.475C175.305 207.845 180.213 217.663 181.453 228.241C182.689 217.662 187.596 207.841 195.329 200.47C203.063 193.098 213.14 188.637 223.825 187.853C213.14 187.07 203.063 182.609 195.329 175.237C187.596 167.865 182.689 158.045 181.453 147.465Z" fill="white"/>
<path d="M870.021 920.854C879.249 940.721 898.646 954.316 919.149 962.249C946.809 972.919 979.482 974.323 1005.19 959.581C1030.89 944.839 1046.43 911.541 1035.32 884.21C1027.48 864.975 1002.65 851.45 984.967 862.448C971.149 871.059 968.631 893.079 980.259 904.568C991.888 916.057 1010.67 914.958 1025.31 908.406C1037.89 902.757 1048.63 893.727 1056.32 882.335C1064.01 870.942 1068.35 857.64 1068.84 843.929C1069.33 830.218 1065.95 816.644 1059.09 804.738C1052.23 792.832 1042.17 783.068 1030.02 776.547C1018.49 770.346 1003.52 767.562 992.712 774.956C981.907 782.35 981.695 802.474 994.219 806.335C997.698 807.248 1001.36 807.248 1004.84 806.335C1012.77 804.596 1019.97 800.463 1025.45 794.502C1030.93 788.541 1034.42 781.042 1035.46 773.032C1036.49 765.021 1035 756.89 1031.21 749.749C1027.41 742.609 1021.49 736.808 1014.25 733.14" stroke="#EEC84E" stroke-width="2" stroke-miterlimit="10"/>
<path d="M144.214 457.178C177.803 451.716 200.579 420.22 195.085 386.831C189.59 353.441 157.906 330.801 124.316 336.263C90.7268 341.725 67.9512 373.22 73.4457 406.61C78.9402 439.999 110.624 462.639 144.214 457.178Z" fill="#1D1640"/>
<path d="M192.217 409.802C205.45 378.63 190.757 342.697 159.399 329.542C128.041 316.388 91.8925 330.993 78.6592 362.165C65.4259 393.336 80.119 429.27 111.477 442.424C142.835 455.579 178.984 440.973 192.217 409.802Z" fill="black"/>
<path d="M192.217 409.799C205.45 378.628 190.757 342.694 159.399 329.54C128.041 316.385 91.8925 330.991 78.6592 362.163C65.4259 393.334 80.119 429.267 111.477 442.422C142.835 455.576 178.984 440.971 192.217 409.799Z" fill="#4C2AD2"/>
<path d="M96.8028 309.252C73.917 329.968 56.2843 355.77 45.3444 384.553C41.2013 395.48 38.2824 408.491 44.7323 418.248C50.8998 427.608 63.941 430.299 74.7694 427.491C85.5978 424.683 94.6607 417.476 103.017 410.082C130.653 385.699 155.041 356.87 169.847 323.198C171.382 320.322 172.113 317.09 171.966 313.838C171.236 308.503 165.916 304.712 160.549 304.034C155.124 303.724 149.708 304.778 144.801 307.099C112.021 320.103 84.4464 343.452 66.3185 373.555C60.5983 383.148 55.7491 394.427 58.5974 405.215C59.2015 408.071 60.8128 410.619 63.1406 412.398C68.1311 415.721 74.7694 412.726 79.8305 409.544C108.689 391.294 132.978 366.741 150.851 337.753C153.934 332.745 156.736 326.053 153.016 321.373C149.297 316.693 141.246 318.378 135.573 320.975C106.413 334.354 81.7479 355.801 64.5295 382.751C63.0624 384.594 62.2363 386.86 62.1755 389.209C62.764 395.972 72.9803 395.738 79.0537 392.649C114.175 374.795 131.642 333.939 164.48 312.177C170.765 308.011 178.369 304.502 185.666 306.467C193.693 308.62 198.778 317.067 199.367 325.327C199.955 333.588 197.013 341.707 193.623 349.242C177.381 386.008 151.864 417.983 119.542 442.069C112.198 447.522 104.43 452.67 98.8508 459.9C93.2718 467.131 90.2822 477.099 93.9074 485.453C94.2254 486.417 94.75 487.301 95.4449 488.045C96.1398 488.788 96.9886 489.373 97.9327 489.758C99.0991 489.935 100.29 489.867 101.428 489.561C102.567 489.255 103.629 488.717 104.547 487.98C142.988 463.878 158.454 415.16 192.964 385.629C198.849 380.598 209.795 377.182 212.784 384.319C214.432 388.25 211.984 392.579 209.606 396.018C197.507 414.005 185.031 431.75 172.178 449.253C154.429 473.355 133.761 498.393 104.595 505.647C96.1908 507.706 86.5865 507.987 79.6422 502.769C68.6019 494.579 69.8731 477.59 75.2637 465.001C80.8662 451.921 89.5525 440.361 98.6154 429.363C119.005 404.617 141.757 381.892 166.552 361.504C179.546 350.786 196.236 340.14 212.219 345.568C228.556 351.137 235.218 371.308 233.405 388.343C231.593 405.378 223.989 421.431 221.494 438.442" stroke="#9D3CB1" stroke-width="0.7" stroke-miterlimit="10" stroke-linecap="round"/>
<path d="M659.314 110.657H951.987C952.107 110.654 952.226 110.675 952.337 110.718C952.448 110.761 952.549 110.826 952.635 110.909C952.721 110.992 952.789 111.091 952.835 111.201C952.882 111.31 952.905 111.428 952.905 111.546V229.037C952.905 229.279 952.809 229.511 952.636 229.683C952.464 229.854 952.231 229.95 951.987 229.95H921.385C921.188 229.948 920.995 230.011 920.838 230.13C920.68 230.249 920.566 230.416 920.514 230.605L908.179 274.503C908.118 274.685 908.002 274.843 907.845 274.955C907.689 275.067 907.501 275.127 907.308 275.127C907.116 275.127 906.928 275.067 906.772 274.955C906.615 274.843 906.498 274.685 906.437 274.503L888.83 230.418C888.762 230.25 888.645 230.106 888.494 230.005C888.343 229.905 888.164 229.853 887.982 229.856H659.314C659.075 229.85 658.848 229.751 658.68 229.581C658.513 229.41 658.42 229.182 658.42 228.944V111.546C658.42 111.311 658.514 111.084 658.682 110.918C658.85 110.751 659.077 110.657 659.314 110.657Z" fill="black"/>
<path d="M659.314 110.658H951.987C952.107 110.655 952.226 110.676 952.337 110.719C952.448 110.762 952.549 110.827 952.635 110.91C952.721 110.993 952.789 111.092 952.835 111.202C952.882 111.311 952.905 111.429 952.905 111.547V229.038C952.905 229.28 952.809 229.512 952.636 229.684C952.464 229.855 952.231 229.951 951.987 229.951H921.385C921.188 229.949 920.995 230.012 920.838 230.131C920.68 230.25 920.566 230.417 920.514 230.606L908.179 274.504C908.118 274.686 908.002 274.844 907.845 274.956C907.689 275.068 907.501 275.128 907.308 275.128C907.116 275.128 906.928 275.068 906.772 274.956C906.615 274.844 906.498 274.686 906.437 274.504L888.83 230.419C888.762 230.251 888.645 230.107 888.494 230.006C888.343 229.906 888.164 229.854 887.982 229.857H659.314C659.075 229.851 658.848 229.752 658.68 229.582C658.513 229.411 658.42 229.183 658.42 228.945V111.547C658.42 111.312 658.514 111.085 658.682 110.919C658.85 110.752 659.077 110.658 659.314 110.658Z" fill="#68B534"/>
<path opacity="0.24" d="M717.081 276.469C757.476 241.954 796.576 205.099 826.142 161.037C831.557 152.941 836.759 144.376 837.912 134.572C838.24 132.098 837.753 129.586 836.524 127.411C832.922 121.515 826.213 122.872 820.822 124.744C787.372 136.444 760.16 161.622 735.725 186.286C730.944 190.857 727.287 196.462 725.038 202.665C724.845 203.23 724.758 203.825 724.779 204.42C724.994 205.682 725.66 206.825 726.655 207.637C727.65 208.45 728.906 208.878 730.193 208.843C732.764 208.73 735.255 207.921 737.397 206.503C748.373 200.072 757.96 191.544 765.604 181.411C773.248 171.278 778.798 159.741 781.934 147.465C782.55 145.268 782.451 142.934 781.652 140.796C779.015 134.244 771.318 135.11 765.621 137.239C753.851 141.662 743.493 149.337 733.395 156.895L675.745 200.091C657.643 213.663 639.141 227.68 627.135 246.891C625.111 250.12 623.18 254.052 626.523 257.702C627.58 258.782 628.904 259.567 630.363 259.978C631.821 260.389 633.363 260.411 634.833 260.042C651.028 256.298 662.116 242.983 671.649 229.926C686.743 209.243 700.261 187.467 712.091 164.781C712.981 163.177 713.526 161.406 713.692 159.582C713.858 157.757 713.642 155.918 713.056 154.181C709.878 145.523 698.932 146.716 691.07 149.501C673.197 155.94 656.74 165.744 642.601 178.376C641.437 179.438 640.724 180.901 640.606 182.468C640.489 184.034 640.976 185.586 641.968 186.808C642.961 188.03 644.384 188.83 645.949 189.046C647.514 189.262 649.103 188.877 650.393 187.97L650.722 187.736C661.645 180.085 672.379 172.175 683.019 164.149C703.805 148.448 724.826 132.887 743.894 115.15C755.31 104.526 766.186 92.8966 771.836 78.1781C773.588 73.7148 773.495 68.744 771.577 64.3487C767.269 54.9888 757.641 55.7376 749.92 57.3288C734.033 60.6085 719.013 67.1608 705.829 76.5635C678.382 95.728 649.592 113.114 622.427 132.723C607.809 143.23 593.402 154.625 583.398 169.531C581.609 172.199 579.984 175.826 581.891 178.4C583.064 179.722 584.694 180.557 586.458 180.74C593.499 182.057 600.78 180.705 606.867 176.949C627.517 164.138 644.328 146.053 655.548 124.58C658.255 119.409 660.727 113.395 655.877 107.756C654.515 106.185 652.785 104.971 650.84 104.222C644.437 101.672 637.705 103.31 631.443 105.392C614.482 111.048 598.799 119.951 585.281 131.6" stroke="#F2E7D5" stroke-width="0.4" stroke-miterlimit="10"/>
<path d="M659.314 110.657H951.987C952.107 110.654 952.226 110.675 952.337 110.718C952.448 110.761 952.55 110.826 952.635 110.909C952.721 110.992 952.789 111.091 952.835 111.201C952.881 111.31 952.905 111.428 952.905 111.546V229.037C952.905 229.279 952.809 229.511 952.636 229.683C952.464 229.854 952.231 229.95 951.987 229.95H921.385C921.188 229.948 920.995 230.011 920.838 230.13C920.68 230.249 920.566 230.416 920.514 230.605L908.179 274.503C908.118 274.685 908.002 274.843 907.845 274.955C907.689 275.067 907.501 275.127 907.308 275.127C907.116 275.127 906.928 275.067 906.772 274.955C906.615 274.843 906.498 274.685 906.437 274.503L888.83 230.418C888.762 230.25 888.645 230.106 888.494 230.005C888.343 229.905 888.164 229.853 887.982 229.856H659.314C659.075 229.85 658.848 229.751 658.68 229.581C658.513 229.41 658.42 229.182 658.42 228.944V111.546C658.42 111.311 658.514 111.084 658.682 110.918C658.85 110.751 659.077 110.657 659.314 110.657Z" stroke="#1D1640" stroke-width="0.8" stroke-miterlimit="10" stroke-linecap="round"/>
<path d="M691.45 145.315V145.835H689.798V146.983H691.086V147.504H689.798V149.207H689.159V145.315H691.45ZM692.366 145.712C692.25 145.712 692.153 145.673 692.075 145.595C691.996 145.516 691.957 145.419 691.957 145.303C691.957 145.188 691.996 145.091 692.075 145.012C692.153 144.934 692.25 144.895 692.366 144.895C692.478 144.895 692.573 144.934 692.652 145.012C692.73 145.091 692.769 145.188 692.769 145.303C692.769 145.419 692.73 145.516 692.652 145.595C692.573 145.673 692.478 145.712 692.366 145.712ZM692.68 146.121V149.207H692.041V146.121H692.68ZM694.156 145.063V149.207H693.518V145.063H694.156ZM697.822 147.588C697.822 147.704 697.815 147.808 697.8 147.902H695.442C695.461 148.148 695.553 148.346 695.717 148.495C695.881 148.645 696.083 148.719 696.322 148.719C696.665 148.719 696.908 148.576 697.05 148.288H697.738C697.645 148.572 697.475 148.805 697.229 148.988C696.986 149.167 696.684 149.257 696.322 149.257C696.027 149.257 695.762 149.192 695.526 149.061C695.295 148.927 695.112 148.74 694.978 148.501C694.847 148.258 694.782 147.978 694.782 147.661C694.782 147.344 694.845 147.065 694.972 146.827C695.103 146.584 695.284 146.397 695.515 146.267C695.75 146.136 696.019 146.071 696.322 146.071C696.613 146.071 696.872 146.134 697.1 146.261C697.328 146.388 697.505 146.567 697.632 146.799C697.759 147.026 697.822 147.289 697.822 147.588ZM697.156 147.387C697.152 147.151 697.068 146.963 696.904 146.821C696.74 146.679 696.536 146.608 696.294 146.608C696.073 146.608 695.885 146.679 695.728 146.821C695.571 146.959 695.478 147.148 695.448 147.387H697.156ZM702.627 146.474C702.627 146.672 702.58 146.858 702.487 147.034C702.394 147.209 702.244 147.353 702.039 147.465C701.834 147.573 701.57 147.627 701.249 147.627H700.544V149.207H699.905V145.315H701.249C701.548 145.315 701.8 145.367 702.005 145.471C702.214 145.572 702.369 145.71 702.47 145.886C702.575 146.061 702.627 146.257 702.627 146.474ZM701.249 147.107C701.492 147.107 701.673 147.052 701.793 146.944C701.912 146.832 701.972 146.675 701.972 146.474C701.972 146.048 701.731 145.835 701.249 145.835H700.544V147.107H701.249ZM703.874 146.569C703.968 146.412 704.091 146.291 704.244 146.205C704.401 146.115 704.585 146.071 704.798 146.071V146.731H704.636C704.386 146.731 704.195 146.795 704.065 146.922C703.938 147.049 703.874 147.269 703.874 147.583V149.207H703.236V146.121H703.874V146.569ZM706.723 149.257C706.432 149.257 706.169 149.192 705.934 149.061C705.699 148.927 705.514 148.74 705.379 148.501C705.245 148.258 705.178 147.978 705.178 147.661C705.178 147.347 705.247 147.069 705.385 146.827C705.523 146.584 705.712 146.397 705.951 146.267C706.19 146.136 706.457 146.071 706.751 146.071C707.046 146.071 707.313 146.136 707.552 146.267C707.791 146.397 707.98 146.584 708.118 146.827C708.256 147.069 708.325 147.347 708.325 147.661C708.325 147.975 708.254 148.253 708.112 148.495C707.97 148.738 707.776 148.927 707.53 149.061C707.287 149.192 707.018 149.257 706.723 149.257ZM706.723 148.703C706.888 148.703 707.041 148.663 707.183 148.585C707.328 148.507 707.446 148.389 707.535 148.232C707.625 148.075 707.67 147.885 707.67 147.661C707.67 147.437 707.627 147.248 707.541 147.095C707.455 146.939 707.341 146.821 707.199 146.743C707.058 146.664 706.905 146.625 706.74 146.625C706.576 146.625 706.423 146.664 706.281 146.743C706.143 146.821 706.033 146.939 705.951 147.095C705.869 147.248 705.827 147.437 705.827 147.661C705.827 147.993 705.911 148.251 706.079 148.434C706.251 148.613 706.466 148.703 706.723 148.703ZM708.743 147.661C708.743 147.344 708.807 147.065 708.934 146.827C709.064 146.584 709.244 146.397 709.471 146.267C709.699 146.136 709.96 146.071 710.255 146.071C710.629 146.071 710.937 146.16 711.179 146.339C711.426 146.515 711.592 146.767 711.678 147.095H710.989C710.933 146.942 710.843 146.823 710.72 146.737C710.597 146.651 710.442 146.608 710.255 146.608C709.994 146.608 709.785 146.701 709.628 146.888C709.475 147.071 709.399 147.329 709.399 147.661C709.399 147.993 709.475 148.253 709.628 148.439C709.785 148.626 709.994 148.719 710.255 148.719C710.625 148.719 710.869 148.557 710.989 148.232H711.678C711.588 148.546 711.42 148.796 711.174 148.983C710.927 149.165 710.621 149.257 710.255 149.257C709.96 149.257 709.699 149.192 709.471 149.061C709.244 148.927 709.064 148.74 708.934 148.501C708.807 148.258 708.743 147.978 708.743 147.661ZM715.142 147.588C715.142 147.704 715.134 147.808 715.12 147.902H712.762C712.781 148.148 712.872 148.346 713.036 148.495C713.201 148.645 713.402 148.719 713.641 148.719C713.985 148.719 714.227 148.576 714.369 148.288H715.058C714.965 148.572 714.795 148.805 714.548 148.988C714.306 149.167 714.003 149.257 713.641 149.257C713.346 149.257 713.081 149.192 712.846 149.061C712.614 148.927 712.432 148.74 712.297 148.501C712.166 148.258 712.101 147.978 712.101 147.661C712.101 147.344 712.165 147.065 712.292 146.827C712.422 146.584 712.603 146.397 712.835 146.267C713.07 146.136 713.339 146.071 713.641 146.071C713.932 146.071 714.192 146.134 714.42 146.261C714.647 146.388 714.825 146.567 714.952 146.799C715.078 147.026 715.142 147.289 715.142 147.588ZM714.476 147.387C714.472 147.151 714.388 146.963 714.224 146.821C714.059 146.679 713.856 146.608 713.613 146.608C713.393 146.608 713.204 146.679 713.048 146.821C712.891 146.959 712.797 147.148 712.768 147.387H714.476ZM716.89 149.257C716.648 149.257 716.429 149.214 716.235 149.128C716.045 149.039 715.893 148.919 715.781 148.77C715.669 148.617 715.61 148.447 715.602 148.26H716.263C716.274 148.391 716.336 148.501 716.448 148.591C716.564 148.676 716.707 148.719 716.879 148.719C717.058 148.719 717.196 148.686 717.293 148.619C717.394 148.548 717.445 148.458 717.445 148.35C717.445 148.234 717.389 148.148 717.277 148.092C717.168 148.036 716.995 147.975 716.756 147.907C716.524 147.844 716.336 147.782 716.19 147.723C716.045 147.663 715.918 147.571 715.809 147.448C715.705 147.325 715.653 147.163 715.653 146.961C715.653 146.797 715.701 146.647 715.798 146.513C715.895 146.375 716.033 146.267 716.213 146.188C716.396 146.11 716.605 146.071 716.84 146.071C717.191 146.071 717.473 146.16 717.685 146.339C717.902 146.515 718.018 146.756 718.033 147.062H717.394C717.383 146.924 717.327 146.813 717.226 146.731C717.125 146.649 716.989 146.608 716.817 146.608C716.649 146.608 716.521 146.64 716.431 146.703C716.341 146.767 716.297 146.851 716.297 146.955C716.297 147.037 716.326 147.107 716.386 147.163C716.446 147.219 716.519 147.263 716.605 147.297C716.69 147.327 716.817 147.366 716.985 147.415C717.209 147.474 717.392 147.536 717.534 147.599C717.68 147.659 717.805 147.749 717.909 147.868C718.014 147.988 718.068 148.146 718.072 148.344C718.072 148.52 718.023 148.676 717.926 148.815C717.829 148.953 717.691 149.061 717.512 149.139C717.336 149.218 717.129 149.257 716.89 149.257ZM719.882 149.257C719.639 149.257 719.421 149.214 719.226 149.128C719.036 149.039 718.885 148.919 718.773 148.77C718.661 148.617 718.601 148.447 718.594 148.26H719.254C719.266 148.391 719.327 148.501 719.439 148.591C719.555 148.676 719.699 148.719 719.87 148.719C720.05 148.719 720.188 148.686 720.285 148.619C720.386 148.548 720.436 148.458 720.436 148.35C720.436 148.234 720.38 148.148 720.268 148.092C720.16 148.036 719.986 147.975 719.747 147.907C719.516 147.844 719.327 147.782 719.182 147.723C719.036 147.663 718.909 147.571 718.801 147.448C718.696 147.325 718.644 147.163 718.644 146.961C718.644 146.797 718.693 146.647 718.79 146.513C718.887 146.375 719.025 146.267 719.204 146.188C719.387 146.11 719.596 146.071 719.831 146.071C720.182 146.071 720.464 146.16 720.677 146.339C720.893 146.515 721.009 146.756 721.024 147.062H720.386C720.374 146.924 720.318 146.813 720.218 146.731C720.117 146.649 719.981 146.608 719.809 146.608C719.641 146.608 719.512 146.64 719.422 146.703C719.333 146.767 719.288 146.851 719.288 146.955C719.288 147.037 719.318 147.107 719.378 147.163C719.437 147.219 719.51 147.263 719.596 147.297C719.682 147.327 719.809 147.366 719.977 147.415C720.201 147.474 720.384 147.536 720.526 147.599C720.671 147.659 720.796 147.749 720.901 147.868C721.005 147.988 721.059 148.146 721.063 148.344C721.063 148.52 721.015 148.676 720.918 148.815C720.821 148.953 720.682 149.061 720.503 149.139C720.328 149.218 720.121 149.257 719.882 149.257Z" fill="white"/>
<path d="M555.997 81.9914L608.915 114.049L659.267 83.2549V40.9246H557.292L555.997 81.9914Z" fill="#4C2AD2" stroke="#1D1640" stroke-width="0.6" stroke-miterlimit="10"/>
<path d="M611.081 0.677246L692.976 26.3469L614.235 67.6945L520.993 33.2499L611.081 0.677246Z" fill="#AC4FBD" stroke="#1D1640" stroke-width="0.6" stroke-miterlimit="10"/>
<path d="M610.445 28.2415C610.445 28.2415 658.961 5.07558 671.649 38.2566C684.337 71.4376 678.57 129.68 678.57 129.68" stroke="#1D1640" stroke-width="0.6" stroke-miterlimit="10" stroke-linecap="round"/>
<path d="M679.417 138.455C683.071 138.455 686.032 134.809 686.032 130.312C686.032 125.815 683.071 122.169 679.417 122.169C675.764 122.169 672.803 125.815 672.803 130.312C672.803 134.809 675.764 138.455 679.417 138.455Z" fill="#AC4FBD" stroke="#1D1640" stroke-width="0.6" stroke-miterlimit="10"/>
<path d="M424.691 172.596C435.832 160.61 444.186 146.335 449.161 130.783C454.136 115.231 455.611 98.782 453.481 82.6005C452.633 76.5633 451.127 70.2454 446.913 65.7994C442.7 61.3534 435.143 59.5984 430.435 63.4594C427.187 66.1972 426.174 70.7602 425.986 74.9722C425.552 84.1512 428.022 93.2348 433.049 100.947C438.075 108.658 445.407 114.611 454.012 117.967C462.617 121.324 472.065 121.916 481.026 119.661C489.987 117.405 498.013 112.415 503.974 105.392C509.082 99.3782 511.978 89.2227 505.716 84.3321C503.768 83.0499 501.467 82.3996 499.132 82.4708C496.796 82.5421 494.541 83.3313 492.675 84.7299C488.984 87.6255 486.367 91.6592 485.236 96.1959C483.569 101.648 483.11 107.395 483.892 113.041C484.674 118.687 486.678 124.097 489.766 128.898C492.853 133.7 496.951 137.78 501.777 140.856C506.604 143.932 512.043 145.931 517.721 146.716C527.444 148.05 539.19 144.376 541.991 135.016" stroke="#EEC84E" stroke-width="0.5" stroke-miterlimit="10"/>
<path d="M109.844 478.129C116.273 502.978 129.372 525.625 147.743 543.649" stroke="#F2E7D5" stroke-width="2" stroke-miterlimit="10"/>
<path d="M62.8582 446.257C60.1982 475.531 60.9279 505.623 70.4851 533.445C80.0424 561.268 99.251 586.703 126.11 598.965" stroke="#F2E7D5" stroke-width="2" stroke-miterlimit="10"/>
</svg>
