<svg width="400" height="202" viewBox="0 0 400 202" fill="none" xmlns="http://www.w3.org/2000/svg">
<g filter="url(#filter0_d_294_1025)">
<rect x="20" y="33" width="360" height="145" rx="20" fill="#0961F5"/>
</g>
<path d="M134.996 13.3222C129.644 17.1377 121.12 23.5336 121.12 23.5336L136.683 37.3697L144.786 22.2283C146.262 19.6779 145.92 16.475 143.942 14.2961C141.643 11.7458 137.787 11.3241 134.996 13.3222Z" fill="#FF6D60"/>
<path d="M142.456 14.1156L149.947 8.54297L173.201 34.2873L161.333 73.2151L159.937 72.5424L171.665 34.6789L149.806 10.2198L143.41 15.461L142.456 14.1156Z" fill="#971110"/>
<path d="M152.537 76.5287L154.415 72.2012H166.383L167.97 76.2375L152.537 76.5287Z" fill="#971110"/>
<path d="M145.187 80.133L148.501 76.0967H171.715L174.737 80.2736L145.187 80.133Z" fill="#E53E38"/>
<path d="M136.663 37.3491C137.752 36.1063 135.112 32.0119 130.766 28.204C126.42 24.3962 122.015 22.3168 120.926 23.5597C119.837 24.8025 122.477 28.8969 126.823 32.7048C131.168 36.5126 135.574 38.592 136.663 37.3491Z" fill="#E53E38"/>
<path d="M140.729 22.2384L137.426 27.4194C137.215 27.7508 137.265 28.1926 137.556 28.4737L137.787 28.6946C138.179 29.0661 138.821 28.9758 139.092 28.5038L142.175 23.1019C142.386 22.7304 142.285 22.2585 141.934 22.0175C141.532 21.7364 140.99 21.8368 140.729 22.2384Z" fill="white"/>
<path d="M130.779 28.203C129.253 26.8676 127.726 25.7531 126.331 24.9097C126.13 25.5222 126.019 26.1748 126.019 26.8475C126.019 30.2212 128.69 32.9523 131.974 32.9523C132.958 32.9523 133.881 32.7013 134.695 32.2695C133.67 30.9743 132.335 29.5686 130.779 28.203Z" fill="#FFC968"/>
<path d="M71.8398 30.4521V115.407H34.4081V41.3463C34.4081 35.3319 39.2879 30.4521 45.3022 30.4521H71.8398Z" fill="#2C2E4A"/>
<path d="M44.74 30.4521V115.407H34.4081V40.7941C34.4081 35.0809 39.0368 30.4521 44.74 30.4521Z" fill="#4D5282"/>
<path d="M69.159 115.497H52.2303V123.148H69.159V115.497Z" fill="#373660"/>
<path d="M62.492 123.147H58.9075V150.659H62.492V123.147Z" fill="#2C2E4A"/>
<path d="M79.9026 153.099C79.9026 151.031 78.2258 149.354 76.1574 149.354H62.5623H58.8171H45.232C43.1636 149.354 41.4868 151.031 41.4868 153.099V157.949C41.4868 158.109 41.6173 158.23 41.768 158.23H44.9509C45.1115 158.23 45.232 158.099 45.232 157.949V154.475C45.232 153.722 45.8445 153.109 46.5975 153.109H58.5359C58.6966 153.109 58.8171 153.24 58.8171 153.39V157.949C58.8171 158.109 58.9476 158.23 59.0982 158.23H62.2811C62.4418 158.23 62.5623 158.099 62.5623 157.949V153.39C62.5623 153.23 62.6928 153.109 62.8434 153.109H74.7316C75.5148 153.109 76.1574 153.752 76.1574 154.535V157.959C76.1574 158.12 76.2879 158.24 76.4385 158.24H79.6214C79.7821 158.24 79.9026 158.109 79.9026 157.959V153.099Z" fill="#2C2E4A"/>
<path d="M61.016 115.497H52.2303V123.148H61.016V115.497Z" fill="#2C2E4A"/>
<path d="M43.3444 164.615C45.3351 164.615 46.949 163.002 46.949 161.011C46.949 159.02 45.3351 157.406 43.3444 157.406C41.3536 157.406 39.7397 159.02 39.7397 161.011C39.7397 163.002 41.3536 164.615 43.3444 164.615Z" fill="#4D5282"/>
<path d="M60.795 164.615C62.7858 164.615 64.3997 163.002 64.3997 161.011C64.3997 159.02 62.7858 157.406 60.795 157.406C58.8043 157.406 57.1904 159.02 57.1904 161.011C57.1904 163.002 58.8043 164.615 60.795 164.615Z" fill="#4D5282"/>
<path d="M77.6434 164.615C79.6342 164.615 81.2481 163.002 81.2481 161.011C81.2481 159.02 79.6342 157.406 77.6434 157.406C75.6527 157.406 74.0388 159.02 74.0388 161.011C74.0388 163.002 75.6527 164.615 77.6434 164.615Z" fill="#4D5282"/>
<path d="M85.957 62.2511L96.55 83.1759L110.868 81.3786L109.221 69.6812L87.674 40.272L85.957 62.2511Z" fill="#FFC968"/>
<path d="M95.7368 65.4332C96.3895 65.5938 107.454 83.8277 107.454 83.8277L95.4055 81.3879L86.3789 62.8326L86.8107 56.6978L95.7368 65.4332Z" fill="#FFA647"/>
<path d="M114.332 154.605L113.027 164.696L141.512 165.188L133.701 160.298L125.066 158.19L122.144 153.792L114.332 154.605Z" fill="#FFCFBF"/>
<path d="M125.066 158.19C125.066 158.19 117.415 162.256 113.67 159.003C112.696 166.002 112.696 166.002 112.696 166.002H122.134L123.108 164.867L126.281 165.228L127.506 166.453L144.274 166.654L134.343 160.309L125.066 158.19Z" fill="#4D5282"/>
<path d="M93.5779 155.218L92.2726 165.299L120.758 165.801L112.946 160.911L104.321 158.793L101.39 154.405L93.5779 155.218Z" fill="#FFCFBF"/>
<path d="M104.321 158.792C104.321 158.792 96.6703 162.858 92.9251 159.605C91.9512 166.604 91.9512 166.604 91.9512 166.604H101.389L102.363 165.469L105.536 165.831L106.761 167.055L123.529 167.256L113.599 160.911L104.321 158.792Z" fill="#4D5282"/>
<path d="M98.2168 86.1172L121.893 93.216C126.883 94.712 130.337 99.2705 130.407 104.492L130.447 107.122L113.117 110.536L98.2168 86.1172Z" fill="#373660"/>
<path d="M130.437 105.084L132.476 159.284L114.081 157.165L112.133 104.181L130.437 105.084Z" fill="#373660"/>
<path d="M50.3628 79.0391C50.3628 79.0391 43.5251 104.432 53.5357 108.097C89.4212 108.338 89.4212 108.338 89.4212 108.338L99.4318 87.8247L83.8084 80.505L50.3628 79.0391Z" fill="#373660"/>
<path d="M87.7143 108.278L112.927 110.778L111.24 96.0482L86.3086 85.626L87.7143 108.278Z" fill="#373660"/>
<path d="M95.2849 104.913L89.8328 159.274L113.599 160.328L116.36 108.839C116.621 104.03 114.704 99.3608 111.149 96.1177L95.2849 104.913Z" fill="#373660"/>
<path d="M65.0122 33.8657C65.0122 33.8657 49.5997 36.2353 43.515 40.7938C46.9489 83.3162 46.708 82.7037 46.708 82.7037L85.7764 81.6494C85.7764 81.6494 87.8247 40.9243 87.8247 40.5629C87.8247 40.2014 72.9544 34.4882 72.9544 34.4882L65.0122 33.8657Z" fill="#FFC968"/>
<path d="M54.0175 49.2583C54.0175 49.2583 57.8029 61.5883 65.976 65.9861C83.477 75.3942 86.9711 61.8393 86.9711 61.8393L86.1177 81.9207L72.0808 76.3682L63.2951 75.3139L50.7242 73.6873C50.7242 73.6672 50.2422 61.3373 54.0175 49.2583Z" fill="#FFA647"/>
<path d="M71.8098 76.3179L81.3585 75.7456L81.1376 83.5573L76.5691 83.3866L71.0568 80.8362L71.8098 76.3179Z" fill="#FFCFBF"/>
<path d="M80.8365 75.9766L84.7323 74.5308L88.8289 75.7156C89.2205 75.826 89.4313 76.2477 89.3008 76.6293C89.1803 76.9707 88.8289 77.1715 88.4774 77.0911L84.411 76.1774L80.7059 77.7538L80.8365 75.9766Z" fill="#FFCFBF"/>
<path d="M80.1435 76.5288C80.4447 76.5388 84.4007 77.0007 84.4007 77.0007L88.1158 78.6474C88.5074 78.8181 88.6781 79.28 88.5074 79.6716C88.3467 80.033 87.9351 80.2037 87.5636 80.0832L83.5272 78.7177L79.8121 78.4767L80.1435 76.5288Z" fill="#FFCFBF"/>
<path d="M79.8825 79.25L83.1758 79.3705L86.429 81.3786C86.8708 81.6497 86.9009 82.2823 86.4892 82.5936C86.2985 82.7341 86.0575 82.7743 85.8265 82.714L82.7541 81.3485H79.8021L79.8825 79.25Z" fill="#FFCFBF"/>
<path d="M79.9628 81.0874L82.493 82.2722L84.6317 84.0896C85.0634 84.4611 84.953 85.1639 84.4208 85.3748C84.1899 85.4651 83.9289 85.435 83.718 85.3045L80.6255 83.2462L79.9628 81.0874Z" fill="#FFCFBF"/>
<path d="M88.4773 77.0912C88.1259 77.061 87.7845 77.0108 87.4431 76.9506C87.1017 76.9004 86.7604 76.8301 86.419 76.7699C86.2483 76.7397 86.0776 76.6996 85.9069 76.6695C85.7362 76.6293 85.5655 76.5992 85.3948 76.559L84.8827 76.4385L84.3807 76.308L84.461 76.2979C84.3305 76.3482 84.2 76.3984 84.0695 76.4385C83.9389 76.4887 83.8084 76.5289 83.6779 76.5791C83.4168 76.6695 83.1557 76.7498 82.8846 76.8201C83.1256 76.6795 83.3666 76.549 83.6076 76.4184C83.7281 76.3582 83.8486 76.2879 83.9791 76.2277C84.0996 76.1674 84.2301 76.1072 84.3506 76.0469L84.3908 76.0269L84.4309 76.0369L84.943 76.1373L85.4551 76.2477C85.6258 76.2879 85.7965 76.3281 85.9671 76.3682C86.1378 76.4084 86.3085 76.4486 86.4692 76.4887C86.8106 76.5691 87.1419 76.6594 87.4733 76.7598C87.8146 76.8602 88.146 76.9707 88.4773 77.0912Z" fill="#FFA28E"/>
<path d="M81.3081 81.4083C81.4286 81.3781 81.5491 81.3681 81.6696 81.348C81.7901 81.3279 81.9105 81.3079 82.031 81.2978C82.1515 81.2878 82.272 81.2677 82.3925 81.2577C82.513 81.2476 82.6335 81.2275 82.754 81.2275H82.7841L82.8142 81.2376C83.0753 81.338 83.3363 81.4484 83.5873 81.5589C83.8484 81.6693 84.0994 81.7898 84.3504 81.9103C84.6015 82.0308 84.8525 82.1613 85.1035 82.2919C85.3545 82.4224 85.5955 82.5629 85.8365 82.7236C85.5654 82.6533 85.2943 82.5629 85.0332 82.4726C84.7721 82.3822 84.5011 82.2818 84.25 82.1714C83.989 82.0709 83.7279 81.9605 83.4769 81.84C83.2158 81.7296 82.9648 81.6091 82.7138 81.4786L82.774 81.4886C82.6536 81.4886 82.5331 81.4886 82.4126 81.4886C82.2921 81.4886 82.1716 81.4786 82.0511 81.4786C81.9306 81.4786 81.8101 81.4685 81.6897 81.4585C81.5491 81.4283 81.4286 81.4183 81.3081 81.4083Z" fill="#FFA28E"/>
<path d="M72.3821 81.4785C73.095 81.7597 73.8079 82.0508 74.5208 82.3521C75.2236 82.6533 75.9365 82.9545 76.6293 83.2658L76.5791 83.2557L77.7237 83.2858C78.1053 83.2959 78.4868 83.316 78.8684 83.326C79.2499 83.3461 79.6315 83.3561 80.013 83.3762C80.3946 83.3963 80.7761 83.4164 81.1577 83.4365H81.1978L81.2279 83.4565C81.6497 83.7578 82.0714 84.059 82.4931 84.3702L83.1156 84.8321C83.3265 84.9928 83.5273 85.1434 83.7381 85.304C83.5172 85.1735 83.2863 85.0329 83.0654 84.9024L82.4027 84.4907C81.9609 84.2096 81.5292 83.9385 81.0874 83.6473L81.1476 83.6674C80.7661 83.6674 80.3845 83.6573 80.003 83.6473C79.6214 83.6373 79.2399 83.6272 78.8583 83.6172C78.4768 83.6071 78.0952 83.5971 77.7137 83.577L76.5691 83.5268H76.5389L76.5189 83.5168C75.8261 83.1854 75.1332 82.8541 74.4404 82.5127C73.7476 82.1814 73.0648 81.84 72.3821 81.4785Z" fill="#FFA28E"/>
<path d="M114.081 150.337C114.272 145.197 114.523 140.066 114.794 134.925C114.924 132.355 115.075 129.794 115.216 127.224L115.667 119.523L116.159 111.831L116.682 104.14C116.752 102.885 116.581 101.62 116.179 100.425C115.969 99.8328 115.718 99.2504 115.386 98.7183C115.065 98.1761 114.683 97.674 114.252 97.2122C113.388 96.2884 112.274 95.6257 111.059 95.2442C110.988 95.2141 110.908 95.194 110.828 95.1839L110.597 95.1237L110.366 95.0634C110.286 95.0434 110.205 95.0333 110.135 95.0233L109.663 94.943C109.502 94.9229 109.342 94.9128 109.181 94.9028C108.86 94.8626 108.539 94.8727 108.217 94.8626H108.097L107.976 94.8727L107.735 94.8827L107.253 94.9128C108.528 94.7421 109.844 94.7622 111.099 95.0835L111.571 95.2241C111.721 95.2743 111.872 95.3345 112.033 95.3948C112.183 95.445 112.334 95.5253 112.474 95.5956L112.695 95.706C112.766 95.7362 112.836 95.7864 112.906 95.8265C113.479 96.1478 114.001 96.5495 114.463 97.0113C114.924 97.4732 115.336 97.9853 115.687 98.5476C116.039 99.0998 116.33 99.6922 116.561 100.305C117.013 101.54 117.214 102.865 117.163 104.17C117.103 105.466 117.033 106.741 116.963 108.026L116.752 111.872L116.29 119.573L115.798 127.264C115.627 129.824 115.457 132.395 115.276 134.955C114.904 140.086 114.523 145.207 114.081 150.337Z" fill="#4D5282"/>
<path d="M94.8732 108.991C95.3652 108.79 95.8572 108.609 96.3492 108.418L97.8352 107.866L99.3212 107.324L100.817 106.802L101.279 106.641L101.129 107.113C100.687 108.519 100.225 109.924 99.763 111.32C99.2911 112.716 98.8192 114.111 98.3272 115.507L97.5842 117.596C97.3331 118.288 97.0821 118.981 96.8211 119.674C96.299 121.06 95.7768 122.435 95.2045 123.801C95.5861 122.375 96.0078 120.959 96.4395 119.543C96.6504 118.841 96.8813 118.138 97.1022 117.425L97.785 115.316C98.2468 113.911 98.7188 112.515 99.1907 111.119C99.6726 109.724 100.165 108.338 100.667 106.942L100.978 107.254L99.4618 107.705L97.9356 108.147L96.4094 108.569C95.8973 108.73 95.3852 108.86 94.8732 108.991Z" fill="#4D5282"/>
<path d="M64.0583 24.8289L63.5262 34.7993C63.476 35.6929 63.7471 36.5665 64.2792 37.2793L64.6206 37.7312C65.7351 39.2272 67.4621 40.1409 69.3297 40.2313C70.7655 40.3016 72.1813 39.8598 73.3259 39.0063L73.6572 38.7553C74.0288 38.4742 74.3601 38.1529 74.6312 37.7814C75.1935 37.0283 75.5349 36.1046 75.575 35.1407L75.7357 31.5461L67.4521 24.2666L64.0583 24.8289Z" fill="#FFCFBF"/>
<path d="M65.173 23.2827L67.3819 26.0037C67.3819 26.0037 67.6831 35.2613 75.5049 35.0805L75.6354 32.2189L67.3418 24.9394L65.173 23.2827Z" fill="#FFA28E"/>
<path d="M68.687 30.2214C69.9822 31.9283 72.402 33.9465 76.2275 33.0629C80.3844 32.5609 81.9206 29.1872 82.6335 21.2852C82.995 13.3731 82.513 8.86482 77.4625 6.22411L65.4137 5.67188L62.8433 24.1769L63.2248 24.5082C65.2229 26.2352 67.0905 28.1229 68.687 30.2214Z" fill="#FFCFBF"/>
<path d="M78.537 17.8105C78.5571 17.9712 78.6073 18.1218 78.6374 18.2724L78.7579 18.7343L78.9888 19.658C79.1395 20.2705 79.2901 20.893 79.4407 21.5055L79.6515 22.4293L79.762 22.8911C79.8021 23.0518 79.8222 23.2325 79.8021 23.4032C79.762 23.7446 79.6013 24.0659 79.3403 24.2868C79.2097 24.3972 79.0692 24.4876 78.9085 24.5479C78.7479 24.6081 78.5872 24.6282 78.4165 24.6282H78.4266C78.2258 24.6583 78.0149 24.6784 77.804 24.6985C77.5932 24.7185 77.3924 24.7487 77.1815 24.7688C77.3823 24.7186 77.5831 24.6784 77.794 24.6382C77.9948 24.5981 78.1956 24.5479 78.4065 24.5077H78.4165C78.7177 24.4876 79.0089 24.3671 79.2198 24.1563C79.4306 23.9555 79.5612 23.6643 79.5913 23.3831C79.6013 23.2325 79.5812 23.092 79.5511 22.9514L79.4407 22.4895C79.3704 22.1783 79.3001 21.867 79.2298 21.5658C79.0893 20.9432 78.9587 20.3207 78.8382 19.6982C78.778 19.3869 78.7177 19.0757 78.6675 18.7644L78.5973 18.2925C78.5671 18.1318 78.537 17.9712 78.537 17.8105Z" fill="#373660"/>
<path d="M72.8942 17.6804C72.9444 17.5298 73.0347 17.3992 73.1351 17.2787C73.2356 17.1583 73.346 17.0578 73.4765 16.9675C73.7275 16.7867 74.0489 16.6663 74.3902 16.6562C74.5609 16.6462 74.7417 16.6763 74.9023 16.7265C75.063 16.7867 75.2236 16.8671 75.3441 16.9775C75.5951 17.1984 75.7558 17.4896 75.7859 17.8109C75.5048 17.6703 75.2638 17.5398 75.0429 17.4695C74.822 17.3992 74.6212 17.3791 74.4103 17.3791C74.1995 17.3892 73.9685 17.4193 73.7175 17.4796C73.4565 17.5398 73.1954 17.6101 72.8942 17.6804Z" fill="#373660"/>
<path d="M70.9161 15.0799C71.0667 14.7988 71.2676 14.5578 71.4885 14.3369C71.7093 14.116 71.9604 13.9152 72.2315 13.7545C72.7737 13.4232 73.4062 13.1923 74.099 13.1621C74.4404 13.1521 74.7919 13.1923 75.1232 13.3027C75.4545 13.4131 75.7658 13.5738 76.0269 13.7746C76.0971 13.8248 76.1574 13.8851 76.2176 13.9353L76.308 14.0156C76.3381 14.0457 76.3582 14.0758 76.3883 14.106C76.4385 14.1662 76.4988 14.2264 76.549 14.2867L76.6895 14.4875C76.7799 14.618 76.8502 14.7686 76.9205 14.9092C76.9807 15.0498 77.0309 15.2104 77.0711 15.351C76.559 14.9895 76.0871 14.6582 75.6051 14.4473C75.1232 14.2465 74.6412 14.1562 74.1392 14.1762C73.6372 14.1963 73.1151 14.3068 72.5829 14.4674C72.0407 14.6482 71.4985 14.859 70.9161 15.0799Z" fill="#373660"/>
<path d="M78.5771 15.1393C78.6474 14.9285 78.7679 14.7478 78.9085 14.5771C79.0491 14.4164 79.1997 14.2658 79.3804 14.1353C79.7318 13.8843 80.1736 13.7136 80.6556 13.6935C81.1375 13.6734 81.6396 13.8441 81.991 14.1554C82.0412 14.1955 82.0713 14.2357 82.1115 14.2758L82.1717 14.3361C82.1918 14.3562 82.2119 14.3763 82.2219 14.4064C82.252 14.4566 82.2922 14.4967 82.3223 14.5469L82.4027 14.6875C82.5031 14.8783 82.5734 15.0891 82.5934 15.31C82.1918 15.1092 81.8705 14.9385 81.5592 14.8381C81.248 14.7478 80.9769 14.7076 80.6756 14.7176C80.3744 14.7277 80.0632 14.7779 79.7117 14.8582C79.3704 14.9486 78.9989 15.049 78.5771 15.1393Z" fill="#373660"/>
<path d="M79.9027 18.1618C80.0132 17.9008 80.1939 17.6999 80.4148 17.5293C80.6357 17.3686 80.9068 17.2481 81.208 17.228C81.5092 17.1979 81.8506 17.3084 82.0715 17.5192C82.2924 17.7301 82.4129 18.0012 82.4129 18.2823C82.182 18.1217 81.9912 17.9911 81.8004 17.9208C81.6096 17.8506 81.4389 17.8305 81.2482 17.8405C81.0574 17.8506 80.8465 17.9008 80.6256 17.961C80.4047 18.0213 80.1738 18.1016 79.9027 18.1618Z" fill="#373660"/>
<path d="M75.094 18.5446C75.1166 18.0516 74.825 17.6377 74.4427 17.6202C74.0605 17.6027 73.7323 17.9883 73.7098 18.4813C73.6872 18.9743 73.9788 19.3882 74.3611 19.4057C74.7433 19.4232 75.0715 19.0377 75.094 18.5446Z" fill="#373660"/>
<path d="M81.3463 19.0423C81.3668 18.5935 81.105 18.217 80.7615 18.2013C80.4181 18.1856 80.123 18.5366 80.1025 18.9854C80.0819 19.4341 80.3437 19.8106 80.6872 19.8263C81.0307 19.842 81.3257 19.491 81.3463 19.0423Z" fill="#373660"/>
<path d="M75.0628 26.6665C75.0628 26.6665 74.0889 28.3734 75.5548 29.0261C76.9003 29.5582 77.3822 27.9316 77.3822 27.9316C77.3822 27.9316 76.2376 28.1726 75.0628 26.6665Z" fill="#373660"/>
<path d="M78.3261 27.7008C77.9747 27.8815 77.5931 27.9919 77.1815 28.012C76.7798 28.0321 76.3481 27.9518 75.9766 27.7209C75.6051 27.5 75.334 27.1586 75.1633 26.7871C75.0026 26.4156 74.9223 26.0139 74.9524 25.6123C75.0829 25.9838 75.2436 26.3252 75.4444 26.6264C75.6452 26.9276 75.8962 27.1887 76.1874 27.3594C76.4786 27.5401 76.82 27.6405 77.1915 27.6807C77.553 27.7409 77.9345 27.7209 78.3261 27.7008Z" fill="#373660"/>
<path d="M66.7192 15.3705C66.7192 15.3705 70.625 9.20547 71.2375 9.14523C71.85 9.08498 74.1694 8.23152 77.7639 11.9566C81.3686 15.6817 90.7667 12.9908 88.9292 8.78376C87.1018 4.5767 83.9289 7.13708 83.9289 7.13708C83.9289 7.13708 89.4814 6.5246 86.5496 1.76531C83.6177 -2.99399 82.9449 3.59272 78.3061 2.49828C73.6673 1.40384 64.8817 -1.77906 63.1648 2.85974C61.4578 7.49855 62.8635 8.53274 62.8635 8.53274C62.8635 8.53274 56.0258 8.04075 57.1905 14.266C58.4155 20.431 62.6828 21.2844 62.6828 21.2844L66.7192 15.3705Z" fill="#373660"/>
<path d="M68.5728 18.966C68.7567 14.9441 67.0287 11.5979 64.713 11.492C62.3974 11.3861 60.3711 14.5606 60.1872 18.5825C60.0032 22.6044 61.7313 25.9506 64.0469 26.0565C66.3626 26.1624 68.3889 22.9879 68.5728 18.966Z" fill="#BD2710"/>
<path d="M67.8502 18.8835C68.0341 14.8616 66.306 11.5154 63.9904 11.4095C61.6748 11.3036 59.6485 14.4781 59.4645 18.5C59.2806 22.5218 61.0087 25.8681 63.3243 25.974C65.6399 26.0799 67.6662 22.9054 67.8502 18.8835Z" fill="#FF6D60"/>
<path d="M62.4912 16.7354C62.5429 15.6053 62.0593 14.6651 61.4112 14.6355C60.763 14.6058 60.1957 15.4979 60.144 16.6281C60.0923 17.7582 60.5758 18.6983 61.224 18.728C61.8722 18.7576 62.4395 17.8655 62.4912 16.7354Z" fill="white"/>
<path d="M65.5244 23.9457C65.5143 24.1365 67.3518 28.5945 72.2818 27.8013C72.2516 28.4339 72.2516 28.4339 72.2516 28.4339C72.2516 28.4339 67.2112 29.4179 64.8115 24.4578C63.225 20.2507 65.5244 23.9457 65.5244 23.9457Z" fill="#FF6D60"/>
<path d="M73.5283 28.41C73.5521 27.8893 73.0819 27.4448 72.478 27.4172C71.8742 27.3895 71.3654 27.7893 71.3416 28.31C71.3178 28.8308 71.788 29.2753 72.3918 29.3029C72.9956 29.3305 73.5045 28.9308 73.5283 28.41Z" fill="#BD2710"/>
<path d="M64.9821 13.6842C65.0925 13.3027 66.9099 1.1534 75.5148 1.84621C73.587 1.46467 67.4621 -0.272378 64.0282 13.2525C64.6106 13.2826 64.9821 13.6842 64.9821 13.6842Z" fill="#BD2710"/>
<path d="M63.5364 13.333C63.5364 13.333 64.5405 -0.201881 72.1513 1.11345C75.5149 1.84642 75.5149 1.84643 75.5149 1.84643C75.5149 1.84643 66.4381 -1.18587 64.6609 14.3571C64.1991 13.8451 63.5364 13.333 63.5364 13.333Z" fill="#FF6D60"/>
<path d="M47.8326 94.5817C47.8326 94.5817 47.5113 102.072 49.4592 102.393C53.3651 98.9795 81.3586 94.5817 81.3586 94.5817C81.3586 94.5817 47.8326 94.421 47.8326 94.5817Z" fill="#FFC968"/>
<path d="M87.9552 80.1533C87.5736 80.0729 87.1921 79.9826 86.8206 79.8822C86.4491 79.7818 86.0675 79.6814 85.696 79.5709C85.5052 79.5207 85.3245 79.4605 85.1438 79.4002C84.963 79.34 84.7723 79.2898 84.5915 79.2195L84.0393 79.0387L83.487 78.848L83.5172 78.858L83.0352 78.8078C82.8746 78.7978 82.7139 78.7676 82.5533 78.7576C82.3926 78.7375 82.232 78.7174 82.0713 78.6974C81.9107 78.6773 81.75 78.6472 81.5894 78.617C81.75 78.607 81.9107 78.597 82.0713 78.597C82.232 78.597 82.3926 78.5869 82.5533 78.5869C82.7139 78.5869 82.8746 78.5869 83.0352 78.5869L83.5172 78.597H83.5272L83.5473 78.607L84.1096 78.7677L84.6618 78.9383C84.8425 78.9986 85.0333 79.0588 85.214 79.1191C85.3948 79.1793 85.5856 79.2396 85.7663 79.3098C86.1278 79.4404 86.4993 79.5709 86.8607 79.7115C87.2322 79.842 87.5937 79.9826 87.9552 80.1533Z" fill="#FFA28E"/>
<path d="M43.505 40.7935C43.505 40.7935 39.2979 47.079 38.575 54.5191C33.6952 77.6127 32.4301 81.5487 40.5329 84.9726C47.7221 84.9023 52.1199 76.7291 50.3226 72.6225C49.931 67.3712 52.3609 50.2619 52.3609 50.2619C52.3609 50.2619 52.4412 36.3555 43.505 40.7935Z" fill="#FFC968"/>
<path d="M46.3163 39.0264C47.1396 38.7955 47.983 38.6148 48.8465 38.5947C49.2783 38.5846 49.71 38.6047 50.1318 38.685C50.5535 38.7654 50.9752 38.8959 51.3668 39.0967C51.7584 39.2875 52.1198 39.5586 52.4311 39.8598C52.7524 40.161 53.0134 40.5225 53.2343 40.904C53.6761 41.6671 53.9372 42.5105 54.1079 43.364C54.2786 44.2175 54.3388 45.081 54.3589 45.9445C54.3689 46.808 54.3288 47.6715 54.2585 48.5249C54.1079 50.2419 53.8167 51.9287 53.4552 53.6055C53.2745 54.4389 53.0737 55.2723 52.8628 56.1056C52.7524 56.5173 52.6419 56.939 52.5315 57.3407C52.4712 57.5415 52.4411 57.7523 52.3909 57.9531L52.2503 58.5757C52.0696 59.409 51.8989 60.2424 51.7483 61.0758C51.5877 61.9092 51.4471 62.7526 51.3166 63.586C51.0655 65.2628 50.8748 66.9496 50.7844 68.6465C50.7442 69.4899 50.7242 70.3333 50.7543 71.1767C50.7744 71.5985 50.7944 72.0202 50.8446 72.4318C50.8647 72.6427 50.8949 72.8435 50.925 73.0544C50.9451 73.1548 50.9551 73.2552 50.9752 73.3556C50.9953 73.456 51.0153 73.5564 51.0455 73.6468L50.8346 73.4761L61.9898 74.932L67.5725 75.6649L70.3638 76.0264L71.7594 76.1971C72.2213 76.2473 72.6932 76.3075 73.1551 76.3477C72.6832 76.3276 72.2213 76.2875 71.7494 76.2473L70.3437 76.1168L67.5423 75.8356C65.6748 75.6449 63.8072 75.444 61.9497 75.2332L56.357 74.6006L50.7643 73.948L50.6037 73.9279L50.5535 73.7773C50.5133 73.6568 50.4932 73.5564 50.4731 73.4459C50.4531 73.3355 50.433 73.225 50.4129 73.1246C50.3727 72.9138 50.3426 72.6929 50.3225 72.482C50.2723 72.0503 50.2422 71.6185 50.2221 71.1868C50.182 70.3233 50.182 69.4598 50.2221 68.6063C50.2522 67.7428 50.3125 66.8894 50.4029 66.0359C50.4932 65.1824 50.5936 64.329 50.7242 63.4856C50.8547 62.6421 50.9852 61.7887 51.1459 60.9553C51.2965 60.1119 51.4772 59.2785 51.6579 58.4351L51.7985 57.8025C51.8487 57.5917 51.8889 57.3808 51.9491 57.17C52.0696 56.7583 52.1801 56.3466 52.2905 55.935C52.5114 55.1116 52.7122 54.2883 52.903 53.4649C53.2745 51.8082 53.5858 50.1415 53.7665 48.4546C53.9472 46.7778 53.9974 45.0709 53.7364 43.4142C53.5958 42.5909 53.3649 41.7776 52.9733 41.0446C52.7725 40.6831 52.5415 40.3417 52.2503 40.0405C51.9692 39.7393 51.6379 39.4782 51.2764 39.2875C50.5434 38.8858 49.7 38.7152 48.8566 38.7051C47.9931 38.7051 47.1497 38.8356 46.3163 39.0264Z" fill="#ED9636"/>
<path d="M46.6779 73.6272C46.6779 73.6272 48.6158 73.1152 52.4212 74.4506C57.4516 75.6655 72.9244 76.3181 72.9244 76.3181L72.2215 83.2864C72.2215 83.2864 53.7366 88.1059 48.0134 86.8107C42.2902 85.5154 40.4025 85.4452 39.047 84.3407C40.1214 81.4088 46.6779 73.6272 46.6779 73.6272Z" fill="#FFC968"/>
<path d="M34.6289 77.6729C34.6289 77.6729 38.3942 85.344 45.0411 84.8419C51.6981 84.3399 61.2067 83.386 72.382 81.6188C72.2213 83.5667 72.0105 83.9383 72.0105 83.9383C72.0105 83.9383 57.8029 87.5529 52.662 89.0891C46.3565 89.9928 35.402 87.583 34.6289 77.6729Z" fill="#FFA647"/>
<path d="M50.7443 74.0185C50.5636 73.9783 50.3527 73.9482 50.1519 73.9181C49.9511 73.898 49.7402 73.8679 49.5394 73.8578C49.1277 73.8277 48.7161 73.8277 48.2944 73.8478C47.471 73.888 46.6477 74.0285 45.8444 74.2595C45.4428 74.38 45.0613 74.5205 44.6797 74.6912C44.2982 74.8619 43.9367 75.0627 43.5752 75.2736C42.8623 75.7154 42.2197 76.2475 41.6374 76.86L41.1855 77.3319L41.4466 76.7395C41.8583 75.7957 42.3001 74.8619 42.7519 73.9382C43.2037 73.0144 43.6756 72.0907 44.1576 71.187C43.7058 72.1108 43.274 73.0546 42.8623 73.9884C42.4406 74.9322 42.039 75.876 41.6675 76.8299L41.4767 76.7094C42.049 76.0668 42.6916 75.4945 43.4146 75.0125C43.776 74.7715 44.1476 74.5607 44.5391 74.3699C44.9307 74.1791 45.3324 74.0185 45.734 73.8779C46.5573 73.6068 47.4108 73.4261 48.2743 73.3458C48.706 73.3056 49.1378 73.2956 49.5796 73.3056C49.8005 73.3056 50.0113 73.3257 50.2322 73.3458C50.3427 73.3558 50.4531 73.3658 50.5636 73.3759C50.674 73.3859 50.7744 73.406 50.8949 73.4261L50.7443 74.0185Z" fill="#ED9636"/>
<path d="M43.1535 83.6778C39.9807 83.1858 37.1693 79.772 37.9022 67.201C38.9465 53.0637 43.766 42.7921 45.1215 40.1514C44.6195 40.2919 44.0773 40.5028 43.5049 40.7839C43.5049 40.7839 39.2979 47.0694 38.575 54.5096C34.7093 72.8037 33.1128 79.0792 36.6471 82.5934C40.3421 83.2461 44.5191 83.969 43.1535 83.6778Z" fill="#FFA647"/>
<path d="M71.2374 9.1456C71.5487 8.86446 71.8901 8.61344 72.2415 8.38251C72.5929 8.15157 72.9544 7.94072 73.3359 7.74995C74.089 7.37844 74.8923 7.08726 75.7357 6.94669C76.569 6.79608 77.4426 6.80612 78.276 6.99689C78.3864 7.01697 78.4868 7.04709 78.5872 7.07722C78.6876 7.10734 78.7981 7.13746 78.8985 7.17762L79.1997 7.28807C79.3001 7.32824 79.3905 7.37844 79.4909 7.4186L79.6415 7.48889L79.7821 7.56921L80.0632 7.71982C80.2439 7.83027 80.4247 7.95076 80.5954 8.06121C81.2781 8.53312 81.981 8.98495 82.7039 9.38658C83.4269 9.79825 84.1799 10.1597 84.9631 10.4107C85.3547 10.5413 85.7563 10.6316 86.1579 10.6718C86.5596 10.712 86.9712 10.6818 87.3628 10.5513C87.5536 10.481 87.7444 10.4007 87.905 10.2802L87.9653 10.24L88.0255 10.1898C88.0657 10.1597 88.1058 10.1296 88.146 10.0894C88.2163 10.0191 88.2966 9.94886 88.3568 9.86853C88.6179 9.54723 88.8087 9.17572 88.9492 8.78414C88.8388 9.18577 88.6681 9.57735 88.4171 9.91874C88.1661 10.2601 87.8146 10.5413 87.413 10.7019C87.0114 10.8525 86.5696 10.9027 86.1479 10.8826C85.7161 10.8626 85.3045 10.7722 84.8928 10.6517C84.0795 10.4107 83.3064 10.0493 82.5634 9.64764C81.8203 9.24601 81.1175 8.79418 80.4247 8.31223C80.254 8.19174 80.0833 8.09133 79.9126 7.97084L79.6415 7.82023L79.511 7.74995L79.3704 7.6897C79.0089 7.50897 78.6173 7.38848 78.2157 7.28807C77.4225 7.0973 76.5891 7.07722 75.7758 7.18767C74.9625 7.30815 74.1593 7.54913 73.4062 7.89051C72.6331 8.22186 71.9001 8.64357 71.2374 9.1456Z" fill="#4D5282"/>
<path d="M70.7052 9.29665C70.7855 8.87494 70.8859 8.46327 70.9964 8.05161C71.1169 7.63994 71.2474 7.23831 71.408 6.83668C71.5687 6.44509 71.7494 6.05351 71.9603 5.682C72.1711 5.31049 72.4222 4.94903 72.7334 4.64781C72.7736 4.60765 72.8138 4.56748 72.8539 4.53736L72.9844 4.42691C73.0648 4.35663 73.1652 4.29638 73.2555 4.23614C73.4463 4.12569 73.6572 4.02528 73.8781 3.98512C74.099 3.92488 74.3299 3.93492 74.5508 3.955C74.6612 3.97508 74.7717 4.0052 74.8821 4.02528C74.9825 4.06545 75.093 4.10561 75.1934 4.14577C75.9665 4.48716 76.7397 4.85866 77.5128 5.21009C78.2859 5.56151 79.0591 5.91294 79.8422 6.23424C80.6254 6.56558 81.4086 6.8668 82.2119 7.1379C82.6135 7.26843 83.0151 7.38892 83.4268 7.48933C83.8384 7.58973 84.2501 7.66002 84.6718 7.69014C84.8827 7.70018 85.0935 7.70018 85.2943 7.66002C85.4952 7.61986 85.696 7.55961 85.8566 7.42908C86.0173 7.29855 86.1277 7.11782 86.1679 6.90697C86.2181 6.70615 86.2081 6.48526 86.188 6.2744C86.2281 6.48526 86.2482 6.69611 86.2081 6.90697C86.1679 7.11782 86.0675 7.32868 85.8968 7.46925C85.7361 7.61986 85.5152 7.70018 85.3044 7.75038C85.0935 7.80059 84.8726 7.81063 84.6618 7.81063C84.23 7.80059 83.8083 7.7303 83.3866 7.64998C82.9649 7.55961 82.5532 7.44916 82.1516 7.32867C80.525 6.82664 78.9587 6.14387 77.4124 5.44102L75.103 4.36667C75.0127 4.3265 74.9123 4.29638 74.8219 4.25622C74.7215 4.2261 74.6311 4.20602 74.5307 4.18594C74.3299 4.16585 74.1291 4.15581 73.9383 4.19598C73.5467 4.26626 73.1953 4.4972 72.8941 4.77834C72.5928 5.05948 72.3418 5.40086 72.1209 5.75229C71.9 6.11375 71.7193 6.48526 71.5486 6.87684C71.1771 7.67006 70.9161 8.47331 70.7052 9.29665Z" fill="#4D5282"/>
<path d="M86.9813 115.497H34.3278V102.635H86.9813C90.5357 102.635 93.4073 105.516 93.4073 109.061C93.4073 112.615 90.5357 115.497 86.9813 115.497Z" fill="#657296"/>
<path d="M64.6006 102.635H34.4885V115.497H64.6006V102.635Z" fill="#4D5282"/>
<path d="M174.606 92.3025H26.4157C23.0219 92.3025 20.2708 89.5514 20.2708 86.1576C20.2708 82.7639 23.0219 80.0127 26.4157 80.0127H174.606C178 80.0127 180.751 82.7639 180.751 86.1576C180.751 89.5514 178 92.3025 174.606 92.3025Z" fill="#FF6D60"/>
<path d="M26.4156 92.0312L37.6412 176.102C37.7918 177.196 38.7256 178.01 39.82 178.01C41.0952 178.01 42.0992 176.935 42.0189 175.67L36.8279 92.0312" fill="#FF6D60"/>
<path d="M42.1696 89.4609L53.3951 171.664C53.5457 172.759 54.4795 173.572 55.5739 173.572C56.8491 173.572 57.8531 172.498 57.7728 171.232L52.5818 90.1738L42.1696 89.4609Z" fill="#BD2710"/>
<path d="M174.606 92.0312L163.381 176.102C163.23 177.196 162.296 178.01 161.202 178.01C159.927 178.01 158.923 176.935 159.003 175.67L164.194 92.0312" fill="#FF6D60"/>
<path d="M158.853 89.4609L147.627 171.664C147.477 172.759 146.543 173.572 145.448 173.572C144.173 173.572 143.169 172.498 143.249 171.222L148.44 91.2381L158.853 89.4609Z" fill="#BD2710"/>
<path d="M180.139 88.8291H20.8832C21.8772 90.8874 23.9757 92.3032 26.4156 92.3032H174.606C177.036 92.3032 179.145 90.8874 180.139 88.8291Z" fill="#E53E38"/>
<path d="M169.707 92.3023L169.415 92.0312H164.194L159.003 175.67C158.943 176.584 159.455 177.397 160.218 177.779L169.707 92.3023Z" fill="#E53E38"/>
<path d="M31.3557 92.3023L31.6469 92.0312H36.8681L42.0591 175.67C42.1193 176.584 41.6073 177.397 40.8442 177.779L31.3557 92.3023Z" fill="#E53E38"/>
<path d="M47.6418 92.4336H52.853L57.7026 171.273C57.7629 172.187 57.2508 173 56.4877 173.382L47.6418 92.4336Z" fill="#971110"/>
<path d="M153.2 92.1729H147.988L143.139 171.012C143.079 171.926 143.591 172.739 144.354 173.121L153.2 92.1729Z" fill="#971110"/>
<path d="M143.269 45.3516L128.831 80.3233H62.9236L67.6829 78.4357H95.2446L108.82 45.8737L143.269 45.3516Z" fill="#B5B5B5"/>
<path d="M143.038 45.3518L140.277 44.3276L107.203 44.8397L108.579 45.8739L143.038 45.3518Z" fill="#F0F0F0"/>
<path d="M107.313 44.8496L93.1761 78.6065L94.9835 80.2431L108.87 45.8738L107.313 44.8496Z" fill="#9C9C9C"/>
<path d="M124.576 63.1661C125.352 60.0508 124.634 57.1894 122.971 56.775C121.308 56.3607 119.331 58.5504 118.555 61.6657C117.779 64.7811 118.497 67.6425 120.16 68.0568C121.822 68.4712 123.799 66.2815 124.576 63.1661Z" fill="white"/>
<path d="M86.8106 63.9675C86.7704 62.0899 86.7805 60.2223 86.8206 58.3547C86.8608 56.4872 86.921 54.6196 87.0014 52.752C87.0817 50.8844 87.1921 49.0169 87.3227 47.1493C87.4532 45.2817 87.6038 43.4142 87.8147 41.5566C87.8548 43.4343 87.8448 45.3018 87.8046 47.1694C87.7645 49.037 87.7042 50.9045 87.6239 52.7721C87.5436 54.6397 87.4331 56.5072 87.3026 58.3748C87.1721 60.2424 87.0215 62.1099 86.8106 63.9675Z" fill="#ED9636"/>
<path d="M86.9512 54.8307C87.0817 54.2081 87.2725 53.6157 87.4833 53.0233C87.6942 52.4309 87.9251 51.8586 88.1761 51.2863C88.4272 50.714 88.6983 50.1517 88.9894 49.5995C89.2806 49.0472 89.5919 48.505 89.9634 47.9829C89.8329 48.6054 89.6421 49.1978 89.4312 49.7902C89.2204 50.3826 88.9894 50.955 88.7384 51.5273C88.4874 52.0996 88.2163 52.6619 87.9251 53.2141C87.6339 53.7664 87.3227 54.3086 86.9512 54.8307Z" fill="#ED9636"/>
<path d="M214.82 64.26L217.6 53.82H220.08L216.1 68H213.62L210.18 57.28L206.74 68H204.28L200.26 53.82H202.78L205.62 64.18L208.94 53.82H211.44L214.82 64.26ZM224.152 62.28V68H221.832V53.52H224.152V59.2C224.779 58.3867 225.705 57.98 226.932 57.98C228.079 57.98 228.959 58.34 229.572 59.06C230.185 59.78 230.492 60.7067 230.492 61.84V68H228.172V62.24C228.172 61.5867 228.012 61.0667 227.692 60.68C227.372 60.28 226.865 60.08 226.172 60.08C225.559 60.08 225.072 60.2867 224.712 60.7C224.365 61.1133 224.179 61.64 224.152 62.28ZM232.716 65.36C232.716 64.5333 232.983 63.8733 233.516 63.38C234.063 62.8733 234.776 62.5533 235.656 62.42L238.156 62.04C238.636 61.9733 238.876 61.74 238.876 61.34C238.876 60.9 238.723 60.5467 238.416 60.28C238.11 60 237.65 59.86 237.036 59.86C236.45 59.86 235.983 60.0267 235.636 60.36C235.29 60.68 235.09 61.1 235.036 61.62L232.916 61.14C233.01 60.26 233.43 59.5133 234.176 58.9C234.923 58.2733 235.87 57.96 237.016 57.96C238.43 57.96 239.47 58.3 240.136 58.98C240.816 59.66 241.156 60.5333 241.156 61.6V66.44C241.156 67.08 241.196 67.6 241.276 68H239.116C239.05 67.8 239.016 67.3867 239.016 66.76C238.376 67.7867 237.376 68.3 236.016 68.3C235.03 68.3 234.23 68.0133 233.616 67.44C233.016 66.8533 232.716 66.16 232.716 65.36ZM236.456 66.48C237.176 66.48 237.756 66.2867 238.196 65.9C238.65 65.5 238.876 64.8533 238.876 63.96V63.52L236.336 63.9C235.47 64.0467 235.036 64.4867 235.036 65.22C235.036 65.5667 235.163 65.8667 235.416 66.12C235.67 66.36 236.016 66.48 236.456 66.48ZM246.862 55.28V58.26H248.882V60.32H246.862V64.84C246.862 65.2667 246.962 65.58 247.162 65.78C247.362 65.9667 247.675 66.06 248.102 66.06C248.369 66.06 248.635 66.0333 248.902 65.98V67.9C248.555 68.0467 248.082 68.12 247.482 68.12C246.575 68.12 245.862 67.8667 245.342 67.36C244.822 66.84 244.562 66.1267 244.562 65.22V60.32H242.762V58.26H243.262C243.755 58.26 244.129 58.12 244.382 57.84C244.635 57.56 244.762 57.1933 244.762 56.74V55.28H246.862ZM257.748 63.1C257.748 64.0333 257.988 64.7867 258.468 65.36C258.948 65.92 259.581 66.2 260.368 66.2C261.128 66.2 261.748 65.9133 262.228 65.34C262.708 64.7667 262.948 64.0133 262.948 63.08C262.948 62.16 262.714 61.4267 262.248 60.88C261.781 60.3333 261.161 60.06 260.388 60.06C259.614 60.06 258.981 60.34 258.488 60.9C257.994 61.4467 257.748 62.18 257.748 63.1ZM265.188 53.52V66.22C265.188 66.8733 265.221 67.4667 265.288 68H263.068C263.001 67.6267 262.968 67.2067 262.968 66.74C262.728 67.18 262.354 67.54 261.848 67.82C261.341 68.1 260.761 68.24 260.108 68.24C258.721 68.24 257.594 67.7533 256.728 66.78C255.861 65.8067 255.428 64.58 255.428 63.1C255.428 61.6733 255.861 60.4667 256.728 59.48C257.608 58.4933 258.721 58 260.068 58C260.841 58 261.461 58.14 261.928 58.42C262.408 58.7 262.741 59.0267 262.928 59.4V53.52H265.188ZM270.559 65.4C271.092 65.9467 271.739 66.22 272.499 66.22C273.259 66.22 273.899 65.9467 274.419 65.4C274.952 64.8533 275.219 64.0933 275.219 63.12C275.219 62.16 274.952 61.4133 274.419 60.88C273.899 60.3333 273.259 60.06 272.499 60.06C271.739 60.06 271.092 60.3333 270.559 60.88C270.039 61.4133 269.779 62.16 269.779 63.12C269.779 64.08 270.039 64.84 270.559 65.4ZM272.499 57.96C273.965 57.96 275.172 58.4467 276.119 59.42C277.079 60.3933 277.559 61.6267 277.559 63.12C277.559 64.6133 277.079 65.8533 276.119 66.84C275.172 67.8133 273.965 68.3 272.499 68.3C271.045 68.3 269.839 67.8133 268.879 66.84C267.932 65.8533 267.459 64.6133 267.459 63.12C267.459 61.6267 267.932 60.3933 268.879 59.42C269.839 58.4467 271.045 57.96 272.499 57.96ZM287.722 71.94H285.242L287.582 66.84L283.422 58.26H286.042L288.842 64.42L291.462 58.26H293.922L287.722 71.94ZM297.512 65.4C298.045 65.9467 298.692 66.22 299.452 66.22C300.212 66.22 300.852 65.9467 301.372 65.4C301.905 64.8533 302.172 64.0933 302.172 63.12C302.172 62.16 301.905 61.4133 301.372 60.88C300.852 60.3333 300.212 60.06 299.452 60.06C298.692 60.06 298.045 60.3333 297.512 60.88C296.992 61.4133 296.732 62.16 296.732 63.12C296.732 64.08 296.992 64.84 297.512 65.4ZM299.452 57.96C300.919 57.96 302.125 58.4467 303.072 59.42C304.032 60.3933 304.512 61.6267 304.512 63.12C304.512 64.6133 304.032 65.8533 303.072 66.84C302.125 67.8133 300.919 68.3 299.452 68.3C297.999 68.3 296.792 67.8133 295.832 66.84C294.885 65.8533 294.412 64.6133 294.412 63.12C294.412 61.6267 294.885 60.3933 295.832 59.42C296.792 58.4467 297.999 57.96 299.452 57.96ZM313.035 66.92C312.809 67.3467 312.435 67.68 311.915 67.92C311.409 68.16 310.862 68.28 310.275 68.28C309.142 68.28 308.242 67.9133 307.575 67.18C306.922 66.4467 306.595 65.52 306.595 64.4V58.26H308.915V63.98C308.915 64.6333 309.075 65.1667 309.395 65.58C309.715 65.9933 310.209 66.2 310.875 66.2C311.529 66.2 312.029 66 312.375 65.6C312.735 65.2 312.915 64.6733 312.915 64.02V58.26H315.235V66.22C315.235 66.8067 315.269 67.4 315.335 68H313.115C313.062 67.7067 313.035 67.3467 313.035 66.92ZM207.02 83.26H209.42L211.72 90L213.66 83.26H216.02L212.9 93H210.58L208.16 86L205.8 93H203.42L200.26 83.26H202.74L204.72 90L207.02 83.26ZM217.13 90.36C217.13 89.5333 217.397 88.8733 217.93 88.38C218.477 87.8733 219.19 87.5533 220.07 87.42L222.57 87.04C223.05 86.9733 223.29 86.74 223.29 86.34C223.29 85.9 223.137 85.5467 222.83 85.28C222.524 85 222.064 84.86 221.45 84.86C220.864 84.86 220.397 85.0267 220.05 85.36C219.704 85.68 219.504 86.1 219.45 86.62L217.33 86.14C217.424 85.26 217.844 84.5133 218.59 83.9C219.337 83.2733 220.284 82.96 221.43 82.96C222.844 82.96 223.884 83.3 224.55 83.98C225.23 84.66 225.57 85.5333 225.57 86.6V91.44C225.57 92.08 225.61 92.6 225.69 93H223.53C223.464 92.8 223.43 92.3867 223.43 91.76C222.79 92.7867 221.79 93.3 220.43 93.3C219.444 93.3 218.644 93.0133 218.03 92.44C217.43 91.8533 217.13 91.16 217.13 90.36ZM220.87 91.48C221.59 91.48 222.17 91.2867 222.61 90.9C223.064 90.5 223.29 89.8533 223.29 88.96V88.52L220.75 88.9C219.884 89.0467 219.45 89.4867 219.45 90.22C219.45 90.5667 219.577 90.8667 219.83 91.12C220.084 91.36 220.43 91.48 220.87 91.48ZM230.695 87.38V93H228.375V83.26H230.635V84.56C230.942 84.0267 231.348 83.6333 231.855 83.38C232.375 83.1133 232.928 82.98 233.515 82.98C234.662 82.98 235.535 83.34 236.135 84.06C236.735 84.78 237.035 85.7067 237.035 86.84V93H234.715V87.24C234.715 86.5867 234.555 86.0667 234.235 85.68C233.915 85.28 233.408 85.08 232.715 85.08C232.075 85.08 231.575 85.3 231.215 85.74C230.868 86.1667 230.695 86.7133 230.695 87.38ZM242.799 80.28V83.26H244.819V85.32H242.799V89.84C242.799 90.2667 242.899 90.58 243.099 90.78C243.299 90.9667 243.613 91.06 244.039 91.06C244.306 91.06 244.573 91.0333 244.839 90.98V92.9C244.493 93.0467 244.019 93.12 243.419 93.12C242.513 93.12 241.799 92.8667 241.279 92.36C240.759 91.84 240.499 91.1267 240.499 90.22V85.32H238.699V83.26H239.199C239.693 83.26 240.066 83.12 240.319 82.84C240.573 82.56 240.699 82.1933 240.699 81.74V80.28H242.799ZM255.065 80.28V83.26H257.085V85.32H255.065V89.84C255.065 90.2667 255.165 90.58 255.365 90.78C255.565 90.9667 255.878 91.06 256.305 91.06C256.572 91.06 256.838 91.0333 257.105 90.98V92.9C256.758 93.0467 256.285 93.12 255.685 93.12C254.778 93.12 254.065 92.8667 253.545 92.36C253.025 91.84 252.765 91.1267 252.765 90.22V85.32H250.965V83.26H251.465C251.958 83.26 252.332 83.12 252.585 82.84C252.838 82.56 252.965 82.1933 252.965 81.74V80.28H255.065ZM261.711 90.4C262.244 90.9467 262.891 91.22 263.651 91.22C264.411 91.22 265.051 90.9467 265.571 90.4C266.104 89.8533 266.371 89.0933 266.371 88.12C266.371 87.16 266.104 86.4133 265.571 85.88C265.051 85.3333 264.411 85.06 263.651 85.06C262.891 85.06 262.244 85.3333 261.711 85.88C261.191 86.4133 260.931 87.16 260.931 88.12C260.931 89.08 261.191 89.84 261.711 90.4ZM263.651 82.96C265.118 82.96 266.324 83.4467 267.271 84.42C268.231 85.3933 268.711 86.6267 268.711 88.12C268.711 89.6133 268.231 90.8533 267.271 91.84C266.324 92.8133 265.118 93.3 263.651 93.3C262.198 93.3 260.991 92.8133 260.031 91.84C259.084 90.8533 258.611 89.6133 258.611 88.12C258.611 86.6267 259.084 85.3933 260.031 84.42C260.991 83.4467 262.198 82.96 263.651 82.96ZM284.814 93L280.394 86.86L278.514 88.92V93H276.114V78.82H278.514V85.62L284.614 78.82H287.774L282.034 85.08L287.834 93H284.814ZM291.672 87.38V93H289.352V83.26H291.612V84.56C291.918 84.0267 292.325 83.6333 292.832 83.38C293.352 83.1133 293.905 82.98 294.492 82.98C295.638 82.98 296.512 83.34 297.112 84.06C297.712 84.78 298.012 85.7067 298.012 86.84V93H295.692V87.24C295.692 86.5867 295.532 86.0667 295.212 85.68C294.892 85.28 294.385 85.08 293.692 85.08C293.052 85.08 292.552 85.3 292.192 85.74C291.845 86.1667 291.672 86.7133 291.672 87.38ZM303.176 90.4C303.709 90.9467 304.356 91.22 305.116 91.22C305.876 91.22 306.516 90.9467 307.036 90.4C307.569 89.8533 307.836 89.0933 307.836 88.12C307.836 87.16 307.569 86.4133 307.036 85.88C306.516 85.3333 305.876 85.06 305.116 85.06C304.356 85.06 303.709 85.3333 303.176 85.88C302.656 86.4133 302.396 87.16 302.396 88.12C302.396 89.08 302.656 89.84 303.176 90.4ZM305.116 82.96C306.583 82.96 307.789 83.4467 308.736 84.42C309.696 85.3933 310.176 86.6267 310.176 88.12C310.176 89.6133 309.696 90.8533 308.736 91.84C307.789 92.8133 306.583 93.3 305.116 93.3C303.663 93.3 302.456 92.8133 301.496 91.84C300.549 90.8533 300.076 89.6133 300.076 88.12C300.076 86.6267 300.549 85.3933 301.496 84.42C302.456 83.4467 303.663 82.96 305.116 82.96ZM317.704 83.26H320.104L322.404 90L324.344 83.26H326.704L323.584 93H321.264L318.844 86L316.484 93H314.104L310.944 83.26H313.424L315.404 90L317.704 83.26ZM333.009 88.8H331.009C330.983 88.4533 330.969 88.2 330.969 88.04C330.969 86.8133 331.509 85.8067 332.589 85.02L333.509 84.36C334.136 83.9067 334.449 83.3267 334.449 82.62C334.449 82.06 334.263 81.5867 333.889 81.2C333.516 80.8 332.983 80.6 332.289 80.6C331.583 80.6 331.029 80.8267 330.629 81.28C330.229 81.7333 330.029 82.2667 330.029 82.88C330.029 83.2533 330.069 83.5533 330.149 83.78L327.889 83.62C327.809 83.34 327.769 83.0333 327.769 82.7C327.769 81.6067 328.169 80.64 328.969 79.8C329.769 78.9467 330.876 78.52 332.289 78.52C333.703 78.52 334.816 78.9133 335.629 79.7C336.443 80.4867 336.849 81.4267 336.849 82.52C336.849 83.92 336.183 85.0933 334.849 86.04L333.989 86.64C333.323 87.1067 332.989 87.74 332.989 88.54C332.989 88.6333 332.996 88.72 333.009 88.8ZM330.989 92.72C330.709 92.4267 330.569 92.08 330.569 91.68C330.569 91.28 330.709 90.9333 330.989 90.64C331.283 90.3467 331.629 90.2 332.029 90.2C332.429 90.2 332.769 90.3467 333.049 90.64C333.343 90.9333 333.489 91.28 333.489 91.68C333.489 92.08 333.343 92.4267 333.049 92.72C332.769 93 332.429 93.14 332.029 93.14C331.616 93.14 331.269 93 330.989 92.72Z" fill="white"/>
<path d="M207.588 109.328L206.356 109.762C206.291 109.333 206.081 108.945 205.726 108.6C205.371 108.245 204.881 108.068 204.256 108.068C203.705 108.068 203.248 108.227 202.884 108.544C202.52 108.861 202.338 109.253 202.338 109.72C202.338 110.084 202.445 110.392 202.66 110.644C202.884 110.896 203.201 111.069 203.612 111.162L205.096 111.484C205.917 111.661 206.552 111.997 207 112.492C207.448 112.977 207.672 113.57 207.672 114.27C207.672 115.073 207.355 115.763 206.72 116.342C206.085 116.921 205.259 117.21 204.242 117.21C203.131 117.21 202.259 116.921 201.624 116.342C200.999 115.754 200.635 115.059 200.532 114.256L201.848 113.836C201.904 114.433 202.137 114.937 202.548 115.348C202.959 115.759 203.519 115.964 204.228 115.964C204.881 115.964 205.385 115.815 205.74 115.516C206.095 115.217 206.272 114.839 206.272 114.382C206.272 114.009 206.146 113.687 205.894 113.416C205.642 113.136 205.273 112.945 204.788 112.842L203.374 112.534C202.637 112.375 202.049 112.063 201.61 111.596C201.171 111.129 200.952 110.537 200.952 109.818C200.952 109.034 201.269 108.348 201.904 107.76C202.548 107.163 203.323 106.864 204.228 106.864C205.245 106.864 206.025 107.111 206.566 107.606C207.107 108.101 207.448 108.675 207.588 109.328ZM210.668 115.404C211.079 115.824 211.578 116.034 212.166 116.034C212.754 116.034 213.249 115.824 213.65 115.404C214.061 114.975 214.266 114.382 214.266 113.626C214.266 112.879 214.061 112.296 213.65 111.876C213.249 111.447 212.754 111.232 212.166 111.232C211.578 111.232 211.079 111.447 210.668 111.876C210.267 112.296 210.066 112.879 210.066 113.626C210.066 114.382 210.267 114.975 210.668 115.404ZM209.688 111.078C210.341 110.397 211.167 110.056 212.166 110.056C213.165 110.056 213.986 110.397 214.63 111.078C215.283 111.75 215.61 112.599 215.61 113.626C215.61 114.662 215.288 115.521 214.644 116.202C214 116.874 213.174 117.21 212.166 117.21C211.158 117.21 210.332 116.874 209.688 116.202C209.044 115.521 208.722 114.662 208.722 113.626C208.722 112.599 209.044 111.75 209.688 111.078ZM218.596 117H217.294V110.266H218.554V111.162C218.759 110.807 219.048 110.537 219.422 110.35C219.795 110.163 220.187 110.07 220.598 110.07C221.036 110.07 221.438 110.177 221.802 110.392C222.166 110.607 222.436 110.924 222.614 111.344C223.08 110.495 223.832 110.07 224.868 110.07C225.512 110.07 226.058 110.289 226.506 110.728C226.963 111.167 227.192 111.801 227.192 112.632V117H225.89V112.772C225.89 112.305 225.768 111.932 225.526 111.652C225.292 111.372 224.938 111.232 224.462 111.232C224.004 111.232 223.631 111.395 223.342 111.722C223.052 112.039 222.908 112.441 222.908 112.926V117H221.592V112.772C221.592 112.305 221.47 111.932 221.228 111.652C220.994 111.372 220.64 111.232 220.164 111.232C219.697 111.232 219.319 111.391 219.03 111.708C218.74 112.025 218.596 112.436 218.596 112.94V117ZM230.152 112.94H233.834C233.815 112.436 233.647 112.025 233.33 111.708C233.012 111.381 232.564 111.218 231.986 111.218C231.463 111.218 231.034 111.391 230.698 111.736C230.362 112.072 230.18 112.473 230.152 112.94ZM234.03 114.69L235.164 115.082C234.968 115.707 234.604 116.221 234.072 116.622C233.54 117.014 232.896 117.21 232.14 117.21C231.197 117.21 230.394 116.888 229.732 116.244C229.078 115.591 228.752 114.713 228.752 113.612C228.752 112.585 229.069 111.736 229.704 111.064C230.338 110.392 231.094 110.056 231.972 110.056C232.989 110.056 233.782 110.378 234.352 111.022C234.921 111.657 235.206 112.511 235.206 113.584C235.206 113.752 235.196 113.892 235.178 114.004H230.11C230.119 114.601 230.315 115.091 230.698 115.474C231.09 115.857 231.57 116.048 232.14 116.048C233.101 116.048 233.731 115.595 234.03 114.69ZM241.772 115.404C242.182 115.824 242.682 116.034 243.27 116.034C243.858 116.034 244.352 115.824 244.754 115.404C245.164 114.975 245.37 114.382 245.37 113.626C245.37 112.879 245.164 112.296 244.754 111.876C244.352 111.447 243.858 111.232 243.27 111.232C242.682 111.232 242.182 111.447 241.772 111.876C241.37 112.296 241.17 112.879 241.17 113.626C241.17 114.382 241.37 114.975 241.772 115.404ZM240.792 111.078C241.445 110.397 242.271 110.056 243.27 110.056C244.268 110.056 245.09 110.397 245.734 111.078C246.387 111.75 246.714 112.599 246.714 113.626C246.714 114.662 246.392 115.521 245.748 116.202C245.104 116.874 244.278 117.21 243.27 117.21C242.262 117.21 241.436 116.874 240.792 116.202C240.148 115.521 239.826 114.662 239.826 113.626C239.826 112.599 240.148 111.75 240.792 111.078ZM251.785 111.456H250.161V117H248.803V111.456H247.557V110.266H248.803V109.132C248.803 108.413 249.013 107.849 249.433 107.438C249.853 107.027 250.381 106.822 251.015 106.822C251.417 106.822 251.678 106.869 251.799 106.962V108.138C251.659 108.082 251.468 108.054 251.225 108.054C250.936 108.054 250.684 108.143 250.469 108.32C250.264 108.488 250.161 108.782 250.161 109.202V110.266H251.785V111.456ZM258.46 108.138V110.266H259.916V111.456H258.46V114.956C258.46 115.273 258.53 115.507 258.67 115.656C258.82 115.805 259.062 115.88 259.398 115.88C259.594 115.88 259.767 115.861 259.916 115.824V116.944C259.692 117.028 259.394 117.07 259.02 117.07C258.442 117.07 257.984 116.902 257.648 116.566C257.312 116.23 257.144 115.759 257.144 115.152V111.456H255.856V110.266H256.22C256.566 110.266 256.822 110.173 256.99 109.986C257.168 109.79 257.256 109.538 257.256 109.23V108.138H258.46ZM262.989 113.038V117H261.673V106.864H262.989V111.05C263.437 110.397 264.118 110.07 265.033 110.07C265.807 110.07 266.4 110.317 266.811 110.812C267.231 111.307 267.441 111.946 267.441 112.73V117H266.125V112.954C266.125 111.825 265.602 111.26 264.557 111.26C264.071 111.26 263.693 111.428 263.423 111.764C263.152 112.091 263.007 112.515 262.989 113.038ZM270.388 112.94H274.07C274.051 112.436 273.883 112.025 273.566 111.708C273.249 111.381 272.801 111.218 272.222 111.218C271.699 111.218 271.27 111.391 270.934 111.736C270.598 112.072 270.416 112.473 270.388 112.94ZM274.266 114.69L275.4 115.082C275.204 115.707 274.84 116.221 274.308 116.622C273.776 117.014 273.132 117.21 272.376 117.21C271.433 117.21 270.631 116.888 269.968 116.244C269.315 115.591 268.988 114.713 268.988 113.612C268.988 112.585 269.305 111.736 269.94 111.064C270.575 110.392 271.331 110.056 272.208 110.056C273.225 110.056 274.019 110.378 274.588 111.022C275.157 111.657 275.442 112.511 275.442 113.584C275.442 113.752 275.433 113.892 275.414 114.004H270.346C270.355 114.601 270.551 115.091 270.934 115.474C271.326 115.857 271.807 116.048 272.376 116.048C273.337 116.048 273.967 115.595 274.266 114.69ZM281.924 117H280.622V110.266H281.882V111.162C282.087 110.807 282.377 110.537 282.75 110.35C283.123 110.163 283.515 110.07 283.926 110.07C284.365 110.07 284.766 110.177 285.13 110.392C285.494 110.607 285.765 110.924 285.942 111.344C286.409 110.495 287.16 110.07 288.196 110.07C288.84 110.07 289.386 110.289 289.834 110.728C290.291 111.167 290.52 111.801 290.52 112.632V117H289.218V112.772C289.218 112.305 289.097 111.932 288.854 111.652C288.621 111.372 288.266 111.232 287.79 111.232C287.333 111.232 286.959 111.395 286.67 111.722C286.381 112.039 286.236 112.441 286.236 112.926V117H284.92V112.772C284.92 112.305 284.799 111.932 284.556 111.652C284.323 111.372 283.968 111.232 283.492 111.232C283.025 111.232 282.647 111.391 282.358 111.708C282.069 112.025 281.924 112.436 281.924 112.94V117ZM294.012 115.404C294.423 115.824 294.922 116.034 295.51 116.034C296.098 116.034 296.593 115.824 296.994 115.404C297.405 114.975 297.61 114.382 297.61 113.626C297.61 112.879 297.405 112.296 296.994 111.876C296.593 111.447 296.098 111.232 295.51 111.232C294.922 111.232 294.423 111.447 294.012 111.876C293.611 112.296 293.41 112.879 293.41 113.626C293.41 114.382 293.611 114.975 294.012 115.404ZM293.032 111.078C293.685 110.397 294.511 110.056 295.51 110.056C296.509 110.056 297.33 110.397 297.974 111.078C298.627 111.75 298.954 112.599 298.954 113.626C298.954 114.662 298.632 115.521 297.988 116.202C297.344 116.874 296.518 117.21 295.51 117.21C294.502 117.21 293.676 116.874 293.032 116.202C292.388 115.521 292.066 114.662 292.066 113.626C292.066 112.599 292.388 111.75 293.032 111.078ZM300.008 115.25L301.198 114.83C301.244 115.194 301.403 115.497 301.674 115.74C301.944 115.973 302.308 116.09 302.766 116.09C303.12 116.09 303.4 116.006 303.606 115.838C303.811 115.661 303.914 115.446 303.914 115.194C303.914 114.746 303.624 114.457 303.046 114.326L301.898 114.074C301.375 113.962 300.964 113.738 300.666 113.402C300.367 113.066 300.218 112.66 300.218 112.184C300.218 111.605 300.451 111.106 300.918 110.686C301.394 110.266 301.958 110.056 302.612 110.056C303.041 110.056 303.424 110.121 303.76 110.252C304.096 110.373 304.357 110.537 304.544 110.742C304.73 110.947 304.87 111.139 304.964 111.316C305.057 111.493 305.127 111.675 305.174 111.862L304.012 112.296C303.993 112.184 303.96 112.077 303.914 111.974C303.867 111.862 303.792 111.741 303.69 111.61C303.596 111.479 303.456 111.377 303.27 111.302C303.083 111.218 302.864 111.176 302.612 111.176C302.285 111.176 302.014 111.265 301.8 111.442C301.594 111.619 301.492 111.829 301.492 112.072C301.492 112.501 301.748 112.772 302.262 112.884L303.354 113.122C303.951 113.253 304.408 113.495 304.726 113.85C305.052 114.195 305.216 114.62 305.216 115.124C305.216 115.656 304.996 116.137 304.558 116.566C304.128 116.995 303.526 117.21 302.752 117.21C301.921 117.21 301.272 117.005 300.806 116.594C300.339 116.174 300.073 115.726 300.008 115.25ZM308.732 108.138V110.266H310.188V111.456H308.732V114.956C308.732 115.273 308.802 115.507 308.942 115.656C309.091 115.805 309.334 115.88 309.67 115.88C309.866 115.88 310.038 115.861 310.188 115.824V116.944C309.964 117.028 309.665 117.07 309.292 117.07C308.713 117.07 308.256 116.902 307.92 116.566C307.584 116.23 307.416 115.759 307.416 115.152V111.456H306.128V110.266H306.492C306.837 110.266 307.094 110.173 307.262 109.986C307.439 109.79 307.528 109.538 307.528 109.23V108.138H308.732ZM204.508 129.456H202.884V135H201.526V129.456H200.28V128.266H201.526V127.132C201.526 126.413 201.736 125.849 202.156 125.438C202.576 125.027 203.103 124.822 203.738 124.822C204.139 124.822 204.401 124.869 204.522 124.962V126.138C204.382 126.082 204.191 126.054 203.948 126.054C203.659 126.054 203.407 126.143 203.192 126.32C202.987 126.488 202.884 126.782 202.884 127.202V128.266H204.508V129.456ZM209.657 128.196V129.596C209.461 129.568 209.269 129.554 209.083 129.554C207.851 129.554 207.235 130.245 207.235 131.626V135H205.919V128.266H207.207V129.442C207.617 128.583 208.289 128.154 209.223 128.154C209.372 128.154 209.517 128.168 209.657 128.196ZM211.845 130.94H215.527C215.508 130.436 215.34 130.025 215.023 129.708C214.706 129.381 214.258 129.218 213.679 129.218C213.156 129.218 212.727 129.391 212.391 129.736C212.055 130.072 211.873 130.473 211.845 130.94ZM215.723 132.69L216.857 133.082C216.661 133.707 216.297 134.221 215.765 134.622C215.233 135.014 214.589 135.21 213.833 135.21C212.89 135.21 212.088 134.888 211.425 134.244C210.772 133.591 210.445 132.713 210.445 131.612C210.445 130.585 210.762 129.736 211.397 129.064C212.032 128.392 212.788 128.056 213.665 128.056C214.682 128.056 215.476 128.378 216.045 129.022C216.614 129.657 216.899 130.511 216.899 131.584C216.899 131.752 216.89 131.892 216.871 132.004H211.803C211.812 132.601 212.008 133.091 212.391 133.474C212.783 133.857 213.264 134.048 213.833 134.048C214.794 134.048 215.424 133.595 215.723 132.69ZM224.613 137.66H223.311V134.048C223.134 134.393 222.858 134.669 222.485 134.874C222.121 135.079 221.696 135.182 221.211 135.182C220.268 135.182 219.498 134.841 218.901 134.16C218.313 133.469 218.019 132.62 218.019 131.612C218.019 130.623 218.304 129.792 218.873 129.12C219.452 128.439 220.222 128.098 221.183 128.098C221.724 128.098 222.177 128.215 222.541 128.448C222.914 128.681 223.18 128.966 223.339 129.302V128.266H224.613V137.66ZM219.895 129.918C219.54 130.347 219.363 130.912 219.363 131.612C219.363 132.312 219.54 132.891 219.895 133.348C220.259 133.796 220.74 134.02 221.337 134.02C221.925 134.02 222.401 133.796 222.765 133.348C223.138 132.891 223.325 132.312 223.325 131.612C223.325 130.912 223.143 130.347 222.779 129.918C222.415 129.479 221.934 129.26 221.337 129.26C220.73 129.26 220.25 129.479 219.895 129.918ZM231.152 134.188C230.974 134.524 230.704 134.781 230.34 134.958C229.976 135.126 229.584 135.21 229.164 135.21C228.398 135.21 227.787 134.958 227.33 134.454C226.872 133.941 226.644 133.292 226.644 132.508V128.266H227.96V132.312C227.96 132.816 228.081 133.231 228.324 133.558C228.576 133.885 228.963 134.048 229.486 134.048C230.008 134.048 230.405 133.894 230.676 133.586C230.946 133.269 231.082 132.849 231.082 132.326V128.266H232.398V133.754C232.398 134.193 232.421 134.608 232.468 135H231.208C231.17 134.795 231.152 134.524 231.152 134.188ZM235.429 130.94H239.111C239.092 130.436 238.924 130.025 238.607 129.708C238.29 129.381 237.842 129.218 237.263 129.218C236.74 129.218 236.311 129.391 235.975 129.736C235.639 130.072 235.457 130.473 235.429 130.94ZM239.307 132.69L240.441 133.082C240.245 133.707 239.881 134.221 239.349 134.622C238.817 135.014 238.173 135.21 237.417 135.21C236.474 135.21 235.672 134.888 235.009 134.244C234.356 133.591 234.029 132.713 234.029 131.612C234.029 130.585 234.346 129.736 234.981 129.064C235.616 128.392 236.372 128.056 237.249 128.056C238.266 128.056 239.06 128.378 239.629 129.022C240.198 129.657 240.483 130.511 240.483 131.584C240.483 131.752 240.474 131.892 240.455 132.004H235.387C235.396 132.601 235.592 133.091 235.975 133.474C236.367 133.857 236.848 134.048 237.417 134.048C238.378 134.048 239.008 133.595 239.307 132.69ZM243.479 131.108V135H242.163V128.266H243.451V129.232C243.899 128.457 244.59 128.07 245.523 128.07C246.298 128.07 246.89 128.317 247.301 128.812C247.721 129.307 247.931 129.946 247.931 130.73V135H246.615V130.954C246.615 129.825 246.092 129.26 245.047 129.26C244.552 129.26 244.165 129.437 243.885 129.792C243.614 130.137 243.479 130.576 243.479 131.108ZM251.788 126.138V128.266H253.244V129.456H251.788V132.956C251.788 133.273 251.858 133.507 251.998 133.656C252.148 133.805 252.39 133.88 252.726 133.88C252.922 133.88 253.095 133.861 253.244 133.824V134.944C253.02 135.028 252.722 135.07 252.348 135.07C251.77 135.07 251.312 134.902 250.976 134.566C250.64 134.23 250.472 133.759 250.472 133.152V129.456H249.184V128.266H249.548C249.894 128.266 250.15 128.173 250.318 127.986C250.496 127.79 250.584 127.538 250.584 127.23V126.138H251.788ZM256.317 135H255.001V124.864H256.317V135ZM260.236 137.814H258.794L260.474 134.258L257.576 128.266H259.088L261.188 132.914L263.204 128.266H264.618L260.236 137.814ZM268.964 133.194C268.964 132.615 269.15 132.153 269.524 131.808C269.897 131.453 270.392 131.234 271.008 131.15L272.828 130.884C273.173 130.837 273.346 130.669 273.346 130.38C273.346 130.025 273.224 129.736 272.982 129.512C272.739 129.288 272.375 129.176 271.89 129.176C271.442 129.176 271.087 129.302 270.826 129.554C270.564 129.797 270.41 130.123 270.364 130.534L269.104 130.24C269.169 129.596 269.463 129.073 269.986 128.672C270.508 128.261 271.134 128.056 271.862 128.056C272.814 128.056 273.518 128.289 273.976 128.756C274.433 129.213 274.662 129.801 274.662 130.52V133.894C274.662 134.295 274.69 134.664 274.746 135H273.458C273.411 134.72 273.388 134.417 273.388 134.09C273.201 134.389 272.926 134.65 272.562 134.874C272.207 135.098 271.759 135.21 271.218 135.21C270.555 135.21 270.014 135.014 269.594 134.622C269.174 134.221 268.964 133.745 268.964 133.194ZM271.4 134.104C271.988 134.104 272.459 133.945 272.814 133.628C273.168 133.311 273.346 132.807 273.346 132.116V131.808L271.288 132.116C270.989 132.163 270.751 132.27 270.574 132.438C270.396 132.606 270.308 132.835 270.308 133.124C270.308 133.385 270.406 133.614 270.602 133.81C270.807 134.006 271.073 134.104 271.4 134.104ZM276.082 133.25L277.272 132.83C277.318 133.194 277.477 133.497 277.748 133.74C278.018 133.973 278.382 134.09 278.84 134.09C279.194 134.09 279.474 134.006 279.68 133.838C279.885 133.661 279.988 133.446 279.988 133.194C279.988 132.746 279.698 132.457 279.12 132.326L277.972 132.074C277.449 131.962 277.038 131.738 276.74 131.402C276.441 131.066 276.292 130.66 276.292 130.184C276.292 129.605 276.525 129.106 276.992 128.686C277.468 128.266 278.032 128.056 278.686 128.056C279.115 128.056 279.498 128.121 279.834 128.252C280.17 128.373 280.431 128.537 280.618 128.742C280.804 128.947 280.944 129.139 281.038 129.316C281.131 129.493 281.201 129.675 281.248 129.862L280.086 130.296C280.067 130.184 280.034 130.077 279.988 129.974C279.941 129.862 279.866 129.741 279.764 129.61C279.67 129.479 279.53 129.377 279.344 129.302C279.157 129.218 278.938 129.176 278.686 129.176C278.359 129.176 278.088 129.265 277.874 129.442C277.668 129.619 277.566 129.829 277.566 130.072C277.566 130.501 277.822 130.772 278.336 130.884L279.428 131.122C280.025 131.253 280.482 131.495 280.8 131.85C281.126 132.195 281.29 132.62 281.29 133.124C281.29 133.656 281.07 134.137 280.632 134.566C280.202 134.995 279.6 135.21 278.826 135.21C277.995 135.21 277.346 135.005 276.88 134.594C276.413 134.174 276.147 133.726 276.082 133.25ZM289.076 128.266L286.206 131.108L289.132 135H287.48L285.282 132.032L284.344 132.97V135H283.042V124.864H284.344V131.248L287.256 128.266H289.076ZM290.896 130.94H294.578C294.559 130.436 294.391 130.025 294.074 129.708C293.757 129.381 293.309 129.218 292.73 129.218C292.207 129.218 291.778 129.391 291.442 129.736C291.106 130.072 290.924 130.473 290.896 130.94ZM294.774 132.69L295.908 133.082C295.712 133.707 295.348 134.221 294.816 134.622C294.284 135.014 293.64 135.21 292.884 135.21C291.941 135.21 291.139 134.888 290.476 134.244C289.823 133.591 289.496 132.713 289.496 131.612C289.496 130.585 289.813 129.736 290.448 129.064C291.083 128.392 291.839 128.056 292.716 128.056C293.733 128.056 294.527 128.378 295.096 129.022C295.665 129.657 295.95 130.511 295.95 131.584C295.95 131.752 295.941 131.892 295.922 132.004H290.854C290.863 132.601 291.059 133.091 291.442 133.474C291.834 133.857 292.315 134.048 292.884 134.048C293.845 134.048 294.475 133.595 294.774 132.69ZM298.414 131.612C298.414 132.321 298.586 132.9 298.932 133.348C299.286 133.796 299.772 134.02 300.388 134.02C300.976 134.02 301.447 133.791 301.802 133.334C302.156 132.877 302.334 132.293 302.334 131.584C302.334 130.884 302.161 130.319 301.816 129.89C301.47 129.461 300.999 129.246 300.402 129.246C299.804 129.246 299.324 129.465 298.96 129.904C298.596 130.343 298.414 130.912 298.414 131.612ZM302.348 134.09V133.978C302.17 134.323 301.9 134.613 301.536 134.846C301.181 135.07 300.756 135.182 300.262 135.182C299.3 135.182 298.526 134.846 297.938 134.174C297.359 133.493 297.07 132.639 297.07 131.612C297.07 130.632 297.368 129.801 297.966 129.12C298.563 128.429 299.328 128.084 300.262 128.084C300.812 128.084 301.26 128.196 301.606 128.42C301.951 128.635 302.189 128.901 302.32 129.218V124.864H303.622V133.754C303.622 134.211 303.645 134.627 303.692 135H302.418C302.371 134.739 302.348 134.435 302.348 134.09ZM207.154 155.66H205.852V152.048C205.675 152.393 205.399 152.669 205.026 152.874C204.662 153.079 204.237 153.182 203.752 153.182C202.809 153.182 202.039 152.841 201.442 152.16C200.854 151.469 200.56 150.62 200.56 149.612C200.56 148.623 200.845 147.792 201.414 147.12C201.993 146.439 202.763 146.098 203.724 146.098C204.265 146.098 204.718 146.215 205.082 146.448C205.455 146.681 205.721 146.966 205.88 147.302V146.266H207.154V155.66ZM202.436 147.918C202.081 148.347 201.904 148.912 201.904 149.612C201.904 150.312 202.081 150.891 202.436 151.348C202.8 151.796 203.281 152.02 203.878 152.02C204.466 152.02 204.942 151.796 205.306 151.348C205.679 150.891 205.866 150.312 205.866 149.612C205.866 148.912 205.684 148.347 205.32 147.918C204.956 147.479 204.475 147.26 203.878 147.26C203.271 147.26 202.791 147.479 202.436 147.918ZM213.693 152.188C213.515 152.524 213.245 152.781 212.881 152.958C212.517 153.126 212.125 153.21 211.705 153.21C210.939 153.21 210.328 152.958 209.871 152.454C209.413 151.941 209.185 151.292 209.185 150.508V146.266H210.501V150.312C210.501 150.816 210.622 151.231 210.865 151.558C211.117 151.885 211.504 152.048 212.027 152.048C212.549 152.048 212.946 151.894 213.217 151.586C213.487 151.269 213.623 150.849 213.623 150.326V146.266H214.939V151.754C214.939 152.193 214.962 152.608 215.009 153H213.749C213.711 152.795 213.693 152.524 213.693 152.188ZM217.97 148.94H221.652C221.633 148.436 221.465 148.025 221.148 147.708C220.831 147.381 220.383 147.218 219.804 147.218C219.281 147.218 218.852 147.391 218.516 147.736C218.18 148.072 217.998 148.473 217.97 148.94ZM221.848 150.69L222.982 151.082C222.786 151.707 222.422 152.221 221.89 152.622C221.358 153.014 220.714 153.21 219.958 153.21C219.015 153.21 218.213 152.888 217.55 152.244C216.897 151.591 216.57 150.713 216.57 149.612C216.57 148.585 216.887 147.736 217.522 147.064C218.157 146.392 218.913 146.056 219.79 146.056C220.807 146.056 221.601 146.378 222.17 147.022C222.739 147.657 223.024 148.511 223.024 149.584C223.024 149.752 223.015 149.892 222.996 150.004H217.928C217.937 150.601 218.133 151.091 218.516 151.474C218.908 151.857 219.389 152.048 219.958 152.048C220.919 152.048 221.549 151.595 221.848 150.69ZM224.074 151.25L225.264 150.83C225.311 151.194 225.469 151.497 225.74 151.74C226.011 151.973 226.375 152.09 226.832 152.09C227.187 152.09 227.467 152.006 227.672 151.838C227.877 151.661 227.98 151.446 227.98 151.194C227.98 150.746 227.691 150.457 227.112 150.326L225.964 150.074C225.441 149.962 225.031 149.738 224.732 149.402C224.433 149.066 224.284 148.66 224.284 148.184C224.284 147.605 224.517 147.106 224.984 146.686C225.46 146.266 226.025 146.056 226.678 146.056C227.107 146.056 227.49 146.121 227.826 146.252C228.162 146.373 228.423 146.537 228.61 146.742C228.797 146.947 228.937 147.139 229.03 147.316C229.123 147.493 229.193 147.675 229.24 147.862L228.078 148.296C228.059 148.184 228.027 148.077 227.98 147.974C227.933 147.862 227.859 147.741 227.756 147.61C227.663 147.479 227.523 147.377 227.336 147.302C227.149 147.218 226.93 147.176 226.678 147.176C226.351 147.176 226.081 147.265 225.866 147.442C225.661 147.619 225.558 147.829 225.558 148.072C225.558 148.501 225.815 148.772 226.328 148.884L227.42 149.122C228.017 149.253 228.475 149.495 228.792 149.85C229.119 150.195 229.282 150.62 229.282 151.124C229.282 151.656 229.063 152.137 228.624 152.566C228.195 152.995 227.593 153.21 226.818 153.21C225.987 153.21 225.339 153.005 224.872 152.594C224.405 152.174 224.139 151.726 224.074 151.25ZM232.798 144.138V146.266H234.254V147.456H232.798V150.956C232.798 151.273 232.868 151.507 233.008 151.656C233.157 151.805 233.4 151.88 233.736 151.88C233.932 151.88 234.105 151.861 234.254 151.824V152.944C234.03 153.028 233.731 153.07 233.358 153.07C232.779 153.07 232.322 152.902 231.986 152.566C231.65 152.23 231.482 151.759 231.482 151.152V147.456H230.194V146.266H230.558C230.903 146.266 231.16 146.173 231.328 145.986C231.505 145.79 231.594 145.538 231.594 145.23V144.138H232.798ZM237.313 153H236.011V146.266H237.313V153ZM235.983 144.39C235.805 144.203 235.717 143.979 235.717 143.718C235.717 143.457 235.805 143.233 235.983 143.046C236.169 142.859 236.393 142.766 236.655 142.766C236.916 142.766 237.14 142.859 237.327 143.046C237.513 143.223 237.607 143.447 237.607 143.718C237.607 143.979 237.513 144.203 237.327 144.39C237.14 144.567 236.916 144.656 236.655 144.656C236.393 144.656 236.169 144.567 235.983 144.39ZM240.938 151.404C241.348 151.824 241.848 152.034 242.436 152.034C243.024 152.034 243.518 151.824 243.92 151.404C244.33 150.975 244.536 150.382 244.536 149.626C244.536 148.879 244.33 148.296 243.92 147.876C243.518 147.447 243.024 147.232 242.436 147.232C241.848 147.232 241.348 147.447 240.938 147.876C240.536 148.296 240.336 148.879 240.336 149.626C240.336 150.382 240.536 150.975 240.938 151.404ZM239.958 147.078C240.611 146.397 241.437 146.056 242.436 146.056C243.434 146.056 244.256 146.397 244.9 147.078C245.553 147.75 245.88 148.599 245.88 149.626C245.88 150.662 245.558 151.521 244.914 152.202C244.27 152.874 243.444 153.21 242.436 153.21C241.428 153.21 240.602 152.874 239.958 152.202C239.314 151.521 238.992 150.662 238.992 149.626C238.992 148.599 239.314 147.75 239.958 147.078ZM248.879 149.108V153H247.563V146.266H248.851V147.232C249.299 146.457 249.99 146.07 250.923 146.07C251.698 146.07 252.291 146.317 252.701 146.812C253.121 147.307 253.331 147.946 253.331 148.73V153H252.015V148.954C252.015 147.825 251.493 147.26 250.447 147.26C249.953 147.26 249.565 147.437 249.285 147.792C249.015 148.137 248.879 148.576 248.879 149.108ZM254.795 151.25L255.985 150.83C256.031 151.194 256.19 151.497 256.461 151.74C256.731 151.973 257.095 152.09 257.553 152.09C257.907 152.09 258.187 152.006 258.393 151.838C258.598 151.661 258.701 151.446 258.701 151.194C258.701 150.746 258.411 150.457 257.833 150.326L256.685 150.074C256.162 149.962 255.751 149.738 255.453 149.402C255.154 149.066 255.005 148.66 255.005 148.184C255.005 147.605 255.238 147.106 255.705 146.686C256.181 146.266 256.745 146.056 257.399 146.056C257.828 146.056 258.211 146.121 258.547 146.252C258.883 146.373 259.144 146.537 259.331 146.742C259.517 146.947 259.657 147.139 259.751 147.316C259.844 147.493 259.914 147.675 259.961 147.862L258.799 148.296C258.78 148.184 258.747 148.077 258.701 147.974C258.654 147.862 258.579 147.741 258.477 147.61C258.383 147.479 258.243 147.377 258.057 147.302C257.87 147.218 257.651 147.176 257.399 147.176C257.072 147.176 256.801 147.265 256.587 147.442C256.381 147.619 256.279 147.829 256.279 148.072C256.279 148.501 256.535 148.772 257.049 148.884L258.141 149.122C258.738 149.253 259.195 149.495 259.513 149.85C259.839 150.195 260.003 150.62 260.003 151.124C260.003 151.656 259.783 152.137 259.345 152.566C258.915 152.995 258.313 153.21 257.539 153.21C256.708 153.21 256.059 153.005 255.593 152.594C255.126 152.174 254.86 151.726 254.795 151.25ZM261.895 152.79C261.708 152.603 261.615 152.375 261.615 152.104C261.615 151.833 261.708 151.605 261.895 151.418C262.081 151.222 262.31 151.124 262.581 151.124C262.851 151.124 263.08 151.222 263.267 151.418C263.463 151.605 263.561 151.833 263.561 152.104C263.561 152.375 263.463 152.603 263.267 152.79C263.08 152.977 262.851 153.07 262.581 153.07C262.31 153.07 262.081 152.977 261.895 152.79Z" fill="white"/>
<g clip-path="url(#clip0_294_1025)">
<path d="M355.344 148.272L349.263 142.191C349.086 142.02 348.85 141.926 348.604 141.928C348.358 141.93 348.123 142.029 347.949 142.202C347.775 142.376 347.677 142.611 347.674 142.857C347.672 143.103 347.767 143.34 347.938 143.517L353.358 148.937L347.938 154.358C347.767 154.535 347.672 154.772 347.674 155.017C347.677 155.263 347.775 155.498 347.949 155.672C348.123 155.846 348.358 155.945 348.604 155.947C348.85 155.949 349.086 155.854 349.263 155.684L355.344 149.603C355.431 149.516 355.501 149.412 355.548 149.298C355.595 149.183 355.618 149.061 355.618 148.937C355.618 148.814 355.594 148.691 355.547 148.577C355.5 148.463 355.431 148.359 355.344 148.272ZM351.005 135.01C343.276 135.01 337.01 141.276 337.01 149.005C337.01 156.734 343.276 163 351.005 163C358.734 163 365 156.734 365 149.005C365 141.276 358.734 135.01 351.005 135.01ZM351.005 161.125C344.323 161.125 338.885 155.687 338.885 149.005C338.885 142.322 344.323 136.885 351.005 136.885C357.688 136.885 363.125 142.322 363.125 149.005C363.125 155.687 357.688 161.125 351.005 161.125Z" fill="white"/>
</g>
<defs>
<filter id="filter0_d_294_1025" x="0" y="17" width="400" height="185" filterUnits="userSpaceOnUse" color-interpolation-filters="sRGB">
<feFlood flood-opacity="0" result="BackgroundImageFix"/>
<feColorMatrix in="SourceAlpha" type="matrix" values="0 0 0 0 0 0 0 0 0 0 0 0 0 0 0 0 0 0 127 0" result="hardAlpha"/>
<feOffset dy="4"/>
<feGaussianBlur stdDeviation="10"/>
<feComposite in2="hardAlpha" operator="out"/>
<feColorMatrix type="matrix" values="0 0 0 0 0.835294 0 0 0 0 0.886275 0 0 0 0 0.960784 0 0 0 0.9 0"/>
<feBlend mode="normal" in2="BackgroundImageFix" result="effect1_dropShadow_294_1025"/>
<feBlend mode="normal" in="SourceGraphic" in2="effect1_dropShadow_294_1025" result="shape"/>
</filter>
<clipPath id="clip0_294_1025">
<rect width="30" height="30" fill="white" transform="translate(335 133)"/>
</clipPath>
</defs>
</svg>
